G04 #@! TF.GenerationSoftware,KiCad,Pcbnew,(5.0.2)-1*
G04 #@! TF.CreationDate,2019-02-13T01:18:52+00:00*
G04 #@! TF.ProjectId,TeensyBikeShield,5465656e-7379-4426-996b-65536869656c,rev?*
G04 #@! TF.SameCoordinates,Original*
G04 #@! TF.FileFunction,Copper,L1,Top*
G04 #@! TF.FilePolarity,Positive*
%FSLAX46Y46*%
G04 Gerber Fmt 4.6, Leading zero omitted, Abs format (unit mm)*
G04 Created by KiCad (PCBNEW (5.0.2)-1) date 13/02/2019 01:18:52*
%MOMM*%
%LPD*%
G01*
G04 APERTURE LIST*
G04 #@! TA.AperFunction,ComponentPad*
%ADD10R,1.700000X1.700000*%
G04 #@! TD*
G04 #@! TA.AperFunction,ComponentPad*
%ADD11O,1.700000X1.700000*%
G04 #@! TD*
G04 #@! TA.AperFunction,SMDPad,CuDef*
%ADD12R,1.500000X1.250000*%
G04 #@! TD*
G04 #@! TA.AperFunction,SMDPad,CuDef*
%ADD13R,1.250000X1.500000*%
G04 #@! TD*
G04 #@! TA.AperFunction,SMDPad,CuDef*
%ADD14R,1.700000X2.000000*%
G04 #@! TD*
G04 #@! TA.AperFunction,SMDPad,CuDef*
%ADD15R,2.750000X0.950000*%
G04 #@! TD*
G04 #@! TA.AperFunction,SMDPad,CuDef*
%ADD16R,2.750000X3.250000*%
G04 #@! TD*
G04 #@! TA.AperFunction,SMDPad,CuDef*
%ADD17R,0.525000X0.300000*%
G04 #@! TD*
G04 #@! TA.AperFunction,SMDPad,CuDef*
%ADD18R,0.300000X0.425000*%
G04 #@! TD*
G04 #@! TA.AperFunction,SMDPad,CuDef*
%ADD19R,1.100000X0.600000*%
G04 #@! TD*
G04 #@! TA.AperFunction,SMDPad,CuDef*
%ADD20R,2.000000X1.700000*%
G04 #@! TD*
G04 #@! TA.AperFunction,SMDPad,CuDef*
%ADD21R,1.300000X1.500000*%
G04 #@! TD*
G04 #@! TA.AperFunction,SMDPad,CuDef*
%ADD22R,1.500000X1.300000*%
G04 #@! TD*
G04 #@! TA.AperFunction,ComponentPad*
%ADD23C,1.600000*%
G04 #@! TD*
G04 #@! TA.AperFunction,ComponentPad*
%ADD24R,1.600000X1.600000*%
G04 #@! TD*
G04 #@! TA.AperFunction,ViaPad*
%ADD25C,0.800000*%
G04 #@! TD*
G04 #@! TA.AperFunction,Conductor*
%ADD26C,0.400000*%
G04 #@! TD*
G04 #@! TA.AperFunction,Conductor*
%ADD27C,0.200000*%
G04 #@! TD*
G04 #@! TA.AperFunction,Conductor*
%ADD28C,0.300000*%
G04 #@! TD*
G04 #@! TA.AperFunction,Conductor*
%ADD29C,0.254000*%
G04 #@! TD*
G04 APERTURE END LIST*
D10*
G04 #@! TO.P,ANALOG,1*
G04 #@! TO.N,/A0*
X59690000Y-22352000D03*
D11*
G04 #@! TO.P,ANALOG,2*
G04 #@! TO.N,/A1*
X57150000Y-22352000D03*
G04 #@! TO.P,ANALOG,3*
G04 #@! TO.N,/A2*
X54610000Y-22352000D03*
G04 #@! TO.P,ANALOG,4*
G04 #@! TO.N,/A3*
X52070000Y-22352000D03*
G04 #@! TD*
D12*
G04 #@! TO.P,C1,1*
G04 #@! TO.N,+3V3*
X94020000Y-42672000D03*
G04 #@! TO.P,C1,2*
G04 #@! TO.N,GND*
X96520000Y-42672000D03*
G04 #@! TD*
G04 #@! TO.P,C2,2*
G04 #@! TO.N,GND*
X96520000Y-33528000D03*
G04 #@! TO.P,C2,1*
G04 #@! TO.N,+3V3*
X94020000Y-33528000D03*
G04 #@! TD*
G04 #@! TO.P,C3,2*
G04 #@! TO.N,GND*
X47966000Y-26670000D03*
G04 #@! TO.P,C3,1*
G04 #@! TO.N,+5V*
X45466000Y-26670000D03*
G04 #@! TD*
D13*
G04 #@! TO.P,C4,2*
G04 #@! TO.N,GND*
X99187000Y-40112000D03*
G04 #@! TO.P,C4,1*
G04 #@! TO.N,Net-(C4-Pad1)*
X99187000Y-37612000D03*
G04 #@! TD*
G04 #@! TO.P,C5,2*
G04 #@! TO.N,GND*
X91186000Y-45045000D03*
G04 #@! TO.P,C5,1*
G04 #@! TO.N,/XIN32*
X91186000Y-42545000D03*
G04 #@! TD*
G04 #@! TO.P,C6,1*
G04 #@! TO.N,VCC*
X45212000Y-21630000D03*
G04 #@! TO.P,C6,2*
G04 #@! TO.N,GND*
X45212000Y-24130000D03*
G04 #@! TD*
G04 #@! TO.P,C7,1*
G04 #@! TO.N,/XOUT32*
X91186000Y-36048000D03*
G04 #@! TO.P,C7,2*
G04 #@! TO.N,GND*
X91186000Y-33548000D03*
G04 #@! TD*
D14*
G04 #@! TO.P,D1,1*
G04 #@! TO.N,Net-(D1-Pad1)*
X74676000Y-53276000D03*
G04 #@! TO.P,D1,2*
G04 #@! TO.N,Net-(D1-Pad2)*
X74676000Y-49276000D03*
G04 #@! TD*
G04 #@! TO.P,D2,2*
G04 #@! TO.N,Net-(D2-Pad2)*
X77216000Y-49276000D03*
G04 #@! TO.P,D2,1*
G04 #@! TO.N,Net-(D2-Pad1)*
X77216000Y-53276000D03*
G04 #@! TD*
D11*
G04 #@! TO.P,DIGITAL,4*
G04 #@! TO.N,/D4*
X44450000Y-53848000D03*
G04 #@! TO.P,DIGITAL,3*
G04 #@! TO.N,/D3*
X41910000Y-53848000D03*
G04 #@! TO.P,DIGITAL,2*
G04 #@! TO.N,/D2*
X39370000Y-53848000D03*
D10*
G04 #@! TO.P,DIGITAL,1*
G04 #@! TO.N,/D1*
X36830000Y-53848000D03*
G04 #@! TD*
D11*
G04 #@! TO.P,I2C,3*
G04 #@! TO.N,GND*
X72644000Y-22352000D03*
G04 #@! TO.P,I2C,2*
G04 #@! TO.N,/I2C_SCL*
X70104000Y-22352000D03*
D10*
G04 #@! TO.P,I2C,1*
G04 #@! TO.N,/I2C_SDA*
X67564000Y-22352000D03*
G04 #@! TD*
D15*
G04 #@! TO.P,REG,1*
G04 #@! TO.N,GND*
X41970000Y-26430000D03*
G04 #@! TO.P,REG,2*
G04 #@! TO.N,+5V*
X41970000Y-24130000D03*
G04 #@! TO.P,REG,3*
G04 #@! TO.N,VCC*
X41970000Y-21830000D03*
D16*
G04 #@! TO.P,REG,4*
G04 #@! TO.N,+5V*
X36770000Y-24130000D03*
G04 #@! TD*
D17*
G04 #@! TO.P,IMU,1*
G04 #@! TO.N,N/C*
X93687500Y-40350000D03*
D18*
G04 #@! TO.P,IMU,2*
G04 #@! TO.N,GND*
X94500000Y-40412500D03*
G04 #@! TO.P,IMU,3*
G04 #@! TO.N,+3V3*
X95000000Y-40412500D03*
G04 #@! TO.P,IMU,4*
G04 #@! TO.N,Net-(IMU1-Pad4)*
X95500000Y-40412500D03*
G04 #@! TO.P,IMU,5*
G04 #@! TO.N,GND*
X96000000Y-40412500D03*
D17*
G04 #@! TO.P,IMU,6*
X96812500Y-40350000D03*
G04 #@! TO.P,IMU,7*
G04 #@! TO.N,N/C*
X96812500Y-39850000D03*
G04 #@! TO.P,IMU,8*
X96812500Y-39350000D03*
G04 #@! TO.P,IMU,9*
G04 #@! TO.N,Net-(C4-Pad1)*
X96812500Y-38850000D03*
G04 #@! TO.P,IMU,10*
G04 #@! TO.N,N/C*
X96812500Y-38350000D03*
G04 #@! TO.P,IMU,11*
G04 #@! TO.N,/IMU_RESET*
X96812500Y-37850000D03*
G04 #@! TO.P,IMU,12*
G04 #@! TO.N,N/C*
X96812500Y-37350000D03*
G04 #@! TO.P,IMU,13*
X96812500Y-36850000D03*
G04 #@! TO.P,IMU,14*
G04 #@! TO.N,/IMU_INT*
X96812500Y-36350000D03*
G04 #@! TO.P,IMU,15*
G04 #@! TO.N,GND*
X96812500Y-35850000D03*
D18*
G04 #@! TO.P,IMU,16*
X96000000Y-35787500D03*
G04 #@! TO.P,IMU,17*
X95500000Y-35787500D03*
G04 #@! TO.P,IMU,18*
X95000000Y-35787500D03*
G04 #@! TO.P,IMU,19*
G04 #@! TO.N,/I2C_SCL*
X94500000Y-35787500D03*
D17*
G04 #@! TO.P,IMU,20*
G04 #@! TO.N,/I2C_SDA*
X93687500Y-35850000D03*
G04 #@! TO.P,IMU,21*
G04 #@! TO.N,N/C*
X93687500Y-36350000D03*
G04 #@! TO.P,IMU,22*
X93687500Y-36850000D03*
G04 #@! TO.P,IMU,23*
X93687500Y-37350000D03*
G04 #@! TO.P,IMU,24*
X93687500Y-37850000D03*
G04 #@! TO.P,IMU,25*
G04 #@! TO.N,GND*
X93687500Y-38350000D03*
G04 #@! TO.P,IMU,26*
G04 #@! TO.N,/XOUT32*
X93687500Y-38850000D03*
G04 #@! TO.P,IMU,27*
G04 #@! TO.N,/XIN32*
X93687500Y-39350000D03*
G04 #@! TO.P,IMU,28*
G04 #@! TO.N,+3V3*
X93687500Y-39850000D03*
G04 #@! TD*
D19*
G04 #@! TO.P,OSC,2*
G04 #@! TO.N,/XOUT32*
X91186000Y-38608000D03*
G04 #@! TO.P,OSC,1*
G04 #@! TO.N,/XIN32*
X91186000Y-40008000D03*
G04 #@! TD*
D11*
G04 #@! TO.P,Vin,2*
G04 #@! TO.N,GND*
X32258000Y-26924000D03*
D10*
G04 #@! TO.P,Vin,1*
G04 #@! TO.N,VCC*
X29718000Y-26924000D03*
G04 #@! TD*
D20*
G04 #@! TO.P,PWR,2*
G04 #@! TO.N,+5V*
X29210000Y-49022000D03*
G04 #@! TO.P,PWR,1*
G04 #@! TO.N,Net-(PWR1-Pad1)*
X33210000Y-49022000D03*
G04 #@! TD*
D21*
G04 #@! TO.P,R1,2*
G04 #@! TO.N,+3V3*
X99187000Y-45292000D03*
G04 #@! TO.P,R1,1*
G04 #@! TO.N,Net-(IMU1-Pad4)*
X99187000Y-42592000D03*
G04 #@! TD*
G04 #@! TO.P,R2,1*
G04 #@! TO.N,/IMU_RESET*
X99187000Y-35052000D03*
G04 #@! TO.P,R2,2*
G04 #@! TO.N,+3V3*
X99187000Y-32352000D03*
G04 #@! TD*
D22*
G04 #@! TO.P,R3,2*
G04 #@! TO.N,Net-(PWR1-Pad1)*
X36195000Y-49022000D03*
G04 #@! TO.P,R3,1*
G04 #@! TO.N,GND*
X38895000Y-49022000D03*
G04 #@! TD*
G04 #@! TO.P,R4,1*
G04 #@! TO.N,/I2C_SDA*
X70200520Y-27686000D03*
G04 #@! TO.P,R4,2*
G04 #@! TO.N,+3V3*
X72900520Y-27686000D03*
G04 #@! TD*
D21*
G04 #@! TO.P,R5,1*
G04 #@! TO.N,GND*
X71882000Y-50640000D03*
G04 #@! TO.P,R5,2*
G04 #@! TO.N,Net-(D1-Pad1)*
X71882000Y-53340000D03*
G04 #@! TD*
G04 #@! TO.P,R6,2*
G04 #@! TO.N,Net-(D2-Pad1)*
X80010000Y-53340000D03*
G04 #@! TO.P,R6,1*
G04 #@! TO.N,GND*
X80010000Y-50640000D03*
G04 #@! TD*
D22*
G04 #@! TO.P,R7,2*
G04 #@! TO.N,+3V3*
X72898000Y-25400000D03*
G04 #@! TO.P,R7,1*
G04 #@! TO.N,/I2C_SCL*
X70198000Y-25400000D03*
G04 #@! TD*
D23*
G04 #@! TO.P,,17*
G04 #@! TO.N,Net-(D2-Pad2)*
X69850000Y-45720000D03*
G04 #@! TO.P,,18*
G04 #@! TO.N,/IMU_RESET*
X72390000Y-45720000D03*
G04 #@! TO.P,,19*
G04 #@! TO.N,/IMU_INT*
X74930000Y-45720000D03*
G04 #@! TO.P,,20*
G04 #@! TO.N,N/C*
X77470000Y-45720000D03*
G04 #@! TO.P,,16*
G04 #@! TO.N,Net-(D1-Pad2)*
X67310000Y-45720000D03*
G04 #@! TO.P,,15*
G04 #@! TO.N,N/C*
X64770000Y-45720000D03*
G04 #@! TO.P,,14*
X62230000Y-45720000D03*
G04 #@! TO.P,,21*
X80010000Y-45720000D03*
G04 #@! TO.P,,22*
X82550000Y-45720000D03*
G04 #@! TO.P,,23*
X85090000Y-45720000D03*
G04 #@! TO.P,,24*
X87630000Y-45720000D03*
G04 #@! TO.P,,25*
X74930000Y-43180000D03*
G04 #@! TO.P,,26*
X74930000Y-40640000D03*
G04 #@! TO.P,,27*
G04 #@! TO.N,GND*
X74930000Y-38100000D03*
G04 #@! TO.P,,28*
G04 #@! TO.N,N/C*
X74930000Y-35560000D03*
G04 #@! TO.P,,29*
X74930000Y-33020000D03*
G04 #@! TO.P,,30*
X87630000Y-30480000D03*
G04 #@! TO.P,,31*
X85090000Y-30480000D03*
G04 #@! TO.P,,32*
X82550000Y-30480000D03*
G04 #@! TO.P,,33*
X80010000Y-30480000D03*
G04 #@! TO.P,,34*
X77470000Y-30480000D03*
G04 #@! TO.P,,35*
X74930000Y-30480000D03*
G04 #@! TO.P,,36*
X72390000Y-30480000D03*
G04 #@! TO.P,,37*
X69850000Y-30480000D03*
G04 #@! TO.P,,13*
X59690000Y-45720000D03*
G04 #@! TO.P,,12*
G04 #@! TO.N,/UART2_TX*
X57150000Y-45720000D03*
G04 #@! TO.P,,11*
G04 #@! TO.N,/UART2_RX*
X54610000Y-45720000D03*
G04 #@! TO.P,,10*
G04 #@! TO.N,/UART3_TX*
X52070000Y-45720000D03*
G04 #@! TO.P,,9*
G04 #@! TO.N,/UART3_RX*
X49530000Y-45720000D03*
G04 #@! TO.P,,8*
G04 #@! TO.N,N/C*
X46990000Y-45720000D03*
G04 #@! TO.P,,7*
G04 #@! TO.N,/D4*
X44450000Y-45720000D03*
G04 #@! TO.P,,6*
G04 #@! TO.N,/D3*
X41910000Y-45720000D03*
G04 #@! TO.P,,5*
G04 #@! TO.N,/D2*
X39370000Y-45720000D03*
G04 #@! TO.P,,4*
G04 #@! TO.N,/D1*
X36830000Y-45720000D03*
G04 #@! TO.P,,3*
G04 #@! TO.N,/UART1_TX*
X34290000Y-45720000D03*
G04 #@! TO.P,,2*
G04 #@! TO.N,/UART1_RX*
X31750000Y-45720000D03*
D24*
G04 #@! TO.P,,1*
G04 #@! TO.N,GND*
X29210000Y-45720000D03*
D23*
G04 #@! TO.P,,38*
G04 #@! TO.N,N/C*
X67310000Y-30480000D03*
G04 #@! TO.P,,39*
G04 #@! TO.N,GND*
X64770000Y-30480000D03*
G04 #@! TO.P,,40*
G04 #@! TO.N,N/C*
X62230000Y-30480000D03*
G04 #@! TO.P,,41*
G04 #@! TO.N,/A0*
X59690000Y-30480000D03*
G04 #@! TO.P,,42*
G04 #@! TO.N,/A1*
X57150000Y-30480000D03*
G04 #@! TO.P,,43*
G04 #@! TO.N,/A2*
X54610000Y-30480000D03*
G04 #@! TO.P,,44*
G04 #@! TO.N,/A3*
X52070000Y-30480000D03*
G04 #@! TO.P,,45*
G04 #@! TO.N,/I2C_SDA*
X49530000Y-30480000D03*
G04 #@! TO.P,,46*
G04 #@! TO.N,/I2C_SCL*
X46990000Y-30480000D03*
G04 #@! TO.P,,47*
G04 #@! TO.N,N/C*
X44450000Y-30480000D03*
G04 #@! TO.P,,48*
X41910000Y-30480000D03*
G04 #@! TO.P,,49*
X39370000Y-30480000D03*
G04 #@! TO.P,,50*
X36830000Y-30480000D03*
G04 #@! TO.P,,51*
G04 #@! TO.N,+3V3*
X34290000Y-30480000D03*
G04 #@! TO.P,,52*
G04 #@! TO.N,GND*
X31750000Y-30480000D03*
G04 #@! TO.P,,53*
G04 #@! TO.N,+5V*
X29210000Y-30480000D03*
G04 #@! TO.P,,54*
G04 #@! TO.N,N/C*
X31750000Y-33020000D03*
G04 #@! TO.P,,55*
X36830000Y-33020000D03*
G04 #@! TO.P,,56*
X39370000Y-33020000D03*
G04 #@! TO.P,,57*
X41910000Y-33020000D03*
G04 #@! TO.P,,63*
X44450000Y-38100000D03*
G04 #@! TO.P,,64*
X46990000Y-38100000D03*
G04 #@! TO.P,,65*
X49530000Y-38100000D03*
G04 #@! TO.P,,66*
X52070000Y-38100000D03*
G04 #@! TO.P,,67*
X67310000Y-38100000D03*
G04 #@! TO.P,,68*
X69850000Y-38100000D03*
G04 #@! TO.P,,69*
X72390000Y-38100000D03*
G04 #@! TO.P,,70*
X77470000Y-38100000D03*
G04 #@! TO.P,,71*
X80010000Y-38100000D03*
G04 #@! TO.P,,72*
X82550000Y-38100000D03*
G04 #@! TO.P,,73*
X85090000Y-38100000D03*
G04 #@! TO.P,,74*
G04 #@! TO.N,GND*
X87630000Y-38100000D03*
G04 #@! TO.P,,75*
G04 #@! TO.N,N/C*
X87630000Y-35560000D03*
G04 #@! TO.P,,76*
X85090000Y-35560000D03*
G04 #@! TO.P,,77*
X82550000Y-35560000D03*
G04 #@! TO.P,,78*
X80010000Y-35560000D03*
G04 #@! TO.P,,79*
X77470000Y-35560000D03*
G04 #@! TO.P,,80*
X72390000Y-35560000D03*
G04 #@! TO.P,,81*
X69850000Y-35560000D03*
G04 #@! TO.P,,82*
X67310000Y-35560000D03*
G04 #@! TO.P,,83*
X52070000Y-35560000D03*
G04 #@! TO.P,,84*
X49530000Y-35560000D03*
G04 #@! TO.P,,85*
X46990000Y-35560000D03*
G04 #@! TO.P,,86*
X44450000Y-35560000D03*
G04 #@! TO.P,,58*
X35560000Y-42720000D03*
G04 #@! TO.P,,59*
X38100000Y-42720000D03*
G04 #@! TO.P,,60*
X40640000Y-42720000D03*
G04 #@! TO.P,,61*
G04 #@! TO.N,GND*
X43180000Y-42720000D03*
G04 #@! TO.P,,62*
X45720000Y-42720000D03*
G04 #@! TD*
D10*
G04 #@! TO.P,UART1,1*
G04 #@! TO.N,/UART1_RX*
X50546000Y-49784000D03*
D11*
G04 #@! TO.P,UART1,2*
G04 #@! TO.N,/UART1_TX*
X53086000Y-49784000D03*
G04 #@! TO.P,UART1,3*
G04 #@! TO.N,GND*
X55626000Y-49784000D03*
G04 #@! TD*
G04 #@! TO.P,UART2,3*
G04 #@! TO.N,GND*
X55626000Y-53848000D03*
G04 #@! TO.P,UART2,2*
G04 #@! TO.N,/UART2_TX*
X53086000Y-53848000D03*
D10*
G04 #@! TO.P,UART2,1*
G04 #@! TO.N,/UART2_RX*
X50546000Y-53848000D03*
G04 #@! TD*
G04 #@! TO.P,UART3,1*
G04 #@! TO.N,/UART3_RX*
X61214000Y-51816000D03*
D11*
G04 #@! TO.P,UART3,2*
G04 #@! TO.N,/UART3_TX*
X63754000Y-51816000D03*
G04 #@! TO.P,UART3,3*
G04 #@! TO.N,GND*
X66294000Y-51816000D03*
G04 #@! TD*
D10*
G04 #@! TO.P,,1*
G04 #@! TO.N,+3V3*
X82042000Y-24892000D03*
D11*
G04 #@! TO.P,,2*
G04 #@! TO.N,GND*
X82042000Y-22352000D03*
G04 #@! TO.P,,3*
G04 #@! TO.N,+3V3*
X84582000Y-24892000D03*
G04 #@! TO.P,,4*
G04 #@! TO.N,GND*
X84582000Y-22352000D03*
G04 #@! TO.P,,5*
G04 #@! TO.N,+3V3*
X87122000Y-24892000D03*
G04 #@! TO.P,,6*
G04 #@! TO.N,GND*
X87122000Y-22352000D03*
G04 #@! TD*
D25*
G04 #@! TO.N,+3V3*
X93599000Y-45339000D03*
G04 #@! TO.N,/IMU_INT*
X97790000Y-34798000D03*
G04 #@! TO.N,/I2C_SDA*
X89916000Y-30988000D03*
G04 #@! TO.N,/I2C_SCL*
X91186000Y-30988000D03*
G04 #@! TO.N,/IMU_RESET*
X99237800Y-48818800D03*
G04 #@! TO.N,GND*
X95605600Y-38176200D03*
X96774000Y-44196000D03*
X98044000Y-33655000D03*
G04 #@! TD*
D26*
G04 #@! TO.N,GND*
X82042000Y-22352000D02*
X84582000Y-22352000D01*
X84582000Y-22352000D02*
X87122000Y-22352000D01*
X73846081Y-22352000D02*
X82042000Y-22352000D01*
X72644000Y-22352000D02*
X73846081Y-22352000D01*
X90150000Y-33548000D02*
X91186000Y-33548000D01*
X89408000Y-34290000D02*
X90150000Y-33548000D01*
X87630000Y-38100000D02*
X89408000Y-36322000D01*
X89408000Y-36322000D02*
X89408000Y-34290000D01*
X74930000Y-38100000D02*
X77216000Y-40386000D01*
X85344000Y-40386000D02*
X87630000Y-38100000D01*
X77216000Y-40386000D02*
X85344000Y-40386000D01*
X85502000Y-40386000D02*
X85344000Y-40386000D01*
X90161000Y-45045000D02*
X85502000Y-40386000D01*
X91186000Y-45045000D02*
X90161000Y-45045000D01*
X91186000Y-45170000D02*
X91186000Y-45045000D01*
X85716000Y-50640000D02*
X91186000Y-45170000D01*
X80010000Y-50640000D02*
X85716000Y-50640000D01*
X67470000Y-50640000D02*
X66294000Y-51816000D01*
X71882000Y-50640000D02*
X67470000Y-50640000D01*
X80010000Y-50740000D02*
X80010000Y-50640000D01*
X81788000Y-52518000D02*
X80010000Y-50740000D01*
X81788000Y-54610000D02*
X81788000Y-52518000D01*
X81026000Y-55372000D02*
X81788000Y-54610000D01*
X69850000Y-55372000D02*
X81026000Y-55372000D01*
X66294000Y-51816000D02*
X69850000Y-55372000D01*
X43180000Y-42720000D02*
X45720000Y-42720000D01*
D27*
X95000000Y-35787500D02*
X95500000Y-35787500D01*
X95500000Y-35787500D02*
X96000000Y-35787500D01*
X96750000Y-35787500D02*
X96812500Y-35850000D01*
X96000000Y-35787500D02*
X96750000Y-35787500D01*
X96812500Y-33820500D02*
X96520000Y-33528000D01*
X96812500Y-35850000D02*
X96812500Y-33820500D01*
X96000000Y-36200000D02*
X96000000Y-35787500D01*
X96000000Y-36500000D02*
X96000000Y-36200000D01*
X94150000Y-38350000D02*
X96000000Y-36500000D01*
X93687500Y-38350000D02*
X94150000Y-38350000D01*
X94500000Y-40412500D02*
X94500000Y-38620000D01*
X94500000Y-38620000D02*
X94234000Y-38354000D01*
X96750000Y-40412500D02*
X96812500Y-40350000D01*
X96000000Y-40412500D02*
X96750000Y-40412500D01*
X98949000Y-40350000D02*
X99187000Y-40112000D01*
X96812500Y-40350000D02*
X98949000Y-40350000D01*
X96812500Y-42379500D02*
X96520000Y-42672000D01*
X96000000Y-40000000D02*
X96000000Y-40412500D01*
X94620000Y-38620000D02*
X96000000Y-40000000D01*
X94500000Y-38620000D02*
X94620000Y-38620000D01*
D26*
X96520000Y-43942000D02*
X96774000Y-44196000D01*
X96520000Y-42672000D02*
X96520000Y-43942000D01*
D27*
X94663801Y-38576199D02*
X94620000Y-38620000D01*
X95205601Y-38576199D02*
X94663801Y-38576199D01*
X95605600Y-38176200D02*
X95205601Y-38576199D01*
X41704000Y-44196000D02*
X43180000Y-42720000D01*
X36449000Y-44196000D02*
X41704000Y-44196000D01*
X35560000Y-45085000D02*
X36449000Y-44196000D01*
X35560000Y-46078002D02*
X35560000Y-45085000D01*
X38895000Y-49022000D02*
X38503998Y-49022000D01*
X38503998Y-49022000D02*
X35560000Y-46078002D01*
D26*
X70310000Y-42720000D02*
X45720000Y-42720000D01*
X74930000Y-38100000D02*
X70310000Y-42720000D01*
G04 #@! TO.N,+3V3*
X72898000Y-27683480D02*
X72900520Y-27686000D01*
X72898000Y-25400000D02*
X72898000Y-27683480D01*
D28*
X98839000Y-32004000D02*
X99187000Y-32352000D01*
X94619000Y-32004000D02*
X98839000Y-32004000D01*
X94020000Y-33528000D02*
X94020000Y-32603000D01*
X94020000Y-32603000D02*
X94619000Y-32004000D01*
D26*
X81534000Y-25400000D02*
X82042000Y-24892000D01*
X72898000Y-25400000D02*
X81534000Y-25400000D01*
X82042000Y-24892000D02*
X84582000Y-24892000D01*
X84582000Y-24892000D02*
X87122000Y-24892000D01*
X94020000Y-31790000D02*
X94020000Y-33528000D01*
X87122000Y-24892000D02*
X94020000Y-31790000D01*
D27*
X93895000Y-42672000D02*
X94020000Y-42672000D01*
X92710000Y-41487000D02*
X93895000Y-42672000D01*
X92710000Y-40365000D02*
X92710000Y-41487000D01*
X93225000Y-39850000D02*
X92710000Y-40365000D01*
X93687500Y-39850000D02*
X93225000Y-39850000D01*
X94145000Y-42672000D02*
X94020000Y-42672000D01*
X95000000Y-41817000D02*
X94145000Y-42672000D01*
X95000000Y-40412500D02*
X95000000Y-41817000D01*
D26*
X94020000Y-44918000D02*
X93599000Y-45339000D01*
X94020000Y-42672000D02*
X94020000Y-44918000D01*
X98137000Y-45292000D02*
X99187000Y-45292000D01*
X95615000Y-45292000D02*
X98137000Y-45292000D01*
X94020000Y-43697000D02*
X95615000Y-45292000D01*
X94020000Y-42672000D02*
X94020000Y-43697000D01*
X34290000Y-30480000D02*
X34290000Y-31611370D01*
X72900520Y-28736000D02*
X72900520Y-27686000D01*
X34290000Y-31611370D02*
X34428630Y-31750000D01*
X34428630Y-31750000D02*
X73152000Y-31750000D01*
X73152000Y-31750000D02*
X73660000Y-31242000D01*
X73660000Y-31242000D02*
X73660000Y-29495480D01*
X73660000Y-29495480D02*
X72900520Y-28736000D01*
G04 #@! TO.N,/A0*
X59690000Y-29348630D02*
X59690000Y-22352000D01*
X59690000Y-30480000D02*
X59690000Y-29348630D01*
G04 #@! TO.N,/A1*
X57150000Y-29348630D02*
X57150000Y-22352000D01*
X57150000Y-30480000D02*
X57150000Y-29348630D01*
G04 #@! TO.N,/A2*
X54610000Y-30480000D02*
X54610000Y-22352000D01*
G04 #@! TO.N,/A3*
X52070000Y-29348630D02*
X52070000Y-22352000D01*
X52070000Y-30480000D02*
X52070000Y-29348630D01*
G04 #@! TO.N,+5V*
X36770000Y-24130000D02*
X41970000Y-24130000D01*
X29210000Y-30480000D02*
X30988000Y-28702000D01*
X30988000Y-28702000D02*
X34544000Y-28702000D01*
X36770000Y-26476000D02*
X36770000Y-24130000D01*
X34544000Y-28702000D02*
X36770000Y-26476000D01*
D28*
X45410000Y-26670000D02*
X45466000Y-26670000D01*
X42870000Y-24130000D02*
X45410000Y-26670000D01*
X41970000Y-24130000D02*
X42870000Y-24130000D01*
X29210000Y-33020000D02*
X29210000Y-30480000D01*
X30480000Y-34290000D02*
X29210000Y-33020000D01*
X30480000Y-46602000D02*
X30480000Y-34290000D01*
X29210000Y-49022000D02*
X29210000Y-47872000D01*
X29210000Y-47872000D02*
X30480000Y-46602000D01*
D27*
G04 #@! TO.N,Net-(C4-Pad1)*
X99187000Y-37737000D02*
X99187000Y-37612000D01*
X98074000Y-38850000D02*
X99187000Y-37737000D01*
X96812500Y-38850000D02*
X98074000Y-38850000D01*
D28*
G04 #@! TO.N,/XIN32*
X91186000Y-42545000D02*
X91186000Y-40008000D01*
D27*
X93225000Y-39350000D02*
X93687500Y-39350000D01*
X92594000Y-39350000D02*
X93225000Y-39350000D01*
X91936000Y-40008000D02*
X92594000Y-39350000D01*
X91186000Y-40008000D02*
X91936000Y-40008000D01*
D26*
G04 #@! TO.N,VCC*
X45012000Y-21830000D02*
X45212000Y-21630000D01*
X41970000Y-21830000D02*
X45012000Y-21830000D01*
X29718000Y-25674000D02*
X30754000Y-24638000D01*
X29718000Y-26924000D02*
X29718000Y-25674000D01*
X30754000Y-24638000D02*
X31750000Y-24638000D01*
X34558000Y-21830000D02*
X41970000Y-21830000D01*
X31750000Y-24638000D02*
X34558000Y-21830000D01*
D28*
G04 #@! TO.N,/XOUT32*
X91186000Y-36048000D02*
X91186000Y-38608000D01*
D27*
X93225000Y-38850000D02*
X93687500Y-38850000D01*
X92178000Y-38850000D02*
X93225000Y-38850000D01*
X91936000Y-38608000D02*
X92178000Y-38850000D01*
X91186000Y-38608000D02*
X91936000Y-38608000D01*
D28*
G04 #@! TO.N,Net-(D1-Pad1)*
X74612000Y-53340000D02*
X74676000Y-53276000D01*
X71882000Y-53340000D02*
X74612000Y-53340000D01*
G04 #@! TO.N,Net-(D1-Pad2)*
X74676000Y-49126000D02*
X73556000Y-48006000D01*
X74676000Y-49276000D02*
X74676000Y-49126000D01*
X69596000Y-48006000D02*
X67310000Y-45720000D01*
X73556000Y-48006000D02*
X69596000Y-48006000D01*
G04 #@! TO.N,Net-(D2-Pad2)*
X77216000Y-47976000D02*
X76484000Y-47244000D01*
X77216000Y-49276000D02*
X77216000Y-47976000D01*
X71374000Y-47244000D02*
X69850000Y-45720000D01*
X76484000Y-47244000D02*
X71374000Y-47244000D01*
G04 #@! TO.N,Net-(D2-Pad1)*
X77280000Y-53340000D02*
X77216000Y-53276000D01*
X80010000Y-53340000D02*
X77280000Y-53340000D01*
G04 #@! TO.N,/D4*
X44450000Y-53848000D02*
X44450000Y-45720000D01*
G04 #@! TO.N,/D3*
X41910000Y-52645919D02*
X41910000Y-45720000D01*
X41910000Y-53848000D02*
X41910000Y-52645919D01*
G04 #@! TO.N,/D2*
X39370000Y-53848000D02*
X40894000Y-52324000D01*
X40894000Y-47244000D02*
X39370000Y-45720000D01*
X40894000Y-52324000D02*
X40894000Y-47244000D01*
G04 #@! TO.N,/D1*
X36830000Y-52698000D02*
X38728000Y-50800000D01*
X36830000Y-53848000D02*
X36830000Y-52698000D01*
X38728000Y-50800000D02*
X39624000Y-50800000D01*
X39624000Y-50800000D02*
X40386000Y-50038000D01*
X40386000Y-50038000D02*
X40386000Y-48006000D01*
X40386000Y-48006000D02*
X39878000Y-47498000D01*
X38608000Y-47498000D02*
X36830000Y-45720000D01*
X39878000Y-47498000D02*
X38608000Y-47498000D01*
D26*
G04 #@! TO.N,/I2C_SCL*
X70104000Y-25306000D02*
X70198000Y-25400000D01*
X70104000Y-22352000D02*
X70104000Y-25306000D01*
D27*
X94500000Y-35375000D02*
X93923000Y-34798000D01*
X94500000Y-35787500D02*
X94500000Y-35375000D01*
X93923000Y-34798000D02*
X93218000Y-34798000D01*
X93218000Y-34798000D02*
X92710000Y-34290000D01*
X92710000Y-34290000D02*
X92710000Y-31750000D01*
X91948000Y-30988000D02*
X91186000Y-30988000D01*
X92710000Y-31750000D02*
X91948000Y-30988000D01*
D26*
G04 #@! TO.N,/I2C_SDA*
X70100520Y-27686000D02*
X70200520Y-27686000D01*
X67564000Y-25149480D02*
X70100520Y-27686000D01*
X67564000Y-22352000D02*
X67564000Y-25149480D01*
D27*
X90932000Y-32004000D02*
X89916000Y-30988000D01*
X91948000Y-32004000D02*
X90932000Y-32004000D01*
X92303600Y-32359600D02*
X91948000Y-32004000D01*
X92303600Y-35407600D02*
X92303600Y-32359600D01*
X93687500Y-35850000D02*
X92746000Y-35850000D01*
X92746000Y-35850000D02*
X92303600Y-35407600D01*
G04 #@! TO.N,Net-(IMU1-Pad4)*
X99187000Y-42592000D02*
X99187000Y-42692000D01*
X99187000Y-42492000D02*
X99187000Y-42592000D01*
X98097000Y-41402000D02*
X99187000Y-42492000D01*
X96077000Y-41402000D02*
X98097000Y-41402000D01*
X95500000Y-40825000D02*
X96077000Y-41402000D01*
X95500000Y-40412500D02*
X95500000Y-40825000D01*
G04 #@! TO.N,/IMU_RESET*
X98552000Y-36322000D02*
X99187000Y-35687000D01*
X97275000Y-37850000D02*
X97790000Y-37335000D01*
X98298000Y-36322000D02*
X98552000Y-36322000D01*
X96812500Y-37850000D02*
X97275000Y-37850000D01*
X97790000Y-37335000D02*
X97793000Y-37335000D01*
X97793000Y-37335000D02*
X98044000Y-37084000D01*
X99187000Y-35687000D02*
X99187000Y-35052000D01*
X98044000Y-37084000D02*
X98044000Y-36576000D01*
X98044000Y-36576000D02*
X98298000Y-36322000D01*
X100203000Y-47853600D02*
X99237800Y-48818800D01*
X100203000Y-36168000D02*
X100203000Y-47853600D01*
X99187000Y-35052000D02*
X99187000Y-35152000D01*
X99187000Y-35152000D02*
X100203000Y-36168000D01*
G04 #@! TO.N,/IMU_INT*
X97790000Y-35363685D02*
X97790000Y-34798000D01*
X97790000Y-35835000D02*
X97790000Y-35363685D01*
X97275000Y-36350000D02*
X97790000Y-35835000D01*
X96812500Y-36350000D02*
X97275000Y-36350000D01*
D26*
G04 #@! TO.N,Net-(PWR1-Pad1)*
X33210000Y-49022000D02*
X36195000Y-49022000D01*
D28*
G04 #@! TO.N,/UART2_TX*
X53086000Y-52578000D02*
X53086000Y-53848000D01*
X53594000Y-52070000D02*
X53086000Y-52578000D01*
X56333120Y-52070000D02*
X53594000Y-52070000D01*
X57949999Y-50453121D02*
X56333120Y-52070000D01*
X57150000Y-45720000D02*
X57949999Y-46519999D01*
X57949999Y-46519999D02*
X57949999Y-50453121D01*
G04 #@! TO.N,/UART2_RX*
X50546000Y-52698000D02*
X50546000Y-53848000D01*
X51936000Y-51308000D02*
X50546000Y-52698000D01*
X56388000Y-51308000D02*
X51936000Y-51308000D01*
X57150000Y-50546000D02*
X56388000Y-51308000D01*
X57150000Y-48260000D02*
X57150000Y-50546000D01*
X54610000Y-45720000D02*
X57150000Y-48260000D01*
G04 #@! TD*
D29*
G04 #@! TO.N,GND*
G36*
X31943748Y-30465858D02*
X31929605Y-30480000D01*
X32757745Y-31308139D01*
X33003864Y-31234005D01*
X33024874Y-31175552D01*
X33073466Y-31292862D01*
X33450231Y-31669627D01*
X33503448Y-31937170D01*
X33503449Y-31937171D01*
X33688000Y-32213371D01*
X33757717Y-32259954D01*
X33780044Y-32282281D01*
X33826629Y-32352001D01*
X34102829Y-32536552D01*
X34346393Y-32585000D01*
X34346396Y-32585000D01*
X34428629Y-32601357D01*
X34510862Y-32585000D01*
X35456950Y-32585000D01*
X35395000Y-32734561D01*
X35395000Y-33305439D01*
X35613466Y-33832862D01*
X36017138Y-34236534D01*
X36544561Y-34455000D01*
X37115439Y-34455000D01*
X37642862Y-34236534D01*
X38046534Y-33832862D01*
X38100000Y-33703784D01*
X38153466Y-33832862D01*
X38557138Y-34236534D01*
X39084561Y-34455000D01*
X39655439Y-34455000D01*
X40182862Y-34236534D01*
X40586534Y-33832862D01*
X40640000Y-33703784D01*
X40693466Y-33832862D01*
X41097138Y-34236534D01*
X41624561Y-34455000D01*
X42195439Y-34455000D01*
X42722862Y-34236534D01*
X43126534Y-33832862D01*
X43345000Y-33305439D01*
X43345000Y-32734561D01*
X43283050Y-32585000D01*
X73069767Y-32585000D01*
X73152000Y-32601357D01*
X73234233Y-32585000D01*
X73234237Y-32585000D01*
X73477801Y-32536552D01*
X73614987Y-32444887D01*
X73495000Y-32734561D01*
X73495000Y-33305439D01*
X73713466Y-33832862D01*
X74117138Y-34236534D01*
X74246216Y-34290000D01*
X74117138Y-34343466D01*
X73713466Y-34747138D01*
X73660000Y-34876216D01*
X73606534Y-34747138D01*
X73202862Y-34343466D01*
X72675439Y-34125000D01*
X72104561Y-34125000D01*
X71577138Y-34343466D01*
X71173466Y-34747138D01*
X71120000Y-34876216D01*
X71066534Y-34747138D01*
X70662862Y-34343466D01*
X70135439Y-34125000D01*
X69564561Y-34125000D01*
X69037138Y-34343466D01*
X68633466Y-34747138D01*
X68580000Y-34876216D01*
X68526534Y-34747138D01*
X68122862Y-34343466D01*
X67595439Y-34125000D01*
X67024561Y-34125000D01*
X66497138Y-34343466D01*
X66093466Y-34747138D01*
X65875000Y-35274561D01*
X65875000Y-35845439D01*
X66093466Y-36372862D01*
X66497138Y-36776534D01*
X66626216Y-36830000D01*
X66497138Y-36883466D01*
X66093466Y-37287138D01*
X65875000Y-37814561D01*
X65875000Y-38385439D01*
X66093466Y-38912862D01*
X66497138Y-39316534D01*
X67024561Y-39535000D01*
X67595439Y-39535000D01*
X68122862Y-39316534D01*
X68526534Y-38912862D01*
X68580000Y-38783784D01*
X68633466Y-38912862D01*
X69037138Y-39316534D01*
X69564561Y-39535000D01*
X70135439Y-39535000D01*
X70662862Y-39316534D01*
X71066534Y-38912862D01*
X71120000Y-38783784D01*
X71173466Y-38912862D01*
X71577138Y-39316534D01*
X72104561Y-39535000D01*
X72675439Y-39535000D01*
X73202862Y-39316534D01*
X73606534Y-38912862D01*
X73653525Y-38799417D01*
X73676136Y-38854005D01*
X73922255Y-38928139D01*
X74750395Y-38100000D01*
X73922255Y-37271861D01*
X73676136Y-37345995D01*
X73655126Y-37404448D01*
X73606534Y-37287138D01*
X73202862Y-36883466D01*
X73073784Y-36830000D01*
X73202862Y-36776534D01*
X73606534Y-36372862D01*
X73660000Y-36243784D01*
X73713466Y-36372862D01*
X74117138Y-36776534D01*
X74230583Y-36823525D01*
X74175995Y-36846136D01*
X74101861Y-37092255D01*
X74930000Y-37920395D01*
X75758139Y-37092255D01*
X75684005Y-36846136D01*
X75625552Y-36825126D01*
X75742862Y-36776534D01*
X76146534Y-36372862D01*
X76200000Y-36243784D01*
X76253466Y-36372862D01*
X76657138Y-36776534D01*
X76786216Y-36830000D01*
X76657138Y-36883466D01*
X76253466Y-37287138D01*
X76206475Y-37400583D01*
X76183864Y-37345995D01*
X75937745Y-37271861D01*
X75109605Y-38100000D01*
X75937745Y-38928139D01*
X76183864Y-38854005D01*
X76204874Y-38795552D01*
X76253466Y-38912862D01*
X76657138Y-39316534D01*
X77184561Y-39535000D01*
X77755439Y-39535000D01*
X78282862Y-39316534D01*
X78686534Y-38912862D01*
X78740000Y-38783784D01*
X78793466Y-38912862D01*
X79197138Y-39316534D01*
X79724561Y-39535000D01*
X80295439Y-39535000D01*
X80822862Y-39316534D01*
X81226534Y-38912862D01*
X81280000Y-38783784D01*
X81333466Y-38912862D01*
X81737138Y-39316534D01*
X82264561Y-39535000D01*
X82835439Y-39535000D01*
X83362862Y-39316534D01*
X83766534Y-38912862D01*
X83820000Y-38783784D01*
X83873466Y-38912862D01*
X84277138Y-39316534D01*
X84804561Y-39535000D01*
X85375439Y-39535000D01*
X85902862Y-39316534D01*
X86111651Y-39107745D01*
X86801861Y-39107745D01*
X86875995Y-39353864D01*
X87413223Y-39546965D01*
X87983454Y-39519778D01*
X88384005Y-39353864D01*
X88458139Y-39107745D01*
X87630000Y-38279605D01*
X86801861Y-39107745D01*
X86111651Y-39107745D01*
X86306534Y-38912862D01*
X86353525Y-38799417D01*
X86376136Y-38854005D01*
X86622255Y-38928139D01*
X87450395Y-38100000D01*
X87809605Y-38100000D01*
X88637745Y-38928139D01*
X88883864Y-38854005D01*
X89076965Y-38316777D01*
X89049778Y-37746546D01*
X88883864Y-37345995D01*
X88637745Y-37271861D01*
X87809605Y-38100000D01*
X87450395Y-38100000D01*
X86622255Y-37271861D01*
X86376136Y-37345995D01*
X86355126Y-37404448D01*
X86306534Y-37287138D01*
X85902862Y-36883466D01*
X85773784Y-36830000D01*
X85902862Y-36776534D01*
X86306534Y-36372862D01*
X86360000Y-36243784D01*
X86413466Y-36372862D01*
X86817138Y-36776534D01*
X86930583Y-36823525D01*
X86875995Y-36846136D01*
X86801861Y-37092255D01*
X87630000Y-37920395D01*
X88458139Y-37092255D01*
X88384005Y-36846136D01*
X88325552Y-36825126D01*
X88442862Y-36776534D01*
X88846534Y-36372862D01*
X89065000Y-35845439D01*
X89065000Y-35274561D01*
X88846534Y-34747138D01*
X88442862Y-34343466D01*
X87915439Y-34125000D01*
X87344561Y-34125000D01*
X86817138Y-34343466D01*
X86413466Y-34747138D01*
X86360000Y-34876216D01*
X86306534Y-34747138D01*
X85902862Y-34343466D01*
X85375439Y-34125000D01*
X84804561Y-34125000D01*
X84277138Y-34343466D01*
X83873466Y-34747138D01*
X83820000Y-34876216D01*
X83766534Y-34747138D01*
X83362862Y-34343466D01*
X82835439Y-34125000D01*
X82264561Y-34125000D01*
X81737138Y-34343466D01*
X81333466Y-34747138D01*
X81280000Y-34876216D01*
X81226534Y-34747138D01*
X80822862Y-34343466D01*
X80295439Y-34125000D01*
X79724561Y-34125000D01*
X79197138Y-34343466D01*
X78793466Y-34747138D01*
X78740000Y-34876216D01*
X78686534Y-34747138D01*
X78282862Y-34343466D01*
X77755439Y-34125000D01*
X77184561Y-34125000D01*
X76657138Y-34343466D01*
X76253466Y-34747138D01*
X76200000Y-34876216D01*
X76146534Y-34747138D01*
X75742862Y-34343466D01*
X75613784Y-34290000D01*
X75742862Y-34236534D01*
X76146534Y-33832862D01*
X76365000Y-33305439D01*
X76365000Y-32734561D01*
X76146534Y-32207138D01*
X75742862Y-31803466D01*
X75613784Y-31750000D01*
X75742862Y-31696534D01*
X76146534Y-31292862D01*
X76200000Y-31163784D01*
X76253466Y-31292862D01*
X76657138Y-31696534D01*
X77184561Y-31915000D01*
X77755439Y-31915000D01*
X78282862Y-31696534D01*
X78686534Y-31292862D01*
X78740000Y-31163784D01*
X78793466Y-31292862D01*
X79197138Y-31696534D01*
X79724561Y-31915000D01*
X80295439Y-31915000D01*
X80822862Y-31696534D01*
X81226534Y-31292862D01*
X81280000Y-31163784D01*
X81333466Y-31292862D01*
X81737138Y-31696534D01*
X82264561Y-31915000D01*
X82835439Y-31915000D01*
X83362862Y-31696534D01*
X83766534Y-31292862D01*
X83820000Y-31163784D01*
X83873466Y-31292862D01*
X84277138Y-31696534D01*
X84804561Y-31915000D01*
X85375439Y-31915000D01*
X85902862Y-31696534D01*
X86306534Y-31292862D01*
X86360000Y-31163784D01*
X86413466Y-31292862D01*
X86817138Y-31696534D01*
X87344561Y-31915000D01*
X87915439Y-31915000D01*
X88442862Y-31696534D01*
X88846534Y-31292862D01*
X88884268Y-31201764D01*
X89038569Y-31574280D01*
X89329720Y-31865431D01*
X89710126Y-32023000D01*
X89911553Y-32023000D01*
X90174764Y-32286210D01*
X90022673Y-32438302D01*
X89926000Y-32671691D01*
X89926000Y-33262250D01*
X90084750Y-33421000D01*
X91059000Y-33421000D01*
X91059000Y-33401000D01*
X91313000Y-33401000D01*
X91313000Y-33421000D01*
X91333000Y-33421000D01*
X91333000Y-33675000D01*
X91313000Y-33675000D01*
X91313000Y-33695000D01*
X91059000Y-33695000D01*
X91059000Y-33675000D01*
X90084750Y-33675000D01*
X89926000Y-33833750D01*
X89926000Y-34424309D01*
X90022673Y-34657698D01*
X90164320Y-34799346D01*
X90103191Y-34840191D01*
X89962843Y-35050235D01*
X89913560Y-35298000D01*
X89913560Y-36798000D01*
X89962843Y-37045765D01*
X90103191Y-37255809D01*
X90313235Y-37396157D01*
X90401001Y-37413614D01*
X90401001Y-37707304D01*
X90388235Y-37709843D01*
X90178191Y-37850191D01*
X90037843Y-38060235D01*
X89988560Y-38308000D01*
X89988560Y-38908000D01*
X90037843Y-39155765D01*
X90139564Y-39308000D01*
X90037843Y-39460235D01*
X89988560Y-39708000D01*
X89988560Y-40308000D01*
X90037843Y-40555765D01*
X90178191Y-40765809D01*
X90388235Y-40906157D01*
X90401001Y-40908696D01*
X90401001Y-41179386D01*
X90313235Y-41196843D01*
X90103191Y-41337191D01*
X89962843Y-41547235D01*
X89913560Y-41795000D01*
X89913560Y-43295000D01*
X89962843Y-43542765D01*
X90103191Y-43752809D01*
X90164320Y-43793654D01*
X90022673Y-43935302D01*
X89926000Y-44168691D01*
X89926000Y-44759250D01*
X90084750Y-44918000D01*
X91059000Y-44918000D01*
X91059000Y-44898000D01*
X91313000Y-44898000D01*
X91313000Y-44918000D01*
X92287250Y-44918000D01*
X92446000Y-44759250D01*
X92446000Y-44168691D01*
X92349327Y-43935302D01*
X92207680Y-43793654D01*
X92268809Y-43752809D01*
X92409157Y-43542765D01*
X92458440Y-43295000D01*
X92458440Y-42274886D01*
X92622560Y-42439006D01*
X92622560Y-43297000D01*
X92671843Y-43544765D01*
X92812191Y-43754809D01*
X93022235Y-43895157D01*
X93185001Y-43927533D01*
X93185001Y-44390208D01*
X93012720Y-44461569D01*
X92721569Y-44752720D01*
X92564000Y-45133126D01*
X92564000Y-45544874D01*
X92721569Y-45925280D01*
X93012720Y-46216431D01*
X93393126Y-46374000D01*
X93804874Y-46374000D01*
X94185280Y-46216431D01*
X94476431Y-45925280D01*
X94634000Y-45544874D01*
X94634000Y-45502043D01*
X94638076Y-45495943D01*
X94966415Y-45824283D01*
X95012999Y-45894001D01*
X95289199Y-46078552D01*
X95532763Y-46127000D01*
X95615000Y-46143358D01*
X95697237Y-46127000D01*
X97906467Y-46127000D01*
X97938843Y-46289765D01*
X98079191Y-46499809D01*
X98289235Y-46640157D01*
X98537000Y-46689440D01*
X99468001Y-46689440D01*
X99468001Y-47549152D01*
X99233353Y-47783800D01*
X99031926Y-47783800D01*
X98651520Y-47941369D01*
X98360369Y-48232520D01*
X98202800Y-48612926D01*
X98202800Y-49024674D01*
X98360369Y-49405080D01*
X98651520Y-49696231D01*
X99031926Y-49853800D01*
X99443674Y-49853800D01*
X99824080Y-49696231D01*
X99874001Y-49646310D01*
X99874000Y-55424000D01*
X28396000Y-55424000D01*
X28396000Y-52994887D01*
X28745000Y-52994887D01*
X28745000Y-53685113D01*
X29009138Y-54322799D01*
X29497201Y-54810862D01*
X30134887Y-55075000D01*
X30825113Y-55075000D01*
X31462799Y-54810862D01*
X31950862Y-54322799D01*
X32215000Y-53685113D01*
X32215000Y-52994887D01*
X31950862Y-52357201D01*
X31462799Y-51869138D01*
X30825113Y-51605000D01*
X30134887Y-51605000D01*
X29497201Y-51869138D01*
X29009138Y-52357201D01*
X28745000Y-52994887D01*
X28396000Y-52994887D01*
X28396000Y-50519440D01*
X30210000Y-50519440D01*
X30457765Y-50470157D01*
X30667809Y-50329809D01*
X30808157Y-50119765D01*
X30857440Y-49872000D01*
X30857440Y-48172000D01*
X30808157Y-47924235D01*
X30667809Y-47714191D01*
X30554007Y-47638150D01*
X30980411Y-47211747D01*
X31045953Y-47167953D01*
X31089747Y-47102411D01*
X31089749Y-47102409D01*
X31143475Y-47022002D01*
X31464561Y-47155000D01*
X32035439Y-47155000D01*
X32562862Y-46936534D01*
X32966534Y-46532862D01*
X33020000Y-46403784D01*
X33073466Y-46532862D01*
X33477138Y-46936534D01*
X34004561Y-47155000D01*
X34575439Y-47155000D01*
X35102862Y-46936534D01*
X35506534Y-46532862D01*
X35560000Y-46403784D01*
X35613466Y-46532862D01*
X36017138Y-46936534D01*
X36544561Y-47155000D01*
X37115439Y-47155000D01*
X37143302Y-47143459D01*
X37819394Y-47819551D01*
X37785302Y-47833673D01*
X37606673Y-48012301D01*
X37548721Y-48152209D01*
X37543157Y-48124235D01*
X37402809Y-47914191D01*
X37192765Y-47773843D01*
X36945000Y-47724560D01*
X35445000Y-47724560D01*
X35197235Y-47773843D01*
X34987191Y-47914191D01*
X34847688Y-48122971D01*
X34808157Y-47924235D01*
X34667809Y-47714191D01*
X34457765Y-47573843D01*
X34210000Y-47524560D01*
X32210000Y-47524560D01*
X31962235Y-47573843D01*
X31752191Y-47714191D01*
X31611843Y-47924235D01*
X31562560Y-48172000D01*
X31562560Y-49872000D01*
X31611843Y-50119765D01*
X31752191Y-50329809D01*
X31962235Y-50470157D01*
X32210000Y-50519440D01*
X34210000Y-50519440D01*
X34457765Y-50470157D01*
X34667809Y-50329809D01*
X34808157Y-50119765D01*
X34847688Y-49921029D01*
X34987191Y-50129809D01*
X35197235Y-50270157D01*
X35445000Y-50319440D01*
X36945000Y-50319440D01*
X37192765Y-50270157D01*
X37402809Y-50129809D01*
X37543157Y-49919765D01*
X37548721Y-49891791D01*
X37606673Y-50031699D01*
X37785302Y-50210327D01*
X38018691Y-50307000D01*
X38110842Y-50307000D01*
X36329590Y-52088253D01*
X36264048Y-52132047D01*
X36220254Y-52197589D01*
X36220251Y-52197592D01*
X36118041Y-52350560D01*
X35980000Y-52350560D01*
X35732235Y-52399843D01*
X35522191Y-52540191D01*
X35381843Y-52750235D01*
X35332560Y-52998000D01*
X35332560Y-54698000D01*
X35381843Y-54945765D01*
X35522191Y-55155809D01*
X35732235Y-55296157D01*
X35980000Y-55345440D01*
X37680000Y-55345440D01*
X37927765Y-55296157D01*
X38137809Y-55155809D01*
X38278157Y-54945765D01*
X38287184Y-54900381D01*
X38299375Y-54918625D01*
X38790582Y-55246839D01*
X39223744Y-55333000D01*
X39516256Y-55333000D01*
X39949418Y-55246839D01*
X40440625Y-54918625D01*
X40640000Y-54620239D01*
X40839375Y-54918625D01*
X41330582Y-55246839D01*
X41763744Y-55333000D01*
X42056256Y-55333000D01*
X42489418Y-55246839D01*
X42980625Y-54918625D01*
X43180000Y-54620239D01*
X43379375Y-54918625D01*
X43870582Y-55246839D01*
X44303744Y-55333000D01*
X44596256Y-55333000D01*
X45029418Y-55246839D01*
X45520625Y-54918625D01*
X45848839Y-54427418D01*
X45964092Y-53848000D01*
X45848839Y-53268582D01*
X45520625Y-52777375D01*
X45235000Y-52586526D01*
X45235000Y-46948075D01*
X45262862Y-46936534D01*
X45666534Y-46532862D01*
X45720000Y-46403784D01*
X45773466Y-46532862D01*
X46177138Y-46936534D01*
X46704561Y-47155000D01*
X47275439Y-47155000D01*
X47802862Y-46936534D01*
X48206534Y-46532862D01*
X48260000Y-46403784D01*
X48313466Y-46532862D01*
X48717138Y-46936534D01*
X49244561Y-47155000D01*
X49815439Y-47155000D01*
X50342862Y-46936534D01*
X50746534Y-46532862D01*
X50800000Y-46403784D01*
X50853466Y-46532862D01*
X51257138Y-46936534D01*
X51784561Y-47155000D01*
X52355439Y-47155000D01*
X52882862Y-46936534D01*
X53286534Y-46532862D01*
X53340000Y-46403784D01*
X53393466Y-46532862D01*
X53797138Y-46936534D01*
X54324561Y-47155000D01*
X54895439Y-47155000D01*
X54923302Y-47143459D01*
X56220980Y-48441138D01*
X55982890Y-48342524D01*
X55753000Y-48463845D01*
X55753000Y-49657000D01*
X55773000Y-49657000D01*
X55773000Y-49911000D01*
X55753000Y-49911000D01*
X55753000Y-49931000D01*
X55499000Y-49931000D01*
X55499000Y-49911000D01*
X55479000Y-49911000D01*
X55479000Y-49657000D01*
X55499000Y-49657000D01*
X55499000Y-48463845D01*
X55269110Y-48342524D01*
X54859076Y-48512355D01*
X54430817Y-48902642D01*
X54369843Y-49032478D01*
X54156625Y-48713375D01*
X53665418Y-48385161D01*
X53232256Y-48299000D01*
X52939744Y-48299000D01*
X52506582Y-48385161D01*
X52015375Y-48713375D01*
X52003184Y-48731619D01*
X51994157Y-48686235D01*
X51853809Y-48476191D01*
X51643765Y-48335843D01*
X51396000Y-48286560D01*
X49696000Y-48286560D01*
X49448235Y-48335843D01*
X49238191Y-48476191D01*
X49097843Y-48686235D01*
X49048560Y-48934000D01*
X49048560Y-50634000D01*
X49097843Y-50881765D01*
X49238191Y-51091809D01*
X49448235Y-51232157D01*
X49696000Y-51281440D01*
X50852402Y-51281440D01*
X50045592Y-52088251D01*
X49980047Y-52132047D01*
X49834041Y-52350560D01*
X49696000Y-52350560D01*
X49448235Y-52399843D01*
X49238191Y-52540191D01*
X49097843Y-52750235D01*
X49048560Y-52998000D01*
X49048560Y-54698000D01*
X49097843Y-54945765D01*
X49238191Y-55155809D01*
X49448235Y-55296157D01*
X49696000Y-55345440D01*
X51396000Y-55345440D01*
X51643765Y-55296157D01*
X51853809Y-55155809D01*
X51994157Y-54945765D01*
X52003184Y-54900381D01*
X52015375Y-54918625D01*
X52506582Y-55246839D01*
X52939744Y-55333000D01*
X53232256Y-55333000D01*
X53665418Y-55246839D01*
X54156625Y-54918625D01*
X54369843Y-54599522D01*
X54430817Y-54729358D01*
X54859076Y-55119645D01*
X55269110Y-55289476D01*
X55499000Y-55168155D01*
X55499000Y-53975000D01*
X55753000Y-53975000D01*
X55753000Y-55168155D01*
X55982890Y-55289476D01*
X56392924Y-55119645D01*
X56821183Y-54729358D01*
X57067486Y-54204892D01*
X56946819Y-53975000D01*
X55753000Y-53975000D01*
X55499000Y-53975000D01*
X55479000Y-53975000D01*
X55479000Y-53721000D01*
X55499000Y-53721000D01*
X55499000Y-53701000D01*
X55753000Y-53701000D01*
X55753000Y-53721000D01*
X56946819Y-53721000D01*
X57067486Y-53491108D01*
X56821183Y-52966642D01*
X56644772Y-52805873D01*
X56899073Y-52635953D01*
X56942869Y-52570408D01*
X58450410Y-51062868D01*
X58515952Y-51019074D01*
X58551415Y-50966000D01*
X59716560Y-50966000D01*
X59716560Y-52666000D01*
X59765843Y-52913765D01*
X59906191Y-53123809D01*
X60116235Y-53264157D01*
X60364000Y-53313440D01*
X62064000Y-53313440D01*
X62311765Y-53264157D01*
X62521809Y-53123809D01*
X62662157Y-52913765D01*
X62671184Y-52868381D01*
X62683375Y-52886625D01*
X63174582Y-53214839D01*
X63607744Y-53301000D01*
X63900256Y-53301000D01*
X64333418Y-53214839D01*
X64824625Y-52886625D01*
X65037843Y-52567522D01*
X65098817Y-52697358D01*
X65527076Y-53087645D01*
X65937110Y-53257476D01*
X66167000Y-53136155D01*
X66167000Y-51943000D01*
X66421000Y-51943000D01*
X66421000Y-53136155D01*
X66650890Y-53257476D01*
X67060924Y-53087645D01*
X67489183Y-52697358D01*
X67539601Y-52590000D01*
X70584560Y-52590000D01*
X70584560Y-54090000D01*
X70633843Y-54337765D01*
X70774191Y-54547809D01*
X70984235Y-54688157D01*
X71232000Y-54737440D01*
X72532000Y-54737440D01*
X72779765Y-54688157D01*
X72989809Y-54547809D01*
X73130157Y-54337765D01*
X73172478Y-54125000D01*
X73178560Y-54125000D01*
X73178560Y-54276000D01*
X73227843Y-54523765D01*
X73368191Y-54733809D01*
X73578235Y-54874157D01*
X73826000Y-54923440D01*
X75526000Y-54923440D01*
X75773765Y-54874157D01*
X75946000Y-54759072D01*
X76118235Y-54874157D01*
X76366000Y-54923440D01*
X78066000Y-54923440D01*
X78313765Y-54874157D01*
X78523809Y-54733809D01*
X78664157Y-54523765D01*
X78713440Y-54276000D01*
X78713440Y-54125000D01*
X78719522Y-54125000D01*
X78761843Y-54337765D01*
X78902191Y-54547809D01*
X79112235Y-54688157D01*
X79360000Y-54737440D01*
X80660000Y-54737440D01*
X80907765Y-54688157D01*
X81117809Y-54547809D01*
X81258157Y-54337765D01*
X81307440Y-54090000D01*
X81307440Y-52994887D01*
X96055000Y-52994887D01*
X96055000Y-53685113D01*
X96319138Y-54322799D01*
X96807201Y-54810862D01*
X97444887Y-55075000D01*
X98135113Y-55075000D01*
X98772799Y-54810862D01*
X99260862Y-54322799D01*
X99525000Y-53685113D01*
X99525000Y-52994887D01*
X99260862Y-52357201D01*
X98772799Y-51869138D01*
X98135113Y-51605000D01*
X97444887Y-51605000D01*
X96807201Y-51869138D01*
X96319138Y-52357201D01*
X96055000Y-52994887D01*
X81307440Y-52994887D01*
X81307440Y-52590000D01*
X81258157Y-52342235D01*
X81117809Y-52132191D01*
X80907765Y-51991843D01*
X80879791Y-51986279D01*
X81019699Y-51928327D01*
X81198327Y-51749698D01*
X81295000Y-51516309D01*
X81295000Y-50925750D01*
X81136250Y-50767000D01*
X80137000Y-50767000D01*
X80137000Y-50787000D01*
X79883000Y-50787000D01*
X79883000Y-50767000D01*
X78883750Y-50767000D01*
X78725000Y-50925750D01*
X78725000Y-51516309D01*
X78821673Y-51749698D01*
X79000301Y-51928327D01*
X79140209Y-51986279D01*
X79112235Y-51991843D01*
X78902191Y-52132191D01*
X78761843Y-52342235D01*
X78719522Y-52555000D01*
X78713440Y-52555000D01*
X78713440Y-52276000D01*
X78664157Y-52028235D01*
X78523809Y-51818191D01*
X78313765Y-51677843D01*
X78066000Y-51628560D01*
X76366000Y-51628560D01*
X76118235Y-51677843D01*
X75946000Y-51792928D01*
X75773765Y-51677843D01*
X75526000Y-51628560D01*
X73826000Y-51628560D01*
X73578235Y-51677843D01*
X73368191Y-51818191D01*
X73227843Y-52028235D01*
X73178560Y-52276000D01*
X73178560Y-52555000D01*
X73172478Y-52555000D01*
X73130157Y-52342235D01*
X72989809Y-52132191D01*
X72779765Y-51991843D01*
X72751791Y-51986279D01*
X72891699Y-51928327D01*
X73070327Y-51749698D01*
X73167000Y-51516309D01*
X73167000Y-50925750D01*
X73008250Y-50767000D01*
X72009000Y-50767000D01*
X72009000Y-50787000D01*
X71755000Y-50787000D01*
X71755000Y-50767000D01*
X70755750Y-50767000D01*
X70597000Y-50925750D01*
X70597000Y-51516309D01*
X70693673Y-51749698D01*
X70872301Y-51928327D01*
X71012209Y-51986279D01*
X70984235Y-51991843D01*
X70774191Y-52132191D01*
X70633843Y-52342235D01*
X70584560Y-52590000D01*
X67539601Y-52590000D01*
X67735486Y-52172892D01*
X67614819Y-51943000D01*
X66421000Y-51943000D01*
X66167000Y-51943000D01*
X66147000Y-51943000D01*
X66147000Y-51689000D01*
X66167000Y-51689000D01*
X66167000Y-50495845D01*
X66421000Y-50495845D01*
X66421000Y-51689000D01*
X67614819Y-51689000D01*
X67735486Y-51459108D01*
X67489183Y-50934642D01*
X67060924Y-50544355D01*
X66650890Y-50374524D01*
X66421000Y-50495845D01*
X66167000Y-50495845D01*
X65937110Y-50374524D01*
X65527076Y-50544355D01*
X65098817Y-50934642D01*
X65037843Y-51064478D01*
X64824625Y-50745375D01*
X64333418Y-50417161D01*
X63900256Y-50331000D01*
X63607744Y-50331000D01*
X63174582Y-50417161D01*
X62683375Y-50745375D01*
X62671184Y-50763619D01*
X62662157Y-50718235D01*
X62521809Y-50508191D01*
X62311765Y-50367843D01*
X62064000Y-50318560D01*
X60364000Y-50318560D01*
X60116235Y-50367843D01*
X59906191Y-50508191D01*
X59765843Y-50718235D01*
X59716560Y-50966000D01*
X58551415Y-50966000D01*
X58559746Y-50953532D01*
X58559748Y-50953530D01*
X58636689Y-50838379D01*
X58689453Y-50759413D01*
X58734999Y-50530437D01*
X58734999Y-50530433D01*
X58750377Y-50453122D01*
X58734999Y-50375811D01*
X58734999Y-49763691D01*
X70597000Y-49763691D01*
X70597000Y-50354250D01*
X70755750Y-50513000D01*
X71755000Y-50513000D01*
X71755000Y-49413750D01*
X72009000Y-49413750D01*
X72009000Y-50513000D01*
X73008250Y-50513000D01*
X73167000Y-50354250D01*
X73167000Y-49763691D01*
X73070327Y-49530302D01*
X72891699Y-49351673D01*
X72658310Y-49255000D01*
X72167750Y-49255000D01*
X72009000Y-49413750D01*
X71755000Y-49413750D01*
X71596250Y-49255000D01*
X71105690Y-49255000D01*
X70872301Y-49351673D01*
X70693673Y-49530302D01*
X70597000Y-49763691D01*
X58734999Y-49763691D01*
X58734999Y-46794395D01*
X58877138Y-46936534D01*
X59404561Y-47155000D01*
X59975439Y-47155000D01*
X60502862Y-46936534D01*
X60906534Y-46532862D01*
X60960000Y-46403784D01*
X61013466Y-46532862D01*
X61417138Y-46936534D01*
X61944561Y-47155000D01*
X62515439Y-47155000D01*
X63042862Y-46936534D01*
X63446534Y-46532862D01*
X63500000Y-46403784D01*
X63553466Y-46532862D01*
X63957138Y-46936534D01*
X64484561Y-47155000D01*
X65055439Y-47155000D01*
X65582862Y-46936534D01*
X65986534Y-46532862D01*
X66040000Y-46403784D01*
X66093466Y-46532862D01*
X66497138Y-46936534D01*
X67024561Y-47155000D01*
X67595439Y-47155000D01*
X67623302Y-47143459D01*
X68986253Y-48506411D01*
X69030047Y-48571953D01*
X69095589Y-48615747D01*
X69095591Y-48615749D01*
X69110321Y-48625591D01*
X69289708Y-48745454D01*
X69518684Y-48791000D01*
X69518688Y-48791000D01*
X69595999Y-48806378D01*
X69673310Y-48791000D01*
X73178560Y-48791000D01*
X73178560Y-50276000D01*
X73227843Y-50523765D01*
X73368191Y-50733809D01*
X73578235Y-50874157D01*
X73826000Y-50923440D01*
X75526000Y-50923440D01*
X75773765Y-50874157D01*
X75946000Y-50759072D01*
X76118235Y-50874157D01*
X76366000Y-50923440D01*
X78066000Y-50923440D01*
X78313765Y-50874157D01*
X78523809Y-50733809D01*
X78664157Y-50523765D01*
X78713440Y-50276000D01*
X78713440Y-49763691D01*
X78725000Y-49763691D01*
X78725000Y-50354250D01*
X78883750Y-50513000D01*
X79883000Y-50513000D01*
X79883000Y-49413750D01*
X80137000Y-49413750D01*
X80137000Y-50513000D01*
X81136250Y-50513000D01*
X81295000Y-50354250D01*
X81295000Y-49763691D01*
X81198327Y-49530302D01*
X81019699Y-49351673D01*
X80786310Y-49255000D01*
X80295750Y-49255000D01*
X80137000Y-49413750D01*
X79883000Y-49413750D01*
X79724250Y-49255000D01*
X79233690Y-49255000D01*
X79000301Y-49351673D01*
X78821673Y-49530302D01*
X78725000Y-49763691D01*
X78713440Y-49763691D01*
X78713440Y-48276000D01*
X78664157Y-48028235D01*
X78523809Y-47818191D01*
X78313765Y-47677843D01*
X78066000Y-47628560D01*
X77927960Y-47628560D01*
X77885963Y-47565708D01*
X77825749Y-47475591D01*
X77825747Y-47475589D01*
X77781953Y-47410047D01*
X77716411Y-47366253D01*
X77505158Y-47155000D01*
X77755439Y-47155000D01*
X78282862Y-46936534D01*
X78686534Y-46532862D01*
X78740000Y-46403784D01*
X78793466Y-46532862D01*
X79197138Y-46936534D01*
X79724561Y-47155000D01*
X80295439Y-47155000D01*
X80822862Y-46936534D01*
X81226534Y-46532862D01*
X81280000Y-46403784D01*
X81333466Y-46532862D01*
X81737138Y-46936534D01*
X82264561Y-47155000D01*
X82835439Y-47155000D01*
X83362862Y-46936534D01*
X83766534Y-46532862D01*
X83820000Y-46403784D01*
X83873466Y-46532862D01*
X84277138Y-46936534D01*
X84804561Y-47155000D01*
X85375439Y-47155000D01*
X85902862Y-46936534D01*
X86306534Y-46532862D01*
X86360000Y-46403784D01*
X86413466Y-46532862D01*
X86817138Y-46936534D01*
X87344561Y-47155000D01*
X87915439Y-47155000D01*
X88442862Y-46936534D01*
X88846534Y-46532862D01*
X89065000Y-46005439D01*
X89065000Y-45434561D01*
X89022001Y-45330750D01*
X89926000Y-45330750D01*
X89926000Y-45921309D01*
X90022673Y-46154698D01*
X90201301Y-46333327D01*
X90434690Y-46430000D01*
X90900250Y-46430000D01*
X91059000Y-46271250D01*
X91059000Y-45172000D01*
X91313000Y-45172000D01*
X91313000Y-46271250D01*
X91471750Y-46430000D01*
X91937310Y-46430000D01*
X92170699Y-46333327D01*
X92349327Y-46154698D01*
X92446000Y-45921309D01*
X92446000Y-45330750D01*
X92287250Y-45172000D01*
X91313000Y-45172000D01*
X91059000Y-45172000D01*
X90084750Y-45172000D01*
X89926000Y-45330750D01*
X89022001Y-45330750D01*
X88846534Y-44907138D01*
X88442862Y-44503466D01*
X87915439Y-44285000D01*
X87344561Y-44285000D01*
X86817138Y-44503466D01*
X86413466Y-44907138D01*
X86360000Y-45036216D01*
X86306534Y-44907138D01*
X85902862Y-44503466D01*
X85375439Y-44285000D01*
X84804561Y-44285000D01*
X84277138Y-44503466D01*
X83873466Y-44907138D01*
X83820000Y-45036216D01*
X83766534Y-44907138D01*
X83362862Y-44503466D01*
X82835439Y-44285000D01*
X82264561Y-44285000D01*
X81737138Y-44503466D01*
X81333466Y-44907138D01*
X81280000Y-45036216D01*
X81226534Y-44907138D01*
X80822862Y-44503466D01*
X80295439Y-44285000D01*
X79724561Y-44285000D01*
X79197138Y-44503466D01*
X78793466Y-44907138D01*
X78740000Y-45036216D01*
X78686534Y-44907138D01*
X78282862Y-44503466D01*
X77755439Y-44285000D01*
X77184561Y-44285000D01*
X76657138Y-44503466D01*
X76253466Y-44907138D01*
X76200000Y-45036216D01*
X76146534Y-44907138D01*
X75742862Y-44503466D01*
X75613784Y-44450000D01*
X75742862Y-44396534D01*
X76146534Y-43992862D01*
X76365000Y-43465439D01*
X76365000Y-42894561D01*
X76146534Y-42367138D01*
X75742862Y-41963466D01*
X75613784Y-41910000D01*
X75742862Y-41856534D01*
X76146534Y-41452862D01*
X76365000Y-40925439D01*
X76365000Y-40354561D01*
X76146534Y-39827138D01*
X75742862Y-39423466D01*
X75629417Y-39376475D01*
X75684005Y-39353864D01*
X75758139Y-39107745D01*
X74930000Y-38279605D01*
X74101861Y-39107745D01*
X74175995Y-39353864D01*
X74234448Y-39374874D01*
X74117138Y-39423466D01*
X73713466Y-39827138D01*
X73495000Y-40354561D01*
X73495000Y-40925439D01*
X73713466Y-41452862D01*
X74117138Y-41856534D01*
X74246216Y-41910000D01*
X74117138Y-41963466D01*
X73713466Y-42367138D01*
X73495000Y-42894561D01*
X73495000Y-43465439D01*
X73713466Y-43992862D01*
X74117138Y-44396534D01*
X74246216Y-44450000D01*
X74117138Y-44503466D01*
X73713466Y-44907138D01*
X73660000Y-45036216D01*
X73606534Y-44907138D01*
X73202862Y-44503466D01*
X72675439Y-44285000D01*
X72104561Y-44285000D01*
X71577138Y-44503466D01*
X71173466Y-44907138D01*
X71120000Y-45036216D01*
X71066534Y-44907138D01*
X70662862Y-44503466D01*
X70135439Y-44285000D01*
X69564561Y-44285000D01*
X69037138Y-44503466D01*
X68633466Y-44907138D01*
X68580000Y-45036216D01*
X68526534Y-44907138D01*
X68122862Y-44503466D01*
X67595439Y-44285000D01*
X67024561Y-44285000D01*
X66497138Y-44503466D01*
X66093466Y-44907138D01*
X66040000Y-45036216D01*
X65986534Y-44907138D01*
X65582862Y-44503466D01*
X65055439Y-44285000D01*
X64484561Y-44285000D01*
X63957138Y-44503466D01*
X63553466Y-44907138D01*
X63500000Y-45036216D01*
X63446534Y-44907138D01*
X63042862Y-44503466D01*
X62515439Y-44285000D01*
X61944561Y-44285000D01*
X61417138Y-44503466D01*
X61013466Y-44907138D01*
X60960000Y-45036216D01*
X60906534Y-44907138D01*
X60502862Y-44503466D01*
X59975439Y-44285000D01*
X59404561Y-44285000D01*
X58877138Y-44503466D01*
X58473466Y-44907138D01*
X58420000Y-45036216D01*
X58366534Y-44907138D01*
X57962862Y-44503466D01*
X57435439Y-44285000D01*
X56864561Y-44285000D01*
X56337138Y-44503466D01*
X55933466Y-44907138D01*
X55880000Y-45036216D01*
X55826534Y-44907138D01*
X55422862Y-44503466D01*
X54895439Y-44285000D01*
X54324561Y-44285000D01*
X53797138Y-44503466D01*
X53393466Y-44907138D01*
X53340000Y-45036216D01*
X53286534Y-44907138D01*
X52882862Y-44503466D01*
X52355439Y-44285000D01*
X51784561Y-44285000D01*
X51257138Y-44503466D01*
X50853466Y-44907138D01*
X50800000Y-45036216D01*
X50746534Y-44907138D01*
X50342862Y-44503466D01*
X49815439Y-44285000D01*
X49244561Y-44285000D01*
X48717138Y-44503466D01*
X48313466Y-44907138D01*
X48260000Y-45036216D01*
X48206534Y-44907138D01*
X47802862Y-44503466D01*
X47275439Y-44285000D01*
X46704561Y-44285000D01*
X46177138Y-44503466D01*
X45773466Y-44907138D01*
X45720000Y-45036216D01*
X45666534Y-44907138D01*
X45262862Y-44503466D01*
X44735439Y-44285000D01*
X44164561Y-44285000D01*
X43637138Y-44503466D01*
X43233466Y-44907138D01*
X43180000Y-45036216D01*
X43126534Y-44907138D01*
X42722862Y-44503466D01*
X42195439Y-44285000D01*
X41624561Y-44285000D01*
X41097138Y-44503466D01*
X40693466Y-44907138D01*
X40640000Y-45036216D01*
X40586534Y-44907138D01*
X40182862Y-44503466D01*
X39655439Y-44285000D01*
X39084561Y-44285000D01*
X38557138Y-44503466D01*
X38153466Y-44907138D01*
X38100000Y-45036216D01*
X38046534Y-44907138D01*
X37642862Y-44503466D01*
X37115439Y-44285000D01*
X36544561Y-44285000D01*
X36017138Y-44503466D01*
X35613466Y-44907138D01*
X35560000Y-45036216D01*
X35506534Y-44907138D01*
X35102862Y-44503466D01*
X34575439Y-44285000D01*
X34004561Y-44285000D01*
X33477138Y-44503466D01*
X33073466Y-44907138D01*
X33020000Y-45036216D01*
X32966534Y-44907138D01*
X32562862Y-44503466D01*
X32035439Y-44285000D01*
X31464561Y-44285000D01*
X31265000Y-44367661D01*
X31265000Y-42434561D01*
X34125000Y-42434561D01*
X34125000Y-43005439D01*
X34343466Y-43532862D01*
X34747138Y-43936534D01*
X35274561Y-44155000D01*
X35845439Y-44155000D01*
X36372862Y-43936534D01*
X36776534Y-43532862D01*
X36830000Y-43403784D01*
X36883466Y-43532862D01*
X37287138Y-43936534D01*
X37814561Y-44155000D01*
X38385439Y-44155000D01*
X38912862Y-43936534D01*
X39316534Y-43532862D01*
X39370000Y-43403784D01*
X39423466Y-43532862D01*
X39827138Y-43936534D01*
X40354561Y-44155000D01*
X40925439Y-44155000D01*
X41452862Y-43936534D01*
X41661651Y-43727745D01*
X42351861Y-43727745D01*
X42425995Y-43973864D01*
X42963223Y-44166965D01*
X43533454Y-44139778D01*
X43934005Y-43973864D01*
X44008139Y-43727745D01*
X44891861Y-43727745D01*
X44965995Y-43973864D01*
X45503223Y-44166965D01*
X46073454Y-44139778D01*
X46474005Y-43973864D01*
X46548139Y-43727745D01*
X45720000Y-42899605D01*
X44891861Y-43727745D01*
X44008139Y-43727745D01*
X43180000Y-42899605D01*
X42351861Y-43727745D01*
X41661651Y-43727745D01*
X41856534Y-43532862D01*
X41903525Y-43419417D01*
X41926136Y-43474005D01*
X42172255Y-43548139D01*
X43000395Y-42720000D01*
X43359605Y-42720000D01*
X44187745Y-43548139D01*
X44433864Y-43474005D01*
X44448858Y-43432291D01*
X44466136Y-43474005D01*
X44712255Y-43548139D01*
X45540395Y-42720000D01*
X45899605Y-42720000D01*
X46727745Y-43548139D01*
X46973864Y-43474005D01*
X47166965Y-42936777D01*
X47139778Y-42366546D01*
X46973864Y-41965995D01*
X46727745Y-41891861D01*
X45899605Y-42720000D01*
X45540395Y-42720000D01*
X44712255Y-41891861D01*
X44466136Y-41965995D01*
X44451142Y-42007709D01*
X44433864Y-41965995D01*
X44187745Y-41891861D01*
X43359605Y-42720000D01*
X43000395Y-42720000D01*
X42172255Y-41891861D01*
X41926136Y-41965995D01*
X41905126Y-42024448D01*
X41856534Y-41907138D01*
X41661651Y-41712255D01*
X42351861Y-41712255D01*
X43180000Y-42540395D01*
X44008139Y-41712255D01*
X44891861Y-41712255D01*
X45720000Y-42540395D01*
X46548139Y-41712255D01*
X46474005Y-41466136D01*
X45936777Y-41273035D01*
X45366546Y-41300222D01*
X44965995Y-41466136D01*
X44891861Y-41712255D01*
X44008139Y-41712255D01*
X43934005Y-41466136D01*
X43396777Y-41273035D01*
X42826546Y-41300222D01*
X42425995Y-41466136D01*
X42351861Y-41712255D01*
X41661651Y-41712255D01*
X41452862Y-41503466D01*
X40925439Y-41285000D01*
X40354561Y-41285000D01*
X39827138Y-41503466D01*
X39423466Y-41907138D01*
X39370000Y-42036216D01*
X39316534Y-41907138D01*
X38912862Y-41503466D01*
X38385439Y-41285000D01*
X37814561Y-41285000D01*
X37287138Y-41503466D01*
X36883466Y-41907138D01*
X36830000Y-42036216D01*
X36776534Y-41907138D01*
X36372862Y-41503466D01*
X35845439Y-41285000D01*
X35274561Y-41285000D01*
X34747138Y-41503466D01*
X34343466Y-41907138D01*
X34125000Y-42434561D01*
X31265000Y-42434561D01*
X31265000Y-35274561D01*
X43015000Y-35274561D01*
X43015000Y-35845439D01*
X43233466Y-36372862D01*
X43637138Y-36776534D01*
X43766216Y-36830000D01*
X43637138Y-36883466D01*
X43233466Y-37287138D01*
X43015000Y-37814561D01*
X43015000Y-38385439D01*
X43233466Y-38912862D01*
X43637138Y-39316534D01*
X44164561Y-39535000D01*
X44735439Y-39535000D01*
X45262862Y-39316534D01*
X45666534Y-38912862D01*
X45720000Y-38783784D01*
X45773466Y-38912862D01*
X46177138Y-39316534D01*
X46704561Y-39535000D01*
X47275439Y-39535000D01*
X47802862Y-39316534D01*
X48206534Y-38912862D01*
X48260000Y-38783784D01*
X48313466Y-38912862D01*
X48717138Y-39316534D01*
X49244561Y-39535000D01*
X49815439Y-39535000D01*
X50342862Y-39316534D01*
X50746534Y-38912862D01*
X50800000Y-38783784D01*
X50853466Y-38912862D01*
X51257138Y-39316534D01*
X51784561Y-39535000D01*
X52355439Y-39535000D01*
X52882862Y-39316534D01*
X53286534Y-38912862D01*
X53505000Y-38385439D01*
X53505000Y-37814561D01*
X53286534Y-37287138D01*
X52882862Y-36883466D01*
X52753784Y-36830000D01*
X52882862Y-36776534D01*
X53286534Y-36372862D01*
X53505000Y-35845439D01*
X53505000Y-35274561D01*
X53286534Y-34747138D01*
X52882862Y-34343466D01*
X52355439Y-34125000D01*
X51784561Y-34125000D01*
X51257138Y-34343466D01*
X50853466Y-34747138D01*
X50800000Y-34876216D01*
X50746534Y-34747138D01*
X50342862Y-34343466D01*
X49815439Y-34125000D01*
X49244561Y-34125000D01*
X48717138Y-34343466D01*
X48313466Y-34747138D01*
X48260000Y-34876216D01*
X48206534Y-34747138D01*
X47802862Y-34343466D01*
X47275439Y-34125000D01*
X46704561Y-34125000D01*
X46177138Y-34343466D01*
X45773466Y-34747138D01*
X45720000Y-34876216D01*
X45666534Y-34747138D01*
X45262862Y-34343466D01*
X44735439Y-34125000D01*
X44164561Y-34125000D01*
X43637138Y-34343466D01*
X43233466Y-34747138D01*
X43015000Y-35274561D01*
X31265000Y-35274561D01*
X31265000Y-34372339D01*
X31464561Y-34455000D01*
X32035439Y-34455000D01*
X32562862Y-34236534D01*
X32966534Y-33832862D01*
X33185000Y-33305439D01*
X33185000Y-32734561D01*
X32966534Y-32207138D01*
X32562862Y-31803466D01*
X32449417Y-31756475D01*
X32504005Y-31733864D01*
X32578139Y-31487745D01*
X31750000Y-30659605D01*
X30921861Y-31487745D01*
X30995995Y-31733864D01*
X31054448Y-31754874D01*
X30937138Y-31803466D01*
X30533466Y-32207138D01*
X30315000Y-32734561D01*
X30315000Y-33014843D01*
X29995000Y-32694843D01*
X29995000Y-31708075D01*
X30022862Y-31696534D01*
X30426534Y-31292862D01*
X30473525Y-31179417D01*
X30496136Y-31234005D01*
X30742255Y-31308139D01*
X31570395Y-30480000D01*
X31556252Y-30465858D01*
X31735858Y-30286252D01*
X31750000Y-30300395D01*
X31764142Y-30286252D01*
X31943748Y-30465858D01*
X31943748Y-30465858D01*
G37*
X31943748Y-30465858D02*
X31929605Y-30480000D01*
X32757745Y-31308139D01*
X33003864Y-31234005D01*
X33024874Y-31175552D01*
X33073466Y-31292862D01*
X33450231Y-31669627D01*
X33503448Y-31937170D01*
X33503449Y-31937171D01*
X33688000Y-32213371D01*
X33757717Y-32259954D01*
X33780044Y-32282281D01*
X33826629Y-32352001D01*
X34102829Y-32536552D01*
X34346393Y-32585000D01*
X34346396Y-32585000D01*
X34428629Y-32601357D01*
X34510862Y-32585000D01*
X35456950Y-32585000D01*
X35395000Y-32734561D01*
X35395000Y-33305439D01*
X35613466Y-33832862D01*
X36017138Y-34236534D01*
X36544561Y-34455000D01*
X37115439Y-34455000D01*
X37642862Y-34236534D01*
X38046534Y-33832862D01*
X38100000Y-33703784D01*
X38153466Y-33832862D01*
X38557138Y-34236534D01*
X39084561Y-34455000D01*
X39655439Y-34455000D01*
X40182862Y-34236534D01*
X40586534Y-33832862D01*
X40640000Y-33703784D01*
X40693466Y-33832862D01*
X41097138Y-34236534D01*
X41624561Y-34455000D01*
X42195439Y-34455000D01*
X42722862Y-34236534D01*
X43126534Y-33832862D01*
X43345000Y-33305439D01*
X43345000Y-32734561D01*
X43283050Y-32585000D01*
X73069767Y-32585000D01*
X73152000Y-32601357D01*
X73234233Y-32585000D01*
X73234237Y-32585000D01*
X73477801Y-32536552D01*
X73614987Y-32444887D01*
X73495000Y-32734561D01*
X73495000Y-33305439D01*
X73713466Y-33832862D01*
X74117138Y-34236534D01*
X74246216Y-34290000D01*
X74117138Y-34343466D01*
X73713466Y-34747138D01*
X73660000Y-34876216D01*
X73606534Y-34747138D01*
X73202862Y-34343466D01*
X72675439Y-34125000D01*
X72104561Y-34125000D01*
X71577138Y-34343466D01*
X71173466Y-34747138D01*
X71120000Y-34876216D01*
X71066534Y-34747138D01*
X70662862Y-34343466D01*
X70135439Y-34125000D01*
X69564561Y-34125000D01*
X69037138Y-34343466D01*
X68633466Y-34747138D01*
X68580000Y-34876216D01*
X68526534Y-34747138D01*
X68122862Y-34343466D01*
X67595439Y-34125000D01*
X67024561Y-34125000D01*
X66497138Y-34343466D01*
X66093466Y-34747138D01*
X65875000Y-35274561D01*
X65875000Y-35845439D01*
X66093466Y-36372862D01*
X66497138Y-36776534D01*
X66626216Y-36830000D01*
X66497138Y-36883466D01*
X66093466Y-37287138D01*
X65875000Y-37814561D01*
X65875000Y-38385439D01*
X66093466Y-38912862D01*
X66497138Y-39316534D01*
X67024561Y-39535000D01*
X67595439Y-39535000D01*
X68122862Y-39316534D01*
X68526534Y-38912862D01*
X68580000Y-38783784D01*
X68633466Y-38912862D01*
X69037138Y-39316534D01*
X69564561Y-39535000D01*
X70135439Y-39535000D01*
X70662862Y-39316534D01*
X71066534Y-38912862D01*
X71120000Y-38783784D01*
X71173466Y-38912862D01*
X71577138Y-39316534D01*
X72104561Y-39535000D01*
X72675439Y-39535000D01*
X73202862Y-39316534D01*
X73606534Y-38912862D01*
X73653525Y-38799417D01*
X73676136Y-38854005D01*
X73922255Y-38928139D01*
X74750395Y-38100000D01*
X73922255Y-37271861D01*
X73676136Y-37345995D01*
X73655126Y-37404448D01*
X73606534Y-37287138D01*
X73202862Y-36883466D01*
X73073784Y-36830000D01*
X73202862Y-36776534D01*
X73606534Y-36372862D01*
X73660000Y-36243784D01*
X73713466Y-36372862D01*
X74117138Y-36776534D01*
X74230583Y-36823525D01*
X74175995Y-36846136D01*
X74101861Y-37092255D01*
X74930000Y-37920395D01*
X75758139Y-37092255D01*
X75684005Y-36846136D01*
X75625552Y-36825126D01*
X75742862Y-36776534D01*
X76146534Y-36372862D01*
X76200000Y-36243784D01*
X76253466Y-36372862D01*
X76657138Y-36776534D01*
X76786216Y-36830000D01*
X76657138Y-36883466D01*
X76253466Y-37287138D01*
X76206475Y-37400583D01*
X76183864Y-37345995D01*
X75937745Y-37271861D01*
X75109605Y-38100000D01*
X75937745Y-38928139D01*
X76183864Y-38854005D01*
X76204874Y-38795552D01*
X76253466Y-38912862D01*
X76657138Y-39316534D01*
X77184561Y-39535000D01*
X77755439Y-39535000D01*
X78282862Y-39316534D01*
X78686534Y-38912862D01*
X78740000Y-38783784D01*
X78793466Y-38912862D01*
X79197138Y-39316534D01*
X79724561Y-39535000D01*
X80295439Y-39535000D01*
X80822862Y-39316534D01*
X81226534Y-38912862D01*
X81280000Y-38783784D01*
X81333466Y-38912862D01*
X81737138Y-39316534D01*
X82264561Y-39535000D01*
X82835439Y-39535000D01*
X83362862Y-39316534D01*
X83766534Y-38912862D01*
X83820000Y-38783784D01*
X83873466Y-38912862D01*
X84277138Y-39316534D01*
X84804561Y-39535000D01*
X85375439Y-39535000D01*
X85902862Y-39316534D01*
X86111651Y-39107745D01*
X86801861Y-39107745D01*
X86875995Y-39353864D01*
X87413223Y-39546965D01*
X87983454Y-39519778D01*
X88384005Y-39353864D01*
X88458139Y-39107745D01*
X87630000Y-38279605D01*
X86801861Y-39107745D01*
X86111651Y-39107745D01*
X86306534Y-38912862D01*
X86353525Y-38799417D01*
X86376136Y-38854005D01*
X86622255Y-38928139D01*
X87450395Y-38100000D01*
X87809605Y-38100000D01*
X88637745Y-38928139D01*
X88883864Y-38854005D01*
X89076965Y-38316777D01*
X89049778Y-37746546D01*
X88883864Y-37345995D01*
X88637745Y-37271861D01*
X87809605Y-38100000D01*
X87450395Y-38100000D01*
X86622255Y-37271861D01*
X86376136Y-37345995D01*
X86355126Y-37404448D01*
X86306534Y-37287138D01*
X85902862Y-36883466D01*
X85773784Y-36830000D01*
X85902862Y-36776534D01*
X86306534Y-36372862D01*
X86360000Y-36243784D01*
X86413466Y-36372862D01*
X86817138Y-36776534D01*
X86930583Y-36823525D01*
X86875995Y-36846136D01*
X86801861Y-37092255D01*
X87630000Y-37920395D01*
X88458139Y-37092255D01*
X88384005Y-36846136D01*
X88325552Y-36825126D01*
X88442862Y-36776534D01*
X88846534Y-36372862D01*
X89065000Y-35845439D01*
X89065000Y-35274561D01*
X88846534Y-34747138D01*
X88442862Y-34343466D01*
X87915439Y-34125000D01*
X87344561Y-34125000D01*
X86817138Y-34343466D01*
X86413466Y-34747138D01*
X86360000Y-34876216D01*
X86306534Y-34747138D01*
X85902862Y-34343466D01*
X85375439Y-34125000D01*
X84804561Y-34125000D01*
X84277138Y-34343466D01*
X83873466Y-34747138D01*
X83820000Y-34876216D01*
X83766534Y-34747138D01*
X83362862Y-34343466D01*
X82835439Y-34125000D01*
X82264561Y-34125000D01*
X81737138Y-34343466D01*
X81333466Y-34747138D01*
X81280000Y-34876216D01*
X81226534Y-34747138D01*
X80822862Y-34343466D01*
X80295439Y-34125000D01*
X79724561Y-34125000D01*
X79197138Y-34343466D01*
X78793466Y-34747138D01*
X78740000Y-34876216D01*
X78686534Y-34747138D01*
X78282862Y-34343466D01*
X77755439Y-34125000D01*
X77184561Y-34125000D01*
X76657138Y-34343466D01*
X76253466Y-34747138D01*
X76200000Y-34876216D01*
X76146534Y-34747138D01*
X75742862Y-34343466D01*
X75613784Y-34290000D01*
X75742862Y-34236534D01*
X76146534Y-33832862D01*
X76365000Y-33305439D01*
X76365000Y-32734561D01*
X76146534Y-32207138D01*
X75742862Y-31803466D01*
X75613784Y-31750000D01*
X75742862Y-31696534D01*
X76146534Y-31292862D01*
X76200000Y-31163784D01*
X76253466Y-31292862D01*
X76657138Y-31696534D01*
X77184561Y-31915000D01*
X77755439Y-31915000D01*
X78282862Y-31696534D01*
X78686534Y-31292862D01*
X78740000Y-31163784D01*
X78793466Y-31292862D01*
X79197138Y-31696534D01*
X79724561Y-31915000D01*
X80295439Y-31915000D01*
X80822862Y-31696534D01*
X81226534Y-31292862D01*
X81280000Y-31163784D01*
X81333466Y-31292862D01*
X81737138Y-31696534D01*
X82264561Y-31915000D01*
X82835439Y-31915000D01*
X83362862Y-31696534D01*
X83766534Y-31292862D01*
X83820000Y-31163784D01*
X83873466Y-31292862D01*
X84277138Y-31696534D01*
X84804561Y-31915000D01*
X85375439Y-31915000D01*
X85902862Y-31696534D01*
X86306534Y-31292862D01*
X86360000Y-31163784D01*
X86413466Y-31292862D01*
X86817138Y-31696534D01*
X87344561Y-31915000D01*
X87915439Y-31915000D01*
X88442862Y-31696534D01*
X88846534Y-31292862D01*
X88884268Y-31201764D01*
X89038569Y-31574280D01*
X89329720Y-31865431D01*
X89710126Y-32023000D01*
X89911553Y-32023000D01*
X90174764Y-32286210D01*
X90022673Y-32438302D01*
X89926000Y-32671691D01*
X89926000Y-33262250D01*
X90084750Y-33421000D01*
X91059000Y-33421000D01*
X91059000Y-33401000D01*
X91313000Y-33401000D01*
X91313000Y-33421000D01*
X91333000Y-33421000D01*
X91333000Y-33675000D01*
X91313000Y-33675000D01*
X91313000Y-33695000D01*
X91059000Y-33695000D01*
X91059000Y-33675000D01*
X90084750Y-33675000D01*
X89926000Y-33833750D01*
X89926000Y-34424309D01*
X90022673Y-34657698D01*
X90164320Y-34799346D01*
X90103191Y-34840191D01*
X89962843Y-35050235D01*
X89913560Y-35298000D01*
X89913560Y-36798000D01*
X89962843Y-37045765D01*
X90103191Y-37255809D01*
X90313235Y-37396157D01*
X90401001Y-37413614D01*
X90401001Y-37707304D01*
X90388235Y-37709843D01*
X90178191Y-37850191D01*
X90037843Y-38060235D01*
X89988560Y-38308000D01*
X89988560Y-38908000D01*
X90037843Y-39155765D01*
X90139564Y-39308000D01*
X90037843Y-39460235D01*
X89988560Y-39708000D01*
X89988560Y-40308000D01*
X90037843Y-40555765D01*
X90178191Y-40765809D01*
X90388235Y-40906157D01*
X90401001Y-40908696D01*
X90401001Y-41179386D01*
X90313235Y-41196843D01*
X90103191Y-41337191D01*
X89962843Y-41547235D01*
X89913560Y-41795000D01*
X89913560Y-43295000D01*
X89962843Y-43542765D01*
X90103191Y-43752809D01*
X90164320Y-43793654D01*
X90022673Y-43935302D01*
X89926000Y-44168691D01*
X89926000Y-44759250D01*
X90084750Y-44918000D01*
X91059000Y-44918000D01*
X91059000Y-44898000D01*
X91313000Y-44898000D01*
X91313000Y-44918000D01*
X92287250Y-44918000D01*
X92446000Y-44759250D01*
X92446000Y-44168691D01*
X92349327Y-43935302D01*
X92207680Y-43793654D01*
X92268809Y-43752809D01*
X92409157Y-43542765D01*
X92458440Y-43295000D01*
X92458440Y-42274886D01*
X92622560Y-42439006D01*
X92622560Y-43297000D01*
X92671843Y-43544765D01*
X92812191Y-43754809D01*
X93022235Y-43895157D01*
X93185001Y-43927533D01*
X93185001Y-44390208D01*
X93012720Y-44461569D01*
X92721569Y-44752720D01*
X92564000Y-45133126D01*
X92564000Y-45544874D01*
X92721569Y-45925280D01*
X93012720Y-46216431D01*
X93393126Y-46374000D01*
X93804874Y-46374000D01*
X94185280Y-46216431D01*
X94476431Y-45925280D01*
X94634000Y-45544874D01*
X94634000Y-45502043D01*
X94638076Y-45495943D01*
X94966415Y-45824283D01*
X95012999Y-45894001D01*
X95289199Y-46078552D01*
X95532763Y-46127000D01*
X95615000Y-46143358D01*
X95697237Y-46127000D01*
X97906467Y-46127000D01*
X97938843Y-46289765D01*
X98079191Y-46499809D01*
X98289235Y-46640157D01*
X98537000Y-46689440D01*
X99468001Y-46689440D01*
X99468001Y-47549152D01*
X99233353Y-47783800D01*
X99031926Y-47783800D01*
X98651520Y-47941369D01*
X98360369Y-48232520D01*
X98202800Y-48612926D01*
X98202800Y-49024674D01*
X98360369Y-49405080D01*
X98651520Y-49696231D01*
X99031926Y-49853800D01*
X99443674Y-49853800D01*
X99824080Y-49696231D01*
X99874001Y-49646310D01*
X99874000Y-55424000D01*
X28396000Y-55424000D01*
X28396000Y-52994887D01*
X28745000Y-52994887D01*
X28745000Y-53685113D01*
X29009138Y-54322799D01*
X29497201Y-54810862D01*
X30134887Y-55075000D01*
X30825113Y-55075000D01*
X31462799Y-54810862D01*
X31950862Y-54322799D01*
X32215000Y-53685113D01*
X32215000Y-52994887D01*
X31950862Y-52357201D01*
X31462799Y-51869138D01*
X30825113Y-51605000D01*
X30134887Y-51605000D01*
X29497201Y-51869138D01*
X29009138Y-52357201D01*
X28745000Y-52994887D01*
X28396000Y-52994887D01*
X28396000Y-50519440D01*
X30210000Y-50519440D01*
X30457765Y-50470157D01*
X30667809Y-50329809D01*
X30808157Y-50119765D01*
X30857440Y-49872000D01*
X30857440Y-48172000D01*
X30808157Y-47924235D01*
X30667809Y-47714191D01*
X30554007Y-47638150D01*
X30980411Y-47211747D01*
X31045953Y-47167953D01*
X31089747Y-47102411D01*
X31089749Y-47102409D01*
X31143475Y-47022002D01*
X31464561Y-47155000D01*
X32035439Y-47155000D01*
X32562862Y-46936534D01*
X32966534Y-46532862D01*
X33020000Y-46403784D01*
X33073466Y-46532862D01*
X33477138Y-46936534D01*
X34004561Y-47155000D01*
X34575439Y-47155000D01*
X35102862Y-46936534D01*
X35506534Y-46532862D01*
X35560000Y-46403784D01*
X35613466Y-46532862D01*
X36017138Y-46936534D01*
X36544561Y-47155000D01*
X37115439Y-47155000D01*
X37143302Y-47143459D01*
X37819394Y-47819551D01*
X37785302Y-47833673D01*
X37606673Y-48012301D01*
X37548721Y-48152209D01*
X37543157Y-48124235D01*
X37402809Y-47914191D01*
X37192765Y-47773843D01*
X36945000Y-47724560D01*
X35445000Y-47724560D01*
X35197235Y-47773843D01*
X34987191Y-47914191D01*
X34847688Y-48122971D01*
X34808157Y-47924235D01*
X34667809Y-47714191D01*
X34457765Y-47573843D01*
X34210000Y-47524560D01*
X32210000Y-47524560D01*
X31962235Y-47573843D01*
X31752191Y-47714191D01*
X31611843Y-47924235D01*
X31562560Y-48172000D01*
X31562560Y-49872000D01*
X31611843Y-50119765D01*
X31752191Y-50329809D01*
X31962235Y-50470157D01*
X32210000Y-50519440D01*
X34210000Y-50519440D01*
X34457765Y-50470157D01*
X34667809Y-50329809D01*
X34808157Y-50119765D01*
X34847688Y-49921029D01*
X34987191Y-50129809D01*
X35197235Y-50270157D01*
X35445000Y-50319440D01*
X36945000Y-50319440D01*
X37192765Y-50270157D01*
X37402809Y-50129809D01*
X37543157Y-49919765D01*
X37548721Y-49891791D01*
X37606673Y-50031699D01*
X37785302Y-50210327D01*
X38018691Y-50307000D01*
X38110842Y-50307000D01*
X36329590Y-52088253D01*
X36264048Y-52132047D01*
X36220254Y-52197589D01*
X36220251Y-52197592D01*
X36118041Y-52350560D01*
X35980000Y-52350560D01*
X35732235Y-52399843D01*
X35522191Y-52540191D01*
X35381843Y-52750235D01*
X35332560Y-52998000D01*
X35332560Y-54698000D01*
X35381843Y-54945765D01*
X35522191Y-55155809D01*
X35732235Y-55296157D01*
X35980000Y-55345440D01*
X37680000Y-55345440D01*
X37927765Y-55296157D01*
X38137809Y-55155809D01*
X38278157Y-54945765D01*
X38287184Y-54900381D01*
X38299375Y-54918625D01*
X38790582Y-55246839D01*
X39223744Y-55333000D01*
X39516256Y-55333000D01*
X39949418Y-55246839D01*
X40440625Y-54918625D01*
X40640000Y-54620239D01*
X40839375Y-54918625D01*
X41330582Y-55246839D01*
X41763744Y-55333000D01*
X42056256Y-55333000D01*
X42489418Y-55246839D01*
X42980625Y-54918625D01*
X43180000Y-54620239D01*
X43379375Y-54918625D01*
X43870582Y-55246839D01*
X44303744Y-55333000D01*
X44596256Y-55333000D01*
X45029418Y-55246839D01*
X45520625Y-54918625D01*
X45848839Y-54427418D01*
X45964092Y-53848000D01*
X45848839Y-53268582D01*
X45520625Y-52777375D01*
X45235000Y-52586526D01*
X45235000Y-46948075D01*
X45262862Y-46936534D01*
X45666534Y-46532862D01*
X45720000Y-46403784D01*
X45773466Y-46532862D01*
X46177138Y-46936534D01*
X46704561Y-47155000D01*
X47275439Y-47155000D01*
X47802862Y-46936534D01*
X48206534Y-46532862D01*
X48260000Y-46403784D01*
X48313466Y-46532862D01*
X48717138Y-46936534D01*
X49244561Y-47155000D01*
X49815439Y-47155000D01*
X50342862Y-46936534D01*
X50746534Y-46532862D01*
X50800000Y-46403784D01*
X50853466Y-46532862D01*
X51257138Y-46936534D01*
X51784561Y-47155000D01*
X52355439Y-47155000D01*
X52882862Y-46936534D01*
X53286534Y-46532862D01*
X53340000Y-46403784D01*
X53393466Y-46532862D01*
X53797138Y-46936534D01*
X54324561Y-47155000D01*
X54895439Y-47155000D01*
X54923302Y-47143459D01*
X56220980Y-48441138D01*
X55982890Y-48342524D01*
X55753000Y-48463845D01*
X55753000Y-49657000D01*
X55773000Y-49657000D01*
X55773000Y-49911000D01*
X55753000Y-49911000D01*
X55753000Y-49931000D01*
X55499000Y-49931000D01*
X55499000Y-49911000D01*
X55479000Y-49911000D01*
X55479000Y-49657000D01*
X55499000Y-49657000D01*
X55499000Y-48463845D01*
X55269110Y-48342524D01*
X54859076Y-48512355D01*
X54430817Y-48902642D01*
X54369843Y-49032478D01*
X54156625Y-48713375D01*
X53665418Y-48385161D01*
X53232256Y-48299000D01*
X52939744Y-48299000D01*
X52506582Y-48385161D01*
X52015375Y-48713375D01*
X52003184Y-48731619D01*
X51994157Y-48686235D01*
X51853809Y-48476191D01*
X51643765Y-48335843D01*
X51396000Y-48286560D01*
X49696000Y-48286560D01*
X49448235Y-48335843D01*
X49238191Y-48476191D01*
X49097843Y-48686235D01*
X49048560Y-48934000D01*
X49048560Y-50634000D01*
X49097843Y-50881765D01*
X49238191Y-51091809D01*
X49448235Y-51232157D01*
X49696000Y-51281440D01*
X50852402Y-51281440D01*
X50045592Y-52088251D01*
X49980047Y-52132047D01*
X49834041Y-52350560D01*
X49696000Y-52350560D01*
X49448235Y-52399843D01*
X49238191Y-52540191D01*
X49097843Y-52750235D01*
X49048560Y-52998000D01*
X49048560Y-54698000D01*
X49097843Y-54945765D01*
X49238191Y-55155809D01*
X49448235Y-55296157D01*
X49696000Y-55345440D01*
X51396000Y-55345440D01*
X51643765Y-55296157D01*
X51853809Y-55155809D01*
X51994157Y-54945765D01*
X52003184Y-54900381D01*
X52015375Y-54918625D01*
X52506582Y-55246839D01*
X52939744Y-55333000D01*
X53232256Y-55333000D01*
X53665418Y-55246839D01*
X54156625Y-54918625D01*
X54369843Y-54599522D01*
X54430817Y-54729358D01*
X54859076Y-55119645D01*
X55269110Y-55289476D01*
X55499000Y-55168155D01*
X55499000Y-53975000D01*
X55753000Y-53975000D01*
X55753000Y-55168155D01*
X55982890Y-55289476D01*
X56392924Y-55119645D01*
X56821183Y-54729358D01*
X57067486Y-54204892D01*
X56946819Y-53975000D01*
X55753000Y-53975000D01*
X55499000Y-53975000D01*
X55479000Y-53975000D01*
X55479000Y-53721000D01*
X55499000Y-53721000D01*
X55499000Y-53701000D01*
X55753000Y-53701000D01*
X55753000Y-53721000D01*
X56946819Y-53721000D01*
X57067486Y-53491108D01*
X56821183Y-52966642D01*
X56644772Y-52805873D01*
X56899073Y-52635953D01*
X56942869Y-52570408D01*
X58450410Y-51062868D01*
X58515952Y-51019074D01*
X58551415Y-50966000D01*
X59716560Y-50966000D01*
X59716560Y-52666000D01*
X59765843Y-52913765D01*
X59906191Y-53123809D01*
X60116235Y-53264157D01*
X60364000Y-53313440D01*
X62064000Y-53313440D01*
X62311765Y-53264157D01*
X62521809Y-53123809D01*
X62662157Y-52913765D01*
X62671184Y-52868381D01*
X62683375Y-52886625D01*
X63174582Y-53214839D01*
X63607744Y-53301000D01*
X63900256Y-53301000D01*
X64333418Y-53214839D01*
X64824625Y-52886625D01*
X65037843Y-52567522D01*
X65098817Y-52697358D01*
X65527076Y-53087645D01*
X65937110Y-53257476D01*
X66167000Y-53136155D01*
X66167000Y-51943000D01*
X66421000Y-51943000D01*
X66421000Y-53136155D01*
X66650890Y-53257476D01*
X67060924Y-53087645D01*
X67489183Y-52697358D01*
X67539601Y-52590000D01*
X70584560Y-52590000D01*
X70584560Y-54090000D01*
X70633843Y-54337765D01*
X70774191Y-54547809D01*
X70984235Y-54688157D01*
X71232000Y-54737440D01*
X72532000Y-54737440D01*
X72779765Y-54688157D01*
X72989809Y-54547809D01*
X73130157Y-54337765D01*
X73172478Y-54125000D01*
X73178560Y-54125000D01*
X73178560Y-54276000D01*
X73227843Y-54523765D01*
X73368191Y-54733809D01*
X73578235Y-54874157D01*
X73826000Y-54923440D01*
X75526000Y-54923440D01*
X75773765Y-54874157D01*
X75946000Y-54759072D01*
X76118235Y-54874157D01*
X76366000Y-54923440D01*
X78066000Y-54923440D01*
X78313765Y-54874157D01*
X78523809Y-54733809D01*
X78664157Y-54523765D01*
X78713440Y-54276000D01*
X78713440Y-54125000D01*
X78719522Y-54125000D01*
X78761843Y-54337765D01*
X78902191Y-54547809D01*
X79112235Y-54688157D01*
X79360000Y-54737440D01*
X80660000Y-54737440D01*
X80907765Y-54688157D01*
X81117809Y-54547809D01*
X81258157Y-54337765D01*
X81307440Y-54090000D01*
X81307440Y-52994887D01*
X96055000Y-52994887D01*
X96055000Y-53685113D01*
X96319138Y-54322799D01*
X96807201Y-54810862D01*
X97444887Y-55075000D01*
X98135113Y-55075000D01*
X98772799Y-54810862D01*
X99260862Y-54322799D01*
X99525000Y-53685113D01*
X99525000Y-52994887D01*
X99260862Y-52357201D01*
X98772799Y-51869138D01*
X98135113Y-51605000D01*
X97444887Y-51605000D01*
X96807201Y-51869138D01*
X96319138Y-52357201D01*
X96055000Y-52994887D01*
X81307440Y-52994887D01*
X81307440Y-52590000D01*
X81258157Y-52342235D01*
X81117809Y-52132191D01*
X80907765Y-51991843D01*
X80879791Y-51986279D01*
X81019699Y-51928327D01*
X81198327Y-51749698D01*
X81295000Y-51516309D01*
X81295000Y-50925750D01*
X81136250Y-50767000D01*
X80137000Y-50767000D01*
X80137000Y-50787000D01*
X79883000Y-50787000D01*
X79883000Y-50767000D01*
X78883750Y-50767000D01*
X78725000Y-50925750D01*
X78725000Y-51516309D01*
X78821673Y-51749698D01*
X79000301Y-51928327D01*
X79140209Y-51986279D01*
X79112235Y-51991843D01*
X78902191Y-52132191D01*
X78761843Y-52342235D01*
X78719522Y-52555000D01*
X78713440Y-52555000D01*
X78713440Y-52276000D01*
X78664157Y-52028235D01*
X78523809Y-51818191D01*
X78313765Y-51677843D01*
X78066000Y-51628560D01*
X76366000Y-51628560D01*
X76118235Y-51677843D01*
X75946000Y-51792928D01*
X75773765Y-51677843D01*
X75526000Y-51628560D01*
X73826000Y-51628560D01*
X73578235Y-51677843D01*
X73368191Y-51818191D01*
X73227843Y-52028235D01*
X73178560Y-52276000D01*
X73178560Y-52555000D01*
X73172478Y-52555000D01*
X73130157Y-52342235D01*
X72989809Y-52132191D01*
X72779765Y-51991843D01*
X72751791Y-51986279D01*
X72891699Y-51928327D01*
X73070327Y-51749698D01*
X73167000Y-51516309D01*
X73167000Y-50925750D01*
X73008250Y-50767000D01*
X72009000Y-50767000D01*
X72009000Y-50787000D01*
X71755000Y-50787000D01*
X71755000Y-50767000D01*
X70755750Y-50767000D01*
X70597000Y-50925750D01*
X70597000Y-51516309D01*
X70693673Y-51749698D01*
X70872301Y-51928327D01*
X71012209Y-51986279D01*
X70984235Y-51991843D01*
X70774191Y-52132191D01*
X70633843Y-52342235D01*
X70584560Y-52590000D01*
X67539601Y-52590000D01*
X67735486Y-52172892D01*
X67614819Y-51943000D01*
X66421000Y-51943000D01*
X66167000Y-51943000D01*
X66147000Y-51943000D01*
X66147000Y-51689000D01*
X66167000Y-51689000D01*
X66167000Y-50495845D01*
X66421000Y-50495845D01*
X66421000Y-51689000D01*
X67614819Y-51689000D01*
X67735486Y-51459108D01*
X67489183Y-50934642D01*
X67060924Y-50544355D01*
X66650890Y-50374524D01*
X66421000Y-50495845D01*
X66167000Y-50495845D01*
X65937110Y-50374524D01*
X65527076Y-50544355D01*
X65098817Y-50934642D01*
X65037843Y-51064478D01*
X64824625Y-50745375D01*
X64333418Y-50417161D01*
X63900256Y-50331000D01*
X63607744Y-50331000D01*
X63174582Y-50417161D01*
X62683375Y-50745375D01*
X62671184Y-50763619D01*
X62662157Y-50718235D01*
X62521809Y-50508191D01*
X62311765Y-50367843D01*
X62064000Y-50318560D01*
X60364000Y-50318560D01*
X60116235Y-50367843D01*
X59906191Y-50508191D01*
X59765843Y-50718235D01*
X59716560Y-50966000D01*
X58551415Y-50966000D01*
X58559746Y-50953532D01*
X58559748Y-50953530D01*
X58636689Y-50838379D01*
X58689453Y-50759413D01*
X58734999Y-50530437D01*
X58734999Y-50530433D01*
X58750377Y-50453122D01*
X58734999Y-50375811D01*
X58734999Y-49763691D01*
X70597000Y-49763691D01*
X70597000Y-50354250D01*
X70755750Y-50513000D01*
X71755000Y-50513000D01*
X71755000Y-49413750D01*
X72009000Y-49413750D01*
X72009000Y-50513000D01*
X73008250Y-50513000D01*
X73167000Y-50354250D01*
X73167000Y-49763691D01*
X73070327Y-49530302D01*
X72891699Y-49351673D01*
X72658310Y-49255000D01*
X72167750Y-49255000D01*
X72009000Y-49413750D01*
X71755000Y-49413750D01*
X71596250Y-49255000D01*
X71105690Y-49255000D01*
X70872301Y-49351673D01*
X70693673Y-49530302D01*
X70597000Y-49763691D01*
X58734999Y-49763691D01*
X58734999Y-46794395D01*
X58877138Y-46936534D01*
X59404561Y-47155000D01*
X59975439Y-47155000D01*
X60502862Y-46936534D01*
X60906534Y-46532862D01*
X60960000Y-46403784D01*
X61013466Y-46532862D01*
X61417138Y-46936534D01*
X61944561Y-47155000D01*
X62515439Y-47155000D01*
X63042862Y-46936534D01*
X63446534Y-46532862D01*
X63500000Y-46403784D01*
X63553466Y-46532862D01*
X63957138Y-46936534D01*
X64484561Y-47155000D01*
X65055439Y-47155000D01*
X65582862Y-46936534D01*
X65986534Y-46532862D01*
X66040000Y-46403784D01*
X66093466Y-46532862D01*
X66497138Y-46936534D01*
X67024561Y-47155000D01*
X67595439Y-47155000D01*
X67623302Y-47143459D01*
X68986253Y-48506411D01*
X69030047Y-48571953D01*
X69095589Y-48615747D01*
X69095591Y-48615749D01*
X69110321Y-48625591D01*
X69289708Y-48745454D01*
X69518684Y-48791000D01*
X69518688Y-48791000D01*
X69595999Y-48806378D01*
X69673310Y-48791000D01*
X73178560Y-48791000D01*
X73178560Y-50276000D01*
X73227843Y-50523765D01*
X73368191Y-50733809D01*
X73578235Y-50874157D01*
X73826000Y-50923440D01*
X75526000Y-50923440D01*
X75773765Y-50874157D01*
X75946000Y-50759072D01*
X76118235Y-50874157D01*
X76366000Y-50923440D01*
X78066000Y-50923440D01*
X78313765Y-50874157D01*
X78523809Y-50733809D01*
X78664157Y-50523765D01*
X78713440Y-50276000D01*
X78713440Y-49763691D01*
X78725000Y-49763691D01*
X78725000Y-50354250D01*
X78883750Y-50513000D01*
X79883000Y-50513000D01*
X79883000Y-49413750D01*
X80137000Y-49413750D01*
X80137000Y-50513000D01*
X81136250Y-50513000D01*
X81295000Y-50354250D01*
X81295000Y-49763691D01*
X81198327Y-49530302D01*
X81019699Y-49351673D01*
X80786310Y-49255000D01*
X80295750Y-49255000D01*
X80137000Y-49413750D01*
X79883000Y-49413750D01*
X79724250Y-49255000D01*
X79233690Y-49255000D01*
X79000301Y-49351673D01*
X78821673Y-49530302D01*
X78725000Y-49763691D01*
X78713440Y-49763691D01*
X78713440Y-48276000D01*
X78664157Y-48028235D01*
X78523809Y-47818191D01*
X78313765Y-47677843D01*
X78066000Y-47628560D01*
X77927960Y-47628560D01*
X77885963Y-47565708D01*
X77825749Y-47475591D01*
X77825747Y-47475589D01*
X77781953Y-47410047D01*
X77716411Y-47366253D01*
X77505158Y-47155000D01*
X77755439Y-47155000D01*
X78282862Y-46936534D01*
X78686534Y-46532862D01*
X78740000Y-46403784D01*
X78793466Y-46532862D01*
X79197138Y-46936534D01*
X79724561Y-47155000D01*
X80295439Y-47155000D01*
X80822862Y-46936534D01*
X81226534Y-46532862D01*
X81280000Y-46403784D01*
X81333466Y-46532862D01*
X81737138Y-46936534D01*
X82264561Y-47155000D01*
X82835439Y-47155000D01*
X83362862Y-46936534D01*
X83766534Y-46532862D01*
X83820000Y-46403784D01*
X83873466Y-46532862D01*
X84277138Y-46936534D01*
X84804561Y-47155000D01*
X85375439Y-47155000D01*
X85902862Y-46936534D01*
X86306534Y-46532862D01*
X86360000Y-46403784D01*
X86413466Y-46532862D01*
X86817138Y-46936534D01*
X87344561Y-47155000D01*
X87915439Y-47155000D01*
X88442862Y-46936534D01*
X88846534Y-46532862D01*
X89065000Y-46005439D01*
X89065000Y-45434561D01*
X89022001Y-45330750D01*
X89926000Y-45330750D01*
X89926000Y-45921309D01*
X90022673Y-46154698D01*
X90201301Y-46333327D01*
X90434690Y-46430000D01*
X90900250Y-46430000D01*
X91059000Y-46271250D01*
X91059000Y-45172000D01*
X91313000Y-45172000D01*
X91313000Y-46271250D01*
X91471750Y-46430000D01*
X91937310Y-46430000D01*
X92170699Y-46333327D01*
X92349327Y-46154698D01*
X92446000Y-45921309D01*
X92446000Y-45330750D01*
X92287250Y-45172000D01*
X91313000Y-45172000D01*
X91059000Y-45172000D01*
X90084750Y-45172000D01*
X89926000Y-45330750D01*
X89022001Y-45330750D01*
X88846534Y-44907138D01*
X88442862Y-44503466D01*
X87915439Y-44285000D01*
X87344561Y-44285000D01*
X86817138Y-44503466D01*
X86413466Y-44907138D01*
X86360000Y-45036216D01*
X86306534Y-44907138D01*
X85902862Y-44503466D01*
X85375439Y-44285000D01*
X84804561Y-44285000D01*
X84277138Y-44503466D01*
X83873466Y-44907138D01*
X83820000Y-45036216D01*
X83766534Y-44907138D01*
X83362862Y-44503466D01*
X82835439Y-44285000D01*
X82264561Y-44285000D01*
X81737138Y-44503466D01*
X81333466Y-44907138D01*
X81280000Y-45036216D01*
X81226534Y-44907138D01*
X80822862Y-44503466D01*
X80295439Y-44285000D01*
X79724561Y-44285000D01*
X79197138Y-44503466D01*
X78793466Y-44907138D01*
X78740000Y-45036216D01*
X78686534Y-44907138D01*
X78282862Y-44503466D01*
X77755439Y-44285000D01*
X77184561Y-44285000D01*
X76657138Y-44503466D01*
X76253466Y-44907138D01*
X76200000Y-45036216D01*
X76146534Y-44907138D01*
X75742862Y-44503466D01*
X75613784Y-44450000D01*
X75742862Y-44396534D01*
X76146534Y-43992862D01*
X76365000Y-43465439D01*
X76365000Y-42894561D01*
X76146534Y-42367138D01*
X75742862Y-41963466D01*
X75613784Y-41910000D01*
X75742862Y-41856534D01*
X76146534Y-41452862D01*
X76365000Y-40925439D01*
X76365000Y-40354561D01*
X76146534Y-39827138D01*
X75742862Y-39423466D01*
X75629417Y-39376475D01*
X75684005Y-39353864D01*
X75758139Y-39107745D01*
X74930000Y-38279605D01*
X74101861Y-39107745D01*
X74175995Y-39353864D01*
X74234448Y-39374874D01*
X74117138Y-39423466D01*
X73713466Y-39827138D01*
X73495000Y-40354561D01*
X73495000Y-40925439D01*
X73713466Y-41452862D01*
X74117138Y-41856534D01*
X74246216Y-41910000D01*
X74117138Y-41963466D01*
X73713466Y-42367138D01*
X73495000Y-42894561D01*
X73495000Y-43465439D01*
X73713466Y-43992862D01*
X74117138Y-44396534D01*
X74246216Y-44450000D01*
X74117138Y-44503466D01*
X73713466Y-44907138D01*
X73660000Y-45036216D01*
X73606534Y-44907138D01*
X73202862Y-44503466D01*
X72675439Y-44285000D01*
X72104561Y-44285000D01*
X71577138Y-44503466D01*
X71173466Y-44907138D01*
X71120000Y-45036216D01*
X71066534Y-44907138D01*
X70662862Y-44503466D01*
X70135439Y-44285000D01*
X69564561Y-44285000D01*
X69037138Y-44503466D01*
X68633466Y-44907138D01*
X68580000Y-45036216D01*
X68526534Y-44907138D01*
X68122862Y-44503466D01*
X67595439Y-44285000D01*
X67024561Y-44285000D01*
X66497138Y-44503466D01*
X66093466Y-44907138D01*
X66040000Y-45036216D01*
X65986534Y-44907138D01*
X65582862Y-44503466D01*
X65055439Y-44285000D01*
X64484561Y-44285000D01*
X63957138Y-44503466D01*
X63553466Y-44907138D01*
X63500000Y-45036216D01*
X63446534Y-44907138D01*
X63042862Y-44503466D01*
X62515439Y-44285000D01*
X61944561Y-44285000D01*
X61417138Y-44503466D01*
X61013466Y-44907138D01*
X60960000Y-45036216D01*
X60906534Y-44907138D01*
X60502862Y-44503466D01*
X59975439Y-44285000D01*
X59404561Y-44285000D01*
X58877138Y-44503466D01*
X58473466Y-44907138D01*
X58420000Y-45036216D01*
X58366534Y-44907138D01*
X57962862Y-44503466D01*
X57435439Y-44285000D01*
X56864561Y-44285000D01*
X56337138Y-44503466D01*
X55933466Y-44907138D01*
X55880000Y-45036216D01*
X55826534Y-44907138D01*
X55422862Y-44503466D01*
X54895439Y-44285000D01*
X54324561Y-44285000D01*
X53797138Y-44503466D01*
X53393466Y-44907138D01*
X53340000Y-45036216D01*
X53286534Y-44907138D01*
X52882862Y-44503466D01*
X52355439Y-44285000D01*
X51784561Y-44285000D01*
X51257138Y-44503466D01*
X50853466Y-44907138D01*
X50800000Y-45036216D01*
X50746534Y-44907138D01*
X50342862Y-44503466D01*
X49815439Y-44285000D01*
X49244561Y-44285000D01*
X48717138Y-44503466D01*
X48313466Y-44907138D01*
X48260000Y-45036216D01*
X48206534Y-44907138D01*
X47802862Y-44503466D01*
X47275439Y-44285000D01*
X46704561Y-44285000D01*
X46177138Y-44503466D01*
X45773466Y-44907138D01*
X45720000Y-45036216D01*
X45666534Y-44907138D01*
X45262862Y-44503466D01*
X44735439Y-44285000D01*
X44164561Y-44285000D01*
X43637138Y-44503466D01*
X43233466Y-44907138D01*
X43180000Y-45036216D01*
X43126534Y-44907138D01*
X42722862Y-44503466D01*
X42195439Y-44285000D01*
X41624561Y-44285000D01*
X41097138Y-44503466D01*
X40693466Y-44907138D01*
X40640000Y-45036216D01*
X40586534Y-44907138D01*
X40182862Y-44503466D01*
X39655439Y-44285000D01*
X39084561Y-44285000D01*
X38557138Y-44503466D01*
X38153466Y-44907138D01*
X38100000Y-45036216D01*
X38046534Y-44907138D01*
X37642862Y-44503466D01*
X37115439Y-44285000D01*
X36544561Y-44285000D01*
X36017138Y-44503466D01*
X35613466Y-44907138D01*
X35560000Y-45036216D01*
X35506534Y-44907138D01*
X35102862Y-44503466D01*
X34575439Y-44285000D01*
X34004561Y-44285000D01*
X33477138Y-44503466D01*
X33073466Y-44907138D01*
X33020000Y-45036216D01*
X32966534Y-44907138D01*
X32562862Y-44503466D01*
X32035439Y-44285000D01*
X31464561Y-44285000D01*
X31265000Y-44367661D01*
X31265000Y-42434561D01*
X34125000Y-42434561D01*
X34125000Y-43005439D01*
X34343466Y-43532862D01*
X34747138Y-43936534D01*
X35274561Y-44155000D01*
X35845439Y-44155000D01*
X36372862Y-43936534D01*
X36776534Y-43532862D01*
X36830000Y-43403784D01*
X36883466Y-43532862D01*
X37287138Y-43936534D01*
X37814561Y-44155000D01*
X38385439Y-44155000D01*
X38912862Y-43936534D01*
X39316534Y-43532862D01*
X39370000Y-43403784D01*
X39423466Y-43532862D01*
X39827138Y-43936534D01*
X40354561Y-44155000D01*
X40925439Y-44155000D01*
X41452862Y-43936534D01*
X41661651Y-43727745D01*
X42351861Y-43727745D01*
X42425995Y-43973864D01*
X42963223Y-44166965D01*
X43533454Y-44139778D01*
X43934005Y-43973864D01*
X44008139Y-43727745D01*
X44891861Y-43727745D01*
X44965995Y-43973864D01*
X45503223Y-44166965D01*
X46073454Y-44139778D01*
X46474005Y-43973864D01*
X46548139Y-43727745D01*
X45720000Y-42899605D01*
X44891861Y-43727745D01*
X44008139Y-43727745D01*
X43180000Y-42899605D01*
X42351861Y-43727745D01*
X41661651Y-43727745D01*
X41856534Y-43532862D01*
X41903525Y-43419417D01*
X41926136Y-43474005D01*
X42172255Y-43548139D01*
X43000395Y-42720000D01*
X43359605Y-42720000D01*
X44187745Y-43548139D01*
X44433864Y-43474005D01*
X44448858Y-43432291D01*
X44466136Y-43474005D01*
X44712255Y-43548139D01*
X45540395Y-42720000D01*
X45899605Y-42720000D01*
X46727745Y-43548139D01*
X46973864Y-43474005D01*
X47166965Y-42936777D01*
X47139778Y-42366546D01*
X46973864Y-41965995D01*
X46727745Y-41891861D01*
X45899605Y-42720000D01*
X45540395Y-42720000D01*
X44712255Y-41891861D01*
X44466136Y-41965995D01*
X44451142Y-42007709D01*
X44433864Y-41965995D01*
X44187745Y-41891861D01*
X43359605Y-42720000D01*
X43000395Y-42720000D01*
X42172255Y-41891861D01*
X41926136Y-41965995D01*
X41905126Y-42024448D01*
X41856534Y-41907138D01*
X41661651Y-41712255D01*
X42351861Y-41712255D01*
X43180000Y-42540395D01*
X44008139Y-41712255D01*
X44891861Y-41712255D01*
X45720000Y-42540395D01*
X46548139Y-41712255D01*
X46474005Y-41466136D01*
X45936777Y-41273035D01*
X45366546Y-41300222D01*
X44965995Y-41466136D01*
X44891861Y-41712255D01*
X44008139Y-41712255D01*
X43934005Y-41466136D01*
X43396777Y-41273035D01*
X42826546Y-41300222D01*
X42425995Y-41466136D01*
X42351861Y-41712255D01*
X41661651Y-41712255D01*
X41452862Y-41503466D01*
X40925439Y-41285000D01*
X40354561Y-41285000D01*
X39827138Y-41503466D01*
X39423466Y-41907138D01*
X39370000Y-42036216D01*
X39316534Y-41907138D01*
X38912862Y-41503466D01*
X38385439Y-41285000D01*
X37814561Y-41285000D01*
X37287138Y-41503466D01*
X36883466Y-41907138D01*
X36830000Y-42036216D01*
X36776534Y-41907138D01*
X36372862Y-41503466D01*
X35845439Y-41285000D01*
X35274561Y-41285000D01*
X34747138Y-41503466D01*
X34343466Y-41907138D01*
X34125000Y-42434561D01*
X31265000Y-42434561D01*
X31265000Y-35274561D01*
X43015000Y-35274561D01*
X43015000Y-35845439D01*
X43233466Y-36372862D01*
X43637138Y-36776534D01*
X43766216Y-36830000D01*
X43637138Y-36883466D01*
X43233466Y-37287138D01*
X43015000Y-37814561D01*
X43015000Y-38385439D01*
X43233466Y-38912862D01*
X43637138Y-39316534D01*
X44164561Y-39535000D01*
X44735439Y-39535000D01*
X45262862Y-39316534D01*
X45666534Y-38912862D01*
X45720000Y-38783784D01*
X45773466Y-38912862D01*
X46177138Y-39316534D01*
X46704561Y-39535000D01*
X47275439Y-39535000D01*
X47802862Y-39316534D01*
X48206534Y-38912862D01*
X48260000Y-38783784D01*
X48313466Y-38912862D01*
X48717138Y-39316534D01*
X49244561Y-39535000D01*
X49815439Y-39535000D01*
X50342862Y-39316534D01*
X50746534Y-38912862D01*
X50800000Y-38783784D01*
X50853466Y-38912862D01*
X51257138Y-39316534D01*
X51784561Y-39535000D01*
X52355439Y-39535000D01*
X52882862Y-39316534D01*
X53286534Y-38912862D01*
X53505000Y-38385439D01*
X53505000Y-37814561D01*
X53286534Y-37287138D01*
X52882862Y-36883466D01*
X52753784Y-36830000D01*
X52882862Y-36776534D01*
X53286534Y-36372862D01*
X53505000Y-35845439D01*
X53505000Y-35274561D01*
X53286534Y-34747138D01*
X52882862Y-34343466D01*
X52355439Y-34125000D01*
X51784561Y-34125000D01*
X51257138Y-34343466D01*
X50853466Y-34747138D01*
X50800000Y-34876216D01*
X50746534Y-34747138D01*
X50342862Y-34343466D01*
X49815439Y-34125000D01*
X49244561Y-34125000D01*
X48717138Y-34343466D01*
X48313466Y-34747138D01*
X48260000Y-34876216D01*
X48206534Y-34747138D01*
X47802862Y-34343466D01*
X47275439Y-34125000D01*
X46704561Y-34125000D01*
X46177138Y-34343466D01*
X45773466Y-34747138D01*
X45720000Y-34876216D01*
X45666534Y-34747138D01*
X45262862Y-34343466D01*
X44735439Y-34125000D01*
X44164561Y-34125000D01*
X43637138Y-34343466D01*
X43233466Y-34747138D01*
X43015000Y-35274561D01*
X31265000Y-35274561D01*
X31265000Y-34372339D01*
X31464561Y-34455000D01*
X32035439Y-34455000D01*
X32562862Y-34236534D01*
X32966534Y-33832862D01*
X33185000Y-33305439D01*
X33185000Y-32734561D01*
X32966534Y-32207138D01*
X32562862Y-31803466D01*
X32449417Y-31756475D01*
X32504005Y-31733864D01*
X32578139Y-31487745D01*
X31750000Y-30659605D01*
X30921861Y-31487745D01*
X30995995Y-31733864D01*
X31054448Y-31754874D01*
X30937138Y-31803466D01*
X30533466Y-32207138D01*
X30315000Y-32734561D01*
X30315000Y-33014843D01*
X29995000Y-32694843D01*
X29995000Y-31708075D01*
X30022862Y-31696534D01*
X30426534Y-31292862D01*
X30473525Y-31179417D01*
X30496136Y-31234005D01*
X30742255Y-31308139D01*
X31570395Y-30480000D01*
X31556252Y-30465858D01*
X31735858Y-30286252D01*
X31750000Y-30300395D01*
X31764142Y-30286252D01*
X31943748Y-30465858D01*
G36*
X39022000Y-48895000D02*
X39042000Y-48895000D01*
X39042000Y-49149000D01*
X39022000Y-49149000D01*
X39022000Y-49169000D01*
X38768000Y-49169000D01*
X38768000Y-49149000D01*
X38748000Y-49149000D01*
X38748000Y-48895000D01*
X38768000Y-48895000D01*
X38768000Y-48875000D01*
X39022000Y-48875000D01*
X39022000Y-48895000D01*
X39022000Y-48895000D01*
G37*
X39022000Y-48895000D02*
X39042000Y-48895000D01*
X39042000Y-49149000D01*
X39022000Y-49149000D01*
X39022000Y-49169000D01*
X38768000Y-49169000D01*
X38768000Y-49149000D01*
X38748000Y-49149000D01*
X38748000Y-48895000D01*
X38768000Y-48895000D01*
X38768000Y-48875000D01*
X39022000Y-48875000D01*
X39022000Y-48895000D01*
G36*
X28397138Y-31696534D02*
X28425001Y-31708075D01*
X28425000Y-32942688D01*
X28409622Y-33020000D01*
X28425000Y-33097312D01*
X28425000Y-33097315D01*
X28470546Y-33326291D01*
X28644047Y-33585953D01*
X28709592Y-33629749D01*
X29695001Y-34615159D01*
X29695000Y-44285000D01*
X29495750Y-44285000D01*
X29337000Y-44443750D01*
X29337000Y-45593000D01*
X29357000Y-45593000D01*
X29357000Y-45847000D01*
X29337000Y-45847000D01*
X29337000Y-45867000D01*
X29083000Y-45867000D01*
X29083000Y-45847000D01*
X29063000Y-45847000D01*
X29063000Y-45593000D01*
X29083000Y-45593000D01*
X29083000Y-44443750D01*
X28924250Y-44285000D01*
X28396000Y-44285000D01*
X28396000Y-31695396D01*
X28397138Y-31696534D01*
X28397138Y-31696534D01*
G37*
X28397138Y-31696534D02*
X28425001Y-31708075D01*
X28425000Y-32942688D01*
X28409622Y-33020000D01*
X28425000Y-33097312D01*
X28425000Y-33097315D01*
X28470546Y-33326291D01*
X28644047Y-33585953D01*
X28709592Y-33629749D01*
X29695001Y-34615159D01*
X29695000Y-44285000D01*
X29495750Y-44285000D01*
X29337000Y-44443750D01*
X29337000Y-45593000D01*
X29357000Y-45593000D01*
X29357000Y-45847000D01*
X29337000Y-45847000D01*
X29337000Y-45867000D01*
X29083000Y-45867000D01*
X29083000Y-45847000D01*
X29063000Y-45847000D01*
X29063000Y-45593000D01*
X29083000Y-45593000D01*
X29083000Y-44443750D01*
X28924250Y-44285000D01*
X28396000Y-44285000D01*
X28396000Y-31695396D01*
X28397138Y-31696534D01*
G36*
X96647000Y-42545000D02*
X96667000Y-42545000D01*
X96667000Y-42799000D01*
X96647000Y-42799000D01*
X96647000Y-43773250D01*
X96805750Y-43932000D01*
X97396309Y-43932000D01*
X97629698Y-43835327D01*
X97808327Y-43656699D01*
X97905000Y-43423310D01*
X97905000Y-43419623D01*
X97938843Y-43589765D01*
X98079191Y-43799809D01*
X98289235Y-43940157D01*
X98298500Y-43942000D01*
X98289235Y-43943843D01*
X98079191Y-44084191D01*
X97938843Y-44294235D01*
X97906467Y-44457000D01*
X95960868Y-44457000D01*
X95240173Y-43736305D01*
X95268654Y-43693680D01*
X95410302Y-43835327D01*
X95643691Y-43932000D01*
X96234250Y-43932000D01*
X96393000Y-43773250D01*
X96393000Y-42799000D01*
X96373000Y-42799000D01*
X96373000Y-42545000D01*
X96393000Y-42545000D01*
X96393000Y-42525000D01*
X96647000Y-42525000D01*
X96647000Y-42545000D01*
X96647000Y-42545000D01*
G37*
X96647000Y-42545000D02*
X96667000Y-42545000D01*
X96667000Y-42799000D01*
X96647000Y-42799000D01*
X96647000Y-43773250D01*
X96805750Y-43932000D01*
X97396309Y-43932000D01*
X97629698Y-43835327D01*
X97808327Y-43656699D01*
X97905000Y-43423310D01*
X97905000Y-43419623D01*
X97938843Y-43589765D01*
X98079191Y-43799809D01*
X98289235Y-43940157D01*
X98298500Y-43942000D01*
X98289235Y-43943843D01*
X98079191Y-44084191D01*
X97938843Y-44294235D01*
X97906467Y-44457000D01*
X95960868Y-44457000D01*
X95240173Y-43736305D01*
X95268654Y-43693680D01*
X95410302Y-43835327D01*
X95643691Y-43932000D01*
X96234250Y-43932000D01*
X96393000Y-43773250D01*
X96393000Y-42799000D01*
X96373000Y-42799000D01*
X96373000Y-42545000D01*
X96393000Y-42545000D01*
X96393000Y-42525000D01*
X96647000Y-42525000D01*
X96647000Y-42545000D01*
G36*
X97927000Y-39826250D02*
X98085750Y-39985000D01*
X99060000Y-39985000D01*
X99060000Y-39965000D01*
X99314000Y-39965000D01*
X99314000Y-39985000D01*
X99334000Y-39985000D01*
X99334000Y-40239000D01*
X99314000Y-40239000D01*
X99314000Y-40259000D01*
X99060000Y-40259000D01*
X99060000Y-40239000D01*
X98085750Y-40239000D01*
X97927000Y-40397750D01*
X97927000Y-40667000D01*
X97693145Y-40667000D01*
X97710000Y-40626309D01*
X97710000Y-40583750D01*
X97553337Y-40427087D01*
X97673157Y-40247765D01*
X97696664Y-40129586D01*
X97710000Y-40116250D01*
X97710000Y-40073691D01*
X97708502Y-40070074D01*
X97722440Y-40000000D01*
X97722440Y-39700000D01*
X97702549Y-39600000D01*
X97705533Y-39585000D01*
X97927000Y-39585000D01*
X97927000Y-39826250D01*
X97927000Y-39826250D01*
G37*
X97927000Y-39826250D02*
X98085750Y-39985000D01*
X99060000Y-39985000D01*
X99060000Y-39965000D01*
X99314000Y-39965000D01*
X99314000Y-39985000D01*
X99334000Y-39985000D01*
X99334000Y-40239000D01*
X99314000Y-40239000D01*
X99314000Y-40259000D01*
X99060000Y-40259000D01*
X99060000Y-40239000D01*
X98085750Y-40239000D01*
X97927000Y-40397750D01*
X97927000Y-40667000D01*
X97693145Y-40667000D01*
X97710000Y-40626309D01*
X97710000Y-40583750D01*
X97553337Y-40427087D01*
X97673157Y-40247765D01*
X97696664Y-40129586D01*
X97710000Y-40116250D01*
X97710000Y-40073691D01*
X97708502Y-40070074D01*
X97722440Y-40000000D01*
X97722440Y-39700000D01*
X97702549Y-39600000D01*
X97705533Y-39585000D01*
X97927000Y-39585000D01*
X97927000Y-39826250D01*
G36*
X94990302Y-36538327D02*
X95223691Y-36635000D01*
X95276309Y-36635000D01*
X95500000Y-36542344D01*
X95723691Y-36635000D01*
X95776309Y-36635000D01*
X95872998Y-36594950D01*
X95872998Y-36635000D01*
X95915489Y-36635000D01*
X95902560Y-36700000D01*
X95902560Y-37000000D01*
X95922451Y-37100000D01*
X95902560Y-37200000D01*
X95902560Y-37500000D01*
X95922451Y-37600000D01*
X95902560Y-37700000D01*
X95902560Y-38000000D01*
X95922451Y-38100000D01*
X95902560Y-38200000D01*
X95902560Y-38500000D01*
X95922451Y-38600000D01*
X95902560Y-38700000D01*
X95902560Y-39000000D01*
X95922451Y-39100000D01*
X95902560Y-39200000D01*
X95902560Y-39500000D01*
X95915489Y-39565000D01*
X95872998Y-39565000D01*
X95872998Y-39596917D01*
X95779586Y-39578336D01*
X95766250Y-39565000D01*
X95723691Y-39565000D01*
X95720074Y-39566498D01*
X95650000Y-39552560D01*
X95350000Y-39552560D01*
X95250000Y-39572451D01*
X95150000Y-39552560D01*
X94850000Y-39552560D01*
X94779926Y-39566498D01*
X94776309Y-39565000D01*
X94733750Y-39565000D01*
X94720414Y-39578336D01*
X94627002Y-39596917D01*
X94627002Y-39565000D01*
X94584511Y-39565000D01*
X94597440Y-39500000D01*
X94597440Y-39200000D01*
X94577549Y-39100000D01*
X94597440Y-39000000D01*
X94597440Y-38700000D01*
X94583502Y-38629926D01*
X94585000Y-38626309D01*
X94585000Y-38583750D01*
X94571664Y-38570414D01*
X94548157Y-38452235D01*
X94479845Y-38350000D01*
X94548157Y-38247765D01*
X94571664Y-38129586D01*
X94585000Y-38116250D01*
X94585000Y-38073691D01*
X94583502Y-38070074D01*
X94597440Y-38000000D01*
X94597440Y-37700000D01*
X94577549Y-37600000D01*
X94597440Y-37500000D01*
X94597440Y-37200000D01*
X94577549Y-37100000D01*
X94597440Y-37000000D01*
X94597440Y-36700000D01*
X94586985Y-36647440D01*
X94650000Y-36647440D01*
X94720074Y-36633502D01*
X94723691Y-36635000D01*
X94766250Y-36635000D01*
X94779586Y-36621664D01*
X94897765Y-36598157D01*
X94989102Y-36537127D01*
X94990302Y-36538327D01*
X94990302Y-36538327D01*
G37*
X94990302Y-36538327D02*
X95223691Y-36635000D01*
X95276309Y-36635000D01*
X95500000Y-36542344D01*
X95723691Y-36635000D01*
X95776309Y-36635000D01*
X95872998Y-36594950D01*
X95872998Y-36635000D01*
X95915489Y-36635000D01*
X95902560Y-36700000D01*
X95902560Y-37000000D01*
X95922451Y-37100000D01*
X95902560Y-37200000D01*
X95902560Y-37500000D01*
X95922451Y-37600000D01*
X95902560Y-37700000D01*
X95902560Y-38000000D01*
X95922451Y-38100000D01*
X95902560Y-38200000D01*
X95902560Y-38500000D01*
X95922451Y-38600000D01*
X95902560Y-38700000D01*
X95902560Y-39000000D01*
X95922451Y-39100000D01*
X95902560Y-39200000D01*
X95902560Y-39500000D01*
X95915489Y-39565000D01*
X95872998Y-39565000D01*
X95872998Y-39596917D01*
X95779586Y-39578336D01*
X95766250Y-39565000D01*
X95723691Y-39565000D01*
X95720074Y-39566498D01*
X95650000Y-39552560D01*
X95350000Y-39552560D01*
X95250000Y-39572451D01*
X95150000Y-39552560D01*
X94850000Y-39552560D01*
X94779926Y-39566498D01*
X94776309Y-39565000D01*
X94733750Y-39565000D01*
X94720414Y-39578336D01*
X94627002Y-39596917D01*
X94627002Y-39565000D01*
X94584511Y-39565000D01*
X94597440Y-39500000D01*
X94597440Y-39200000D01*
X94577549Y-39100000D01*
X94597440Y-39000000D01*
X94597440Y-38700000D01*
X94583502Y-38629926D01*
X94585000Y-38626309D01*
X94585000Y-38583750D01*
X94571664Y-38570414D01*
X94548157Y-38452235D01*
X94479845Y-38350000D01*
X94548157Y-38247765D01*
X94571664Y-38129586D01*
X94585000Y-38116250D01*
X94585000Y-38073691D01*
X94583502Y-38070074D01*
X94597440Y-38000000D01*
X94597440Y-37700000D01*
X94577549Y-37600000D01*
X94597440Y-37500000D01*
X94597440Y-37200000D01*
X94577549Y-37100000D01*
X94597440Y-37000000D01*
X94597440Y-36700000D01*
X94586985Y-36647440D01*
X94650000Y-36647440D01*
X94720074Y-36633502D01*
X94723691Y-36635000D01*
X94766250Y-36635000D01*
X94779586Y-36621664D01*
X94897765Y-36598157D01*
X94989102Y-36537127D01*
X94990302Y-36538327D01*
G36*
X97938843Y-33349765D02*
X98079191Y-33559809D01*
X98289235Y-33700157D01*
X98298500Y-33702000D01*
X98289235Y-33703843D01*
X98122318Y-33815375D01*
X97995874Y-33763000D01*
X97854250Y-33763000D01*
X97746250Y-33655000D01*
X96647000Y-33655000D01*
X96647000Y-34629250D01*
X96755000Y-34737250D01*
X96755000Y-35003874D01*
X96780319Y-35065000D01*
X96685498Y-35065000D01*
X96685498Y-35212472D01*
X96509698Y-35036673D01*
X96276309Y-34940000D01*
X96233750Y-34940000D01*
X96075000Y-35098750D01*
X96075000Y-35101975D01*
X96009698Y-35036673D01*
X95776309Y-34940000D01*
X95723691Y-34940000D01*
X95500000Y-35032656D01*
X95276309Y-34940000D01*
X95223691Y-34940000D01*
X95127002Y-34980050D01*
X95127002Y-34940000D01*
X95093319Y-34940000D01*
X95029905Y-34845095D01*
X94968537Y-34804090D01*
X94932553Y-34768106D01*
X95017765Y-34751157D01*
X95227809Y-34610809D01*
X95268654Y-34549680D01*
X95410302Y-34691327D01*
X95643691Y-34788000D01*
X96234250Y-34788000D01*
X96393000Y-34629250D01*
X96393000Y-33655000D01*
X96373000Y-33655000D01*
X96373000Y-33401000D01*
X96393000Y-33401000D01*
X96393000Y-33381000D01*
X96647000Y-33381000D01*
X96647000Y-33401000D01*
X97746250Y-33401000D01*
X97905000Y-33242250D01*
X97905000Y-33179623D01*
X97938843Y-33349765D01*
X97938843Y-33349765D01*
G37*
X97938843Y-33349765D02*
X98079191Y-33559809D01*
X98289235Y-33700157D01*
X98298500Y-33702000D01*
X98289235Y-33703843D01*
X98122318Y-33815375D01*
X97995874Y-33763000D01*
X97854250Y-33763000D01*
X97746250Y-33655000D01*
X96647000Y-33655000D01*
X96647000Y-34629250D01*
X96755000Y-34737250D01*
X96755000Y-35003874D01*
X96780319Y-35065000D01*
X96685498Y-35065000D01*
X96685498Y-35212472D01*
X96509698Y-35036673D01*
X96276309Y-34940000D01*
X96233750Y-34940000D01*
X96075000Y-35098750D01*
X96075000Y-35101975D01*
X96009698Y-35036673D01*
X95776309Y-34940000D01*
X95723691Y-34940000D01*
X95500000Y-35032656D01*
X95276309Y-34940000D01*
X95223691Y-34940000D01*
X95127002Y-34980050D01*
X95127002Y-34940000D01*
X95093319Y-34940000D01*
X95029905Y-34845095D01*
X94968537Y-34804090D01*
X94932553Y-34768106D01*
X95017765Y-34751157D01*
X95227809Y-34610809D01*
X95268654Y-34549680D01*
X95410302Y-34691327D01*
X95643691Y-34788000D01*
X96234250Y-34788000D01*
X96393000Y-34629250D01*
X96393000Y-33655000D01*
X96373000Y-33655000D01*
X96373000Y-33401000D01*
X96393000Y-33401000D01*
X96393000Y-33381000D01*
X96647000Y-33381000D01*
X96647000Y-33401000D01*
X97746250Y-33401000D01*
X97905000Y-33242250D01*
X97905000Y-33179623D01*
X97938843Y-33349765D01*
G36*
X99874001Y-28886070D02*
X99874000Y-28886075D01*
X99874000Y-30961920D01*
X99837000Y-30954560D01*
X98537000Y-30954560D01*
X98289235Y-31003843D01*
X98079191Y-31144191D01*
X98029205Y-31219000D01*
X94696312Y-31219000D01*
X94634500Y-31206705D01*
X94622001Y-31187999D01*
X94552283Y-31141415D01*
X88580807Y-25169939D01*
X88636092Y-24892000D01*
X88520839Y-24312582D01*
X88192625Y-23821375D01*
X87892214Y-23620647D01*
X88317183Y-23233358D01*
X88563486Y-22708892D01*
X88461656Y-22514887D01*
X96055000Y-22514887D01*
X96055000Y-23205113D01*
X96319138Y-23842799D01*
X96807201Y-24330862D01*
X97444887Y-24595000D01*
X98135113Y-24595000D01*
X98772799Y-24330862D01*
X99260862Y-23842799D01*
X99525000Y-23205113D01*
X99525000Y-22514887D01*
X99260862Y-21877201D01*
X98772799Y-21389138D01*
X98135113Y-21125000D01*
X97444887Y-21125000D01*
X96807201Y-21389138D01*
X96319138Y-21877201D01*
X96055000Y-22514887D01*
X88461656Y-22514887D01*
X88442819Y-22479000D01*
X87249000Y-22479000D01*
X87249000Y-22499000D01*
X86995000Y-22499000D01*
X86995000Y-22479000D01*
X84709000Y-22479000D01*
X84709000Y-22499000D01*
X84455000Y-22499000D01*
X84455000Y-22479000D01*
X82169000Y-22479000D01*
X82169000Y-22499000D01*
X81915000Y-22499000D01*
X81915000Y-22479000D01*
X80721181Y-22479000D01*
X80600514Y-22708892D01*
X80846817Y-23233358D01*
X81053855Y-23422039D01*
X80944235Y-23443843D01*
X80734191Y-23584191D01*
X80593843Y-23794235D01*
X80544560Y-24042000D01*
X80544560Y-24565000D01*
X74258642Y-24565000D01*
X74246157Y-24502235D01*
X74105809Y-24292191D01*
X73895765Y-24151843D01*
X73648000Y-24102560D01*
X72148000Y-24102560D01*
X71900235Y-24151843D01*
X71690191Y-24292191D01*
X71549843Y-24502235D01*
X71548000Y-24511500D01*
X71546157Y-24502235D01*
X71405809Y-24292191D01*
X71195765Y-24151843D01*
X70948000Y-24102560D01*
X70939000Y-24102560D01*
X70939000Y-23580065D01*
X71174625Y-23422625D01*
X71387843Y-23103522D01*
X71448817Y-23233358D01*
X71877076Y-23623645D01*
X72287110Y-23793476D01*
X72517000Y-23672155D01*
X72517000Y-22479000D01*
X72771000Y-22479000D01*
X72771000Y-23672155D01*
X73000890Y-23793476D01*
X73410924Y-23623645D01*
X73839183Y-23233358D01*
X74085486Y-22708892D01*
X73964819Y-22479000D01*
X72771000Y-22479000D01*
X72517000Y-22479000D01*
X72497000Y-22479000D01*
X72497000Y-22225000D01*
X72517000Y-22225000D01*
X72517000Y-21031845D01*
X72771000Y-21031845D01*
X72771000Y-22225000D01*
X73964819Y-22225000D01*
X74085486Y-21995108D01*
X80600514Y-21995108D01*
X80721181Y-22225000D01*
X81915000Y-22225000D01*
X81915000Y-21031845D01*
X82169000Y-21031845D01*
X82169000Y-22225000D01*
X84455000Y-22225000D01*
X84455000Y-21031845D01*
X84709000Y-21031845D01*
X84709000Y-22225000D01*
X86995000Y-22225000D01*
X86995000Y-21031845D01*
X87249000Y-21031845D01*
X87249000Y-22225000D01*
X88442819Y-22225000D01*
X88563486Y-21995108D01*
X88317183Y-21470642D01*
X87888924Y-21080355D01*
X87478890Y-20910524D01*
X87249000Y-21031845D01*
X86995000Y-21031845D01*
X86765110Y-20910524D01*
X86355076Y-21080355D01*
X85926817Y-21470642D01*
X85852000Y-21629954D01*
X85777183Y-21470642D01*
X85348924Y-21080355D01*
X84938890Y-20910524D01*
X84709000Y-21031845D01*
X84455000Y-21031845D01*
X84225110Y-20910524D01*
X83815076Y-21080355D01*
X83386817Y-21470642D01*
X83312000Y-21629954D01*
X83237183Y-21470642D01*
X82808924Y-21080355D01*
X82398890Y-20910524D01*
X82169000Y-21031845D01*
X81915000Y-21031845D01*
X81685110Y-20910524D01*
X81275076Y-21080355D01*
X80846817Y-21470642D01*
X80600514Y-21995108D01*
X74085486Y-21995108D01*
X73839183Y-21470642D01*
X73410924Y-21080355D01*
X73000890Y-20910524D01*
X72771000Y-21031845D01*
X72517000Y-21031845D01*
X72287110Y-20910524D01*
X71877076Y-21080355D01*
X71448817Y-21470642D01*
X71387843Y-21600478D01*
X71174625Y-21281375D01*
X70683418Y-20953161D01*
X70250256Y-20867000D01*
X69957744Y-20867000D01*
X69524582Y-20953161D01*
X69033375Y-21281375D01*
X69021184Y-21299619D01*
X69012157Y-21254235D01*
X68871809Y-21044191D01*
X68661765Y-20903843D01*
X68414000Y-20854560D01*
X66714000Y-20854560D01*
X66466235Y-20903843D01*
X66256191Y-21044191D01*
X66115843Y-21254235D01*
X66066560Y-21502000D01*
X66066560Y-23202000D01*
X66115843Y-23449765D01*
X66256191Y-23659809D01*
X66466235Y-23800157D01*
X66714000Y-23849440D01*
X66729001Y-23849440D01*
X66729001Y-25067242D01*
X66712643Y-25149480D01*
X66777448Y-25475280D01*
X66786854Y-25489357D01*
X66962000Y-25751481D01*
X67031718Y-25798065D01*
X68803080Y-27569428D01*
X68803080Y-28336000D01*
X68852363Y-28583765D01*
X68992711Y-28793809D01*
X69202755Y-28934157D01*
X69450520Y-28983440D01*
X70950520Y-28983440D01*
X71198285Y-28934157D01*
X71408329Y-28793809D01*
X71548677Y-28583765D01*
X71550520Y-28574500D01*
X71552363Y-28583765D01*
X71692711Y-28793809D01*
X71902755Y-28934157D01*
X72096233Y-28972642D01*
X72110626Y-29045000D01*
X72104561Y-29045000D01*
X71577138Y-29263466D01*
X71173466Y-29667138D01*
X71120000Y-29796216D01*
X71066534Y-29667138D01*
X70662862Y-29263466D01*
X70135439Y-29045000D01*
X69564561Y-29045000D01*
X69037138Y-29263466D01*
X68633466Y-29667138D01*
X68580000Y-29796216D01*
X68526534Y-29667138D01*
X68122862Y-29263466D01*
X67595439Y-29045000D01*
X67024561Y-29045000D01*
X66497138Y-29263466D01*
X66093466Y-29667138D01*
X66046475Y-29780583D01*
X66023864Y-29725995D01*
X65777745Y-29651861D01*
X64949605Y-30480000D01*
X64963748Y-30494142D01*
X64784143Y-30673748D01*
X64770000Y-30659605D01*
X64755858Y-30673748D01*
X64576252Y-30494142D01*
X64590395Y-30480000D01*
X63762255Y-29651861D01*
X63516136Y-29725995D01*
X63495126Y-29784448D01*
X63446534Y-29667138D01*
X63251651Y-29472255D01*
X63941861Y-29472255D01*
X64770000Y-30300395D01*
X65598139Y-29472255D01*
X65524005Y-29226136D01*
X64986777Y-29033035D01*
X64416546Y-29060222D01*
X64015995Y-29226136D01*
X63941861Y-29472255D01*
X63251651Y-29472255D01*
X63042862Y-29263466D01*
X62515439Y-29045000D01*
X61944561Y-29045000D01*
X61417138Y-29263466D01*
X61013466Y-29667138D01*
X60960000Y-29796216D01*
X60906534Y-29667138D01*
X60525000Y-29285604D01*
X60525000Y-23849440D01*
X60540000Y-23849440D01*
X60787765Y-23800157D01*
X60997809Y-23659809D01*
X61138157Y-23449765D01*
X61187440Y-23202000D01*
X61187440Y-21502000D01*
X61138157Y-21254235D01*
X60997809Y-21044191D01*
X60787765Y-20903843D01*
X60540000Y-20854560D01*
X58840000Y-20854560D01*
X58592235Y-20903843D01*
X58382191Y-21044191D01*
X58241843Y-21254235D01*
X58232816Y-21299619D01*
X58220625Y-21281375D01*
X57729418Y-20953161D01*
X57296256Y-20867000D01*
X57003744Y-20867000D01*
X56570582Y-20953161D01*
X56079375Y-21281375D01*
X55880000Y-21579761D01*
X55680625Y-21281375D01*
X55189418Y-20953161D01*
X54756256Y-20867000D01*
X54463744Y-20867000D01*
X54030582Y-20953161D01*
X53539375Y-21281375D01*
X53340000Y-21579761D01*
X53140625Y-21281375D01*
X52649418Y-20953161D01*
X52216256Y-20867000D01*
X51923744Y-20867000D01*
X51490582Y-20953161D01*
X50999375Y-21281375D01*
X50671161Y-21772582D01*
X50555908Y-22352000D01*
X50671161Y-22931418D01*
X50999375Y-23422625D01*
X51235001Y-23580065D01*
X51235000Y-29285604D01*
X50853466Y-29667138D01*
X50800000Y-29796216D01*
X50746534Y-29667138D01*
X50342862Y-29263466D01*
X49815439Y-29045000D01*
X49244561Y-29045000D01*
X48717138Y-29263466D01*
X48313466Y-29667138D01*
X48260000Y-29796216D01*
X48206534Y-29667138D01*
X47802862Y-29263466D01*
X47275439Y-29045000D01*
X46704561Y-29045000D01*
X46177138Y-29263466D01*
X45773466Y-29667138D01*
X45720000Y-29796216D01*
X45666534Y-29667138D01*
X45262862Y-29263466D01*
X44735439Y-29045000D01*
X44164561Y-29045000D01*
X43637138Y-29263466D01*
X43233466Y-29667138D01*
X43180000Y-29796216D01*
X43126534Y-29667138D01*
X42722862Y-29263466D01*
X42195439Y-29045000D01*
X41624561Y-29045000D01*
X41097138Y-29263466D01*
X40693466Y-29667138D01*
X40640000Y-29796216D01*
X40586534Y-29667138D01*
X40182862Y-29263466D01*
X39655439Y-29045000D01*
X39084561Y-29045000D01*
X38557138Y-29263466D01*
X38153466Y-29667138D01*
X38100000Y-29796216D01*
X38046534Y-29667138D01*
X37642862Y-29263466D01*
X37115439Y-29045000D01*
X36544561Y-29045000D01*
X36017138Y-29263466D01*
X35613466Y-29667138D01*
X35560000Y-29796216D01*
X35506534Y-29667138D01*
X35144440Y-29305044D01*
X35146001Y-29304001D01*
X35192587Y-29234280D01*
X37302286Y-27124583D01*
X37372001Y-27078001D01*
X37439962Y-26976291D01*
X37556552Y-26801801D01*
X37559250Y-26788235D01*
X37573668Y-26715750D01*
X39960000Y-26715750D01*
X39960000Y-27031309D01*
X40056673Y-27264698D01*
X40235301Y-27443327D01*
X40468690Y-27540000D01*
X41684250Y-27540000D01*
X41843000Y-27381250D01*
X41843000Y-26557000D01*
X42097000Y-26557000D01*
X42097000Y-27381250D01*
X42255750Y-27540000D01*
X43471310Y-27540000D01*
X43704699Y-27443327D01*
X43883327Y-27264698D01*
X43980000Y-27031309D01*
X43980000Y-26715750D01*
X43821250Y-26557000D01*
X42097000Y-26557000D01*
X41843000Y-26557000D01*
X40118750Y-26557000D01*
X39960000Y-26715750D01*
X37573668Y-26715750D01*
X37605000Y-26558237D01*
X37605000Y-26558234D01*
X37621357Y-26476001D01*
X37606725Y-26402440D01*
X38145000Y-26402440D01*
X38392765Y-26353157D01*
X38602809Y-26212809D01*
X38743157Y-26002765D01*
X38777782Y-25828691D01*
X39960000Y-25828691D01*
X39960000Y-26144250D01*
X40118750Y-26303000D01*
X41843000Y-26303000D01*
X41843000Y-25478750D01*
X41684250Y-25320000D01*
X40468690Y-25320000D01*
X40235301Y-25416673D01*
X40056673Y-25595302D01*
X39960000Y-25828691D01*
X38777782Y-25828691D01*
X38792440Y-25755000D01*
X38792440Y-24965000D01*
X40071837Y-24965000D01*
X40137191Y-25062809D01*
X40347235Y-25203157D01*
X40595000Y-25252440D01*
X42882283Y-25252440D01*
X42949843Y-25320000D01*
X42255750Y-25320000D01*
X42097000Y-25478750D01*
X42097000Y-26303000D01*
X43821250Y-26303000D01*
X43877046Y-26247204D01*
X44068560Y-26438718D01*
X44068560Y-27295000D01*
X44117843Y-27542765D01*
X44258191Y-27752809D01*
X44468235Y-27893157D01*
X44716000Y-27942440D01*
X46216000Y-27942440D01*
X46463765Y-27893157D01*
X46673809Y-27752809D01*
X46714654Y-27691680D01*
X46856302Y-27833327D01*
X47089691Y-27930000D01*
X47680250Y-27930000D01*
X47839000Y-27771250D01*
X47839000Y-26797000D01*
X48093000Y-26797000D01*
X48093000Y-27771250D01*
X48251750Y-27930000D01*
X48842309Y-27930000D01*
X49075698Y-27833327D01*
X49254327Y-27654699D01*
X49351000Y-27421310D01*
X49351000Y-26955750D01*
X49192250Y-26797000D01*
X48093000Y-26797000D01*
X47839000Y-26797000D01*
X47819000Y-26797000D01*
X47819000Y-26543000D01*
X47839000Y-26543000D01*
X47839000Y-25568750D01*
X48093000Y-25568750D01*
X48093000Y-26543000D01*
X49192250Y-26543000D01*
X49351000Y-26384250D01*
X49351000Y-25918690D01*
X49254327Y-25685301D01*
X49075698Y-25506673D01*
X48842309Y-25410000D01*
X48251750Y-25410000D01*
X48093000Y-25568750D01*
X47839000Y-25568750D01*
X47680250Y-25410000D01*
X47089691Y-25410000D01*
X46856302Y-25506673D01*
X46714654Y-25648320D01*
X46673809Y-25587191D01*
X46463765Y-25446843D01*
X46217223Y-25397803D01*
X46375327Y-25239698D01*
X46472000Y-25006309D01*
X46472000Y-24415750D01*
X46313250Y-24257000D01*
X45339000Y-24257000D01*
X45339000Y-24277000D01*
X45085000Y-24277000D01*
X45085000Y-24257000D01*
X45065000Y-24257000D01*
X45065000Y-24003000D01*
X45085000Y-24003000D01*
X45085000Y-23983000D01*
X45339000Y-23983000D01*
X45339000Y-24003000D01*
X46313250Y-24003000D01*
X46472000Y-23844250D01*
X46472000Y-23253691D01*
X46375327Y-23020302D01*
X46233680Y-22878654D01*
X46294809Y-22837809D01*
X46435157Y-22627765D01*
X46484440Y-22380000D01*
X46484440Y-20880000D01*
X46463753Y-20776000D01*
X99874000Y-20776000D01*
X99874001Y-28886070D01*
X99874001Y-28886070D01*
G37*
X99874001Y-28886070D02*
X99874000Y-28886075D01*
X99874000Y-30961920D01*
X99837000Y-30954560D01*
X98537000Y-30954560D01*
X98289235Y-31003843D01*
X98079191Y-31144191D01*
X98029205Y-31219000D01*
X94696312Y-31219000D01*
X94634500Y-31206705D01*
X94622001Y-31187999D01*
X94552283Y-31141415D01*
X88580807Y-25169939D01*
X88636092Y-24892000D01*
X88520839Y-24312582D01*
X88192625Y-23821375D01*
X87892214Y-23620647D01*
X88317183Y-23233358D01*
X88563486Y-22708892D01*
X88461656Y-22514887D01*
X96055000Y-22514887D01*
X96055000Y-23205113D01*
X96319138Y-23842799D01*
X96807201Y-24330862D01*
X97444887Y-24595000D01*
X98135113Y-24595000D01*
X98772799Y-24330862D01*
X99260862Y-23842799D01*
X99525000Y-23205113D01*
X99525000Y-22514887D01*
X99260862Y-21877201D01*
X98772799Y-21389138D01*
X98135113Y-21125000D01*
X97444887Y-21125000D01*
X96807201Y-21389138D01*
X96319138Y-21877201D01*
X96055000Y-22514887D01*
X88461656Y-22514887D01*
X88442819Y-22479000D01*
X87249000Y-22479000D01*
X87249000Y-22499000D01*
X86995000Y-22499000D01*
X86995000Y-22479000D01*
X84709000Y-22479000D01*
X84709000Y-22499000D01*
X84455000Y-22499000D01*
X84455000Y-22479000D01*
X82169000Y-22479000D01*
X82169000Y-22499000D01*
X81915000Y-22499000D01*
X81915000Y-22479000D01*
X80721181Y-22479000D01*
X80600514Y-22708892D01*
X80846817Y-23233358D01*
X81053855Y-23422039D01*
X80944235Y-23443843D01*
X80734191Y-23584191D01*
X80593843Y-23794235D01*
X80544560Y-24042000D01*
X80544560Y-24565000D01*
X74258642Y-24565000D01*
X74246157Y-24502235D01*
X74105809Y-24292191D01*
X73895765Y-24151843D01*
X73648000Y-24102560D01*
X72148000Y-24102560D01*
X71900235Y-24151843D01*
X71690191Y-24292191D01*
X71549843Y-24502235D01*
X71548000Y-24511500D01*
X71546157Y-24502235D01*
X71405809Y-24292191D01*
X71195765Y-24151843D01*
X70948000Y-24102560D01*
X70939000Y-24102560D01*
X70939000Y-23580065D01*
X71174625Y-23422625D01*
X71387843Y-23103522D01*
X71448817Y-23233358D01*
X71877076Y-23623645D01*
X72287110Y-23793476D01*
X72517000Y-23672155D01*
X72517000Y-22479000D01*
X72771000Y-22479000D01*
X72771000Y-23672155D01*
X73000890Y-23793476D01*
X73410924Y-23623645D01*
X73839183Y-23233358D01*
X74085486Y-22708892D01*
X73964819Y-22479000D01*
X72771000Y-22479000D01*
X72517000Y-22479000D01*
X72497000Y-22479000D01*
X72497000Y-22225000D01*
X72517000Y-22225000D01*
X72517000Y-21031845D01*
X72771000Y-21031845D01*
X72771000Y-22225000D01*
X73964819Y-22225000D01*
X74085486Y-21995108D01*
X80600514Y-21995108D01*
X80721181Y-22225000D01*
X81915000Y-22225000D01*
X81915000Y-21031845D01*
X82169000Y-21031845D01*
X82169000Y-22225000D01*
X84455000Y-22225000D01*
X84455000Y-21031845D01*
X84709000Y-21031845D01*
X84709000Y-22225000D01*
X86995000Y-22225000D01*
X86995000Y-21031845D01*
X87249000Y-21031845D01*
X87249000Y-22225000D01*
X88442819Y-22225000D01*
X88563486Y-21995108D01*
X88317183Y-21470642D01*
X87888924Y-21080355D01*
X87478890Y-20910524D01*
X87249000Y-21031845D01*
X86995000Y-21031845D01*
X86765110Y-20910524D01*
X86355076Y-21080355D01*
X85926817Y-21470642D01*
X85852000Y-21629954D01*
X85777183Y-21470642D01*
X85348924Y-21080355D01*
X84938890Y-20910524D01*
X84709000Y-21031845D01*
X84455000Y-21031845D01*
X84225110Y-20910524D01*
X83815076Y-21080355D01*
X83386817Y-21470642D01*
X83312000Y-21629954D01*
X83237183Y-21470642D01*
X82808924Y-21080355D01*
X82398890Y-20910524D01*
X82169000Y-21031845D01*
X81915000Y-21031845D01*
X81685110Y-20910524D01*
X81275076Y-21080355D01*
X80846817Y-21470642D01*
X80600514Y-21995108D01*
X74085486Y-21995108D01*
X73839183Y-21470642D01*
X73410924Y-21080355D01*
X73000890Y-20910524D01*
X72771000Y-21031845D01*
X72517000Y-21031845D01*
X72287110Y-20910524D01*
X71877076Y-21080355D01*
X71448817Y-21470642D01*
X71387843Y-21600478D01*
X71174625Y-21281375D01*
X70683418Y-20953161D01*
X70250256Y-20867000D01*
X69957744Y-20867000D01*
X69524582Y-20953161D01*
X69033375Y-21281375D01*
X69021184Y-21299619D01*
X69012157Y-21254235D01*
X68871809Y-21044191D01*
X68661765Y-20903843D01*
X68414000Y-20854560D01*
X66714000Y-20854560D01*
X66466235Y-20903843D01*
X66256191Y-21044191D01*
X66115843Y-21254235D01*
X66066560Y-21502000D01*
X66066560Y-23202000D01*
X66115843Y-23449765D01*
X66256191Y-23659809D01*
X66466235Y-23800157D01*
X66714000Y-23849440D01*
X66729001Y-23849440D01*
X66729001Y-25067242D01*
X66712643Y-25149480D01*
X66777448Y-25475280D01*
X66786854Y-25489357D01*
X66962000Y-25751481D01*
X67031718Y-25798065D01*
X68803080Y-27569428D01*
X68803080Y-28336000D01*
X68852363Y-28583765D01*
X68992711Y-28793809D01*
X69202755Y-28934157D01*
X69450520Y-28983440D01*
X70950520Y-28983440D01*
X71198285Y-28934157D01*
X71408329Y-28793809D01*
X71548677Y-28583765D01*
X71550520Y-28574500D01*
X71552363Y-28583765D01*
X71692711Y-28793809D01*
X71902755Y-28934157D01*
X72096233Y-28972642D01*
X72110626Y-29045000D01*
X72104561Y-29045000D01*
X71577138Y-29263466D01*
X71173466Y-29667138D01*
X71120000Y-29796216D01*
X71066534Y-29667138D01*
X70662862Y-29263466D01*
X70135439Y-29045000D01*
X69564561Y-29045000D01*
X69037138Y-29263466D01*
X68633466Y-29667138D01*
X68580000Y-29796216D01*
X68526534Y-29667138D01*
X68122862Y-29263466D01*
X67595439Y-29045000D01*
X67024561Y-29045000D01*
X66497138Y-29263466D01*
X66093466Y-29667138D01*
X66046475Y-29780583D01*
X66023864Y-29725995D01*
X65777745Y-29651861D01*
X64949605Y-30480000D01*
X64963748Y-30494142D01*
X64784143Y-30673748D01*
X64770000Y-30659605D01*
X64755858Y-30673748D01*
X64576252Y-30494142D01*
X64590395Y-30480000D01*
X63762255Y-29651861D01*
X63516136Y-29725995D01*
X63495126Y-29784448D01*
X63446534Y-29667138D01*
X63251651Y-29472255D01*
X63941861Y-29472255D01*
X64770000Y-30300395D01*
X65598139Y-29472255D01*
X65524005Y-29226136D01*
X64986777Y-29033035D01*
X64416546Y-29060222D01*
X64015995Y-29226136D01*
X63941861Y-29472255D01*
X63251651Y-29472255D01*
X63042862Y-29263466D01*
X62515439Y-29045000D01*
X61944561Y-29045000D01*
X61417138Y-29263466D01*
X61013466Y-29667138D01*
X60960000Y-29796216D01*
X60906534Y-29667138D01*
X60525000Y-29285604D01*
X60525000Y-23849440D01*
X60540000Y-23849440D01*
X60787765Y-23800157D01*
X60997809Y-23659809D01*
X61138157Y-23449765D01*
X61187440Y-23202000D01*
X61187440Y-21502000D01*
X61138157Y-21254235D01*
X60997809Y-21044191D01*
X60787765Y-20903843D01*
X60540000Y-20854560D01*
X58840000Y-20854560D01*
X58592235Y-20903843D01*
X58382191Y-21044191D01*
X58241843Y-21254235D01*
X58232816Y-21299619D01*
X58220625Y-21281375D01*
X57729418Y-20953161D01*
X57296256Y-20867000D01*
X57003744Y-20867000D01*
X56570582Y-20953161D01*
X56079375Y-21281375D01*
X55880000Y-21579761D01*
X55680625Y-21281375D01*
X55189418Y-20953161D01*
X54756256Y-20867000D01*
X54463744Y-20867000D01*
X54030582Y-20953161D01*
X53539375Y-21281375D01*
X53340000Y-21579761D01*
X53140625Y-21281375D01*
X52649418Y-20953161D01*
X52216256Y-20867000D01*
X51923744Y-20867000D01*
X51490582Y-20953161D01*
X50999375Y-21281375D01*
X50671161Y-21772582D01*
X50555908Y-22352000D01*
X50671161Y-22931418D01*
X50999375Y-23422625D01*
X51235001Y-23580065D01*
X51235000Y-29285604D01*
X50853466Y-29667138D01*
X50800000Y-29796216D01*
X50746534Y-29667138D01*
X50342862Y-29263466D01*
X49815439Y-29045000D01*
X49244561Y-29045000D01*
X48717138Y-29263466D01*
X48313466Y-29667138D01*
X48260000Y-29796216D01*
X48206534Y-29667138D01*
X47802862Y-29263466D01*
X47275439Y-29045000D01*
X46704561Y-29045000D01*
X46177138Y-29263466D01*
X45773466Y-29667138D01*
X45720000Y-29796216D01*
X45666534Y-29667138D01*
X45262862Y-29263466D01*
X44735439Y-29045000D01*
X44164561Y-29045000D01*
X43637138Y-29263466D01*
X43233466Y-29667138D01*
X43180000Y-29796216D01*
X43126534Y-29667138D01*
X42722862Y-29263466D01*
X42195439Y-29045000D01*
X41624561Y-29045000D01*
X41097138Y-29263466D01*
X40693466Y-29667138D01*
X40640000Y-29796216D01*
X40586534Y-29667138D01*
X40182862Y-29263466D01*
X39655439Y-29045000D01*
X39084561Y-29045000D01*
X38557138Y-29263466D01*
X38153466Y-29667138D01*
X38100000Y-29796216D01*
X38046534Y-29667138D01*
X37642862Y-29263466D01*
X37115439Y-29045000D01*
X36544561Y-29045000D01*
X36017138Y-29263466D01*
X35613466Y-29667138D01*
X35560000Y-29796216D01*
X35506534Y-29667138D01*
X35144440Y-29305044D01*
X35146001Y-29304001D01*
X35192587Y-29234280D01*
X37302286Y-27124583D01*
X37372001Y-27078001D01*
X37439962Y-26976291D01*
X37556552Y-26801801D01*
X37559250Y-26788235D01*
X37573668Y-26715750D01*
X39960000Y-26715750D01*
X39960000Y-27031309D01*
X40056673Y-27264698D01*
X40235301Y-27443327D01*
X40468690Y-27540000D01*
X41684250Y-27540000D01*
X41843000Y-27381250D01*
X41843000Y-26557000D01*
X42097000Y-26557000D01*
X42097000Y-27381250D01*
X42255750Y-27540000D01*
X43471310Y-27540000D01*
X43704699Y-27443327D01*
X43883327Y-27264698D01*
X43980000Y-27031309D01*
X43980000Y-26715750D01*
X43821250Y-26557000D01*
X42097000Y-26557000D01*
X41843000Y-26557000D01*
X40118750Y-26557000D01*
X39960000Y-26715750D01*
X37573668Y-26715750D01*
X37605000Y-26558237D01*
X37605000Y-26558234D01*
X37621357Y-26476001D01*
X37606725Y-26402440D01*
X38145000Y-26402440D01*
X38392765Y-26353157D01*
X38602809Y-26212809D01*
X38743157Y-26002765D01*
X38777782Y-25828691D01*
X39960000Y-25828691D01*
X39960000Y-26144250D01*
X40118750Y-26303000D01*
X41843000Y-26303000D01*
X41843000Y-25478750D01*
X41684250Y-25320000D01*
X40468690Y-25320000D01*
X40235301Y-25416673D01*
X40056673Y-25595302D01*
X39960000Y-25828691D01*
X38777782Y-25828691D01*
X38792440Y-25755000D01*
X38792440Y-24965000D01*
X40071837Y-24965000D01*
X40137191Y-25062809D01*
X40347235Y-25203157D01*
X40595000Y-25252440D01*
X42882283Y-25252440D01*
X42949843Y-25320000D01*
X42255750Y-25320000D01*
X42097000Y-25478750D01*
X42097000Y-26303000D01*
X43821250Y-26303000D01*
X43877046Y-26247204D01*
X44068560Y-26438718D01*
X44068560Y-27295000D01*
X44117843Y-27542765D01*
X44258191Y-27752809D01*
X44468235Y-27893157D01*
X44716000Y-27942440D01*
X46216000Y-27942440D01*
X46463765Y-27893157D01*
X46673809Y-27752809D01*
X46714654Y-27691680D01*
X46856302Y-27833327D01*
X47089691Y-27930000D01*
X47680250Y-27930000D01*
X47839000Y-27771250D01*
X47839000Y-26797000D01*
X48093000Y-26797000D01*
X48093000Y-27771250D01*
X48251750Y-27930000D01*
X48842309Y-27930000D01*
X49075698Y-27833327D01*
X49254327Y-27654699D01*
X49351000Y-27421310D01*
X49351000Y-26955750D01*
X49192250Y-26797000D01*
X48093000Y-26797000D01*
X47839000Y-26797000D01*
X47819000Y-26797000D01*
X47819000Y-26543000D01*
X47839000Y-26543000D01*
X47839000Y-25568750D01*
X48093000Y-25568750D01*
X48093000Y-26543000D01*
X49192250Y-26543000D01*
X49351000Y-26384250D01*
X49351000Y-25918690D01*
X49254327Y-25685301D01*
X49075698Y-25506673D01*
X48842309Y-25410000D01*
X48251750Y-25410000D01*
X48093000Y-25568750D01*
X47839000Y-25568750D01*
X47680250Y-25410000D01*
X47089691Y-25410000D01*
X46856302Y-25506673D01*
X46714654Y-25648320D01*
X46673809Y-25587191D01*
X46463765Y-25446843D01*
X46217223Y-25397803D01*
X46375327Y-25239698D01*
X46472000Y-25006309D01*
X46472000Y-24415750D01*
X46313250Y-24257000D01*
X45339000Y-24257000D01*
X45339000Y-24277000D01*
X45085000Y-24277000D01*
X45085000Y-24257000D01*
X45065000Y-24257000D01*
X45065000Y-24003000D01*
X45085000Y-24003000D01*
X45085000Y-23983000D01*
X45339000Y-23983000D01*
X45339000Y-24003000D01*
X46313250Y-24003000D01*
X46472000Y-23844250D01*
X46472000Y-23253691D01*
X46375327Y-23020302D01*
X46233680Y-22878654D01*
X46294809Y-22837809D01*
X46435157Y-22627765D01*
X46484440Y-22380000D01*
X46484440Y-20880000D01*
X46463753Y-20776000D01*
X99874000Y-20776000D01*
X99874001Y-28886070D01*
G36*
X34747560Y-25755000D02*
X34796843Y-26002765D01*
X34937191Y-26212809D01*
X35147235Y-26353157D01*
X35395000Y-26402440D01*
X35662691Y-26402440D01*
X34198133Y-27867000D01*
X33385544Y-27867000D01*
X33453183Y-27805358D01*
X33699486Y-27280892D01*
X33578819Y-27051000D01*
X32385000Y-27051000D01*
X32385000Y-27071000D01*
X32131000Y-27071000D01*
X32131000Y-27051000D01*
X32111000Y-27051000D01*
X32111000Y-26797000D01*
X32131000Y-26797000D01*
X32131000Y-25603845D01*
X32385000Y-25603845D01*
X32385000Y-26797000D01*
X33578819Y-26797000D01*
X33699486Y-26567108D01*
X33453183Y-26042642D01*
X33024924Y-25652355D01*
X32614890Y-25482524D01*
X32385000Y-25603845D01*
X32131000Y-25603845D01*
X31901110Y-25482524D01*
X31491076Y-25652355D01*
X31186739Y-25929708D01*
X31166157Y-25826235D01*
X31025809Y-25616191D01*
X30984367Y-25588500D01*
X31099868Y-25473000D01*
X31667767Y-25473000D01*
X31750000Y-25489357D01*
X31832233Y-25473000D01*
X31832237Y-25473000D01*
X32075801Y-25424552D01*
X32352001Y-25240001D01*
X32398587Y-25170280D01*
X34747560Y-22821308D01*
X34747560Y-25755000D01*
X34747560Y-25755000D01*
G37*
X34747560Y-25755000D02*
X34796843Y-26002765D01*
X34937191Y-26212809D01*
X35147235Y-26353157D01*
X35395000Y-26402440D01*
X35662691Y-26402440D01*
X34198133Y-27867000D01*
X33385544Y-27867000D01*
X33453183Y-27805358D01*
X33699486Y-27280892D01*
X33578819Y-27051000D01*
X32385000Y-27051000D01*
X32385000Y-27071000D01*
X32131000Y-27071000D01*
X32131000Y-27051000D01*
X32111000Y-27051000D01*
X32111000Y-26797000D01*
X32131000Y-26797000D01*
X32131000Y-25603845D01*
X32385000Y-25603845D01*
X32385000Y-26797000D01*
X33578819Y-26797000D01*
X33699486Y-26567108D01*
X33453183Y-26042642D01*
X33024924Y-25652355D01*
X32614890Y-25482524D01*
X32385000Y-25603845D01*
X32131000Y-25603845D01*
X31901110Y-25482524D01*
X31491076Y-25652355D01*
X31186739Y-25929708D01*
X31166157Y-25826235D01*
X31025809Y-25616191D01*
X30984367Y-25588500D01*
X31099868Y-25473000D01*
X31667767Y-25473000D01*
X31750000Y-25489357D01*
X31832233Y-25473000D01*
X31832237Y-25473000D01*
X32075801Y-25424552D01*
X32352001Y-25240001D01*
X32398587Y-25170280D01*
X34747560Y-22821308D01*
X34747560Y-25755000D01*
G04 #@! TD*
M02*
