G04 #@! TF.GenerationSoftware,KiCad,Pcbnew,(5.0.2)-1*
G04 #@! TF.CreationDate,2019-02-13T01:18:52+00:00*
G04 #@! TF.ProjectId,TeensyBikeShield,5465656e-7379-4426-996b-65536869656c,rev?*
G04 #@! TF.SameCoordinates,Original*
G04 #@! TF.FileFunction,Copper,L2,Bot*
G04 #@! TF.FilePolarity,Positive*
%FSLAX46Y46*%
G04 Gerber Fmt 4.6, Leading zero omitted, Abs format (unit mm)*
G04 Created by KiCad (PCBNEW (5.0.2)-1) date 13/02/2019 01:18:52*
%MOMM*%
%LPD*%
G01*
G04 APERTURE LIST*
G04 #@! TA.AperFunction,ComponentPad*
%ADD10R,1.700000X1.700000*%
G04 #@! TD*
G04 #@! TA.AperFunction,ComponentPad*
%ADD11O,1.700000X1.700000*%
G04 #@! TD*
G04 #@! TA.AperFunction,ComponentPad*
%ADD12C,1.600000*%
G04 #@! TD*
G04 #@! TA.AperFunction,ComponentPad*
%ADD13R,1.600000X1.600000*%
G04 #@! TD*
G04 #@! TA.AperFunction,ViaPad*
%ADD14C,0.800000*%
G04 #@! TD*
G04 #@! TA.AperFunction,Conductor*
%ADD15C,0.400000*%
G04 #@! TD*
G04 #@! TA.AperFunction,Conductor*
%ADD16C,0.300000*%
G04 #@! TD*
G04 #@! TA.AperFunction,Conductor*
%ADD17C,0.254000*%
G04 #@! TD*
G04 APERTURE END LIST*
D10*
G04 #@! TO.P,ANALOG,1*
G04 #@! TO.N,/A0*
X59690000Y-22352000D03*
D11*
G04 #@! TO.P,ANALOG,2*
G04 #@! TO.N,/A1*
X57150000Y-22352000D03*
G04 #@! TO.P,ANALOG,3*
G04 #@! TO.N,/A2*
X54610000Y-22352000D03*
G04 #@! TO.P,ANALOG,4*
G04 #@! TO.N,/A3*
X52070000Y-22352000D03*
G04 #@! TD*
G04 #@! TO.P,DIGITAL,4*
G04 #@! TO.N,/D4*
X44450000Y-53848000D03*
G04 #@! TO.P,DIGITAL,3*
G04 #@! TO.N,/D3*
X41910000Y-53848000D03*
G04 #@! TO.P,DIGITAL,2*
G04 #@! TO.N,/D2*
X39370000Y-53848000D03*
D10*
G04 #@! TO.P,DIGITAL,1*
G04 #@! TO.N,/D1*
X36830000Y-53848000D03*
G04 #@! TD*
D11*
G04 #@! TO.P,I2C,3*
G04 #@! TO.N,GND*
X72644000Y-22352000D03*
G04 #@! TO.P,I2C,2*
G04 #@! TO.N,/I2C_SCL*
X70104000Y-22352000D03*
D10*
G04 #@! TO.P,I2C,1*
G04 #@! TO.N,/I2C_SDA*
X67564000Y-22352000D03*
G04 #@! TD*
D11*
G04 #@! TO.P,Vin,2*
G04 #@! TO.N,GND*
X32258000Y-26924000D03*
D10*
G04 #@! TO.P,Vin,1*
G04 #@! TO.N,VCC*
X29718000Y-26924000D03*
G04 #@! TD*
D12*
G04 #@! TO.P,,17*
G04 #@! TO.N,Net-(D2-Pad2)*
X69850000Y-45720000D03*
G04 #@! TO.P,,18*
G04 #@! TO.N,/IMU_RESET*
X72390000Y-45720000D03*
G04 #@! TO.P,,19*
G04 #@! TO.N,/IMU_INT*
X74930000Y-45720000D03*
G04 #@! TO.P,,20*
G04 #@! TO.N,N/C*
X77470000Y-45720000D03*
G04 #@! TO.P,,16*
G04 #@! TO.N,Net-(D1-Pad2)*
X67310000Y-45720000D03*
G04 #@! TO.P,,15*
G04 #@! TO.N,N/C*
X64770000Y-45720000D03*
G04 #@! TO.P,,14*
X62230000Y-45720000D03*
G04 #@! TO.P,,21*
X80010000Y-45720000D03*
G04 #@! TO.P,,22*
X82550000Y-45720000D03*
G04 #@! TO.P,,23*
X85090000Y-45720000D03*
G04 #@! TO.P,,24*
X87630000Y-45720000D03*
G04 #@! TO.P,,25*
X74930000Y-43180000D03*
G04 #@! TO.P,,26*
X74930000Y-40640000D03*
G04 #@! TO.P,,27*
G04 #@! TO.N,GND*
X74930000Y-38100000D03*
G04 #@! TO.P,,28*
G04 #@! TO.N,N/C*
X74930000Y-35560000D03*
G04 #@! TO.P,,29*
X74930000Y-33020000D03*
G04 #@! TO.P,,30*
X87630000Y-30480000D03*
G04 #@! TO.P,,31*
X85090000Y-30480000D03*
G04 #@! TO.P,,32*
X82550000Y-30480000D03*
G04 #@! TO.P,,33*
X80010000Y-30480000D03*
G04 #@! TO.P,,34*
X77470000Y-30480000D03*
G04 #@! TO.P,,35*
X74930000Y-30480000D03*
G04 #@! TO.P,,36*
X72390000Y-30480000D03*
G04 #@! TO.P,,37*
X69850000Y-30480000D03*
G04 #@! TO.P,,13*
X59690000Y-45720000D03*
G04 #@! TO.P,,12*
G04 #@! TO.N,/UART2_TX*
X57150000Y-45720000D03*
G04 #@! TO.P,,11*
G04 #@! TO.N,/UART2_RX*
X54610000Y-45720000D03*
G04 #@! TO.P,,10*
G04 #@! TO.N,/UART3_TX*
X52070000Y-45720000D03*
G04 #@! TO.P,,9*
G04 #@! TO.N,/UART3_RX*
X49530000Y-45720000D03*
G04 #@! TO.P,,8*
G04 #@! TO.N,N/C*
X46990000Y-45720000D03*
G04 #@! TO.P,,7*
G04 #@! TO.N,/D4*
X44450000Y-45720000D03*
G04 #@! TO.P,,6*
G04 #@! TO.N,/D3*
X41910000Y-45720000D03*
G04 #@! TO.P,,5*
G04 #@! TO.N,/D2*
X39370000Y-45720000D03*
G04 #@! TO.P,,4*
G04 #@! TO.N,/D1*
X36830000Y-45720000D03*
G04 #@! TO.P,,3*
G04 #@! TO.N,/UART1_TX*
X34290000Y-45720000D03*
G04 #@! TO.P,,2*
G04 #@! TO.N,/UART1_RX*
X31750000Y-45720000D03*
D13*
G04 #@! TO.P,,1*
G04 #@! TO.N,GND*
X29210000Y-45720000D03*
D12*
G04 #@! TO.P,,38*
G04 #@! TO.N,N/C*
X67310000Y-30480000D03*
G04 #@! TO.P,,39*
G04 #@! TO.N,GND*
X64770000Y-30480000D03*
G04 #@! TO.P,,40*
G04 #@! TO.N,N/C*
X62230000Y-30480000D03*
G04 #@! TO.P,,41*
G04 #@! TO.N,/A0*
X59690000Y-30480000D03*
G04 #@! TO.P,,42*
G04 #@! TO.N,/A1*
X57150000Y-30480000D03*
G04 #@! TO.P,,43*
G04 #@! TO.N,/A2*
X54610000Y-30480000D03*
G04 #@! TO.P,,44*
G04 #@! TO.N,/A3*
X52070000Y-30480000D03*
G04 #@! TO.P,,45*
G04 #@! TO.N,/I2C_SDA*
X49530000Y-30480000D03*
G04 #@! TO.P,,46*
G04 #@! TO.N,/I2C_SCL*
X46990000Y-30480000D03*
G04 #@! TO.P,,47*
G04 #@! TO.N,N/C*
X44450000Y-30480000D03*
G04 #@! TO.P,,48*
X41910000Y-30480000D03*
G04 #@! TO.P,,49*
X39370000Y-30480000D03*
G04 #@! TO.P,,50*
X36830000Y-30480000D03*
G04 #@! TO.P,,51*
G04 #@! TO.N,+3V3*
X34290000Y-30480000D03*
G04 #@! TO.P,,52*
G04 #@! TO.N,GND*
X31750000Y-30480000D03*
G04 #@! TO.P,,53*
G04 #@! TO.N,+5V*
X29210000Y-30480000D03*
G04 #@! TO.P,,54*
G04 #@! TO.N,N/C*
X31750000Y-33020000D03*
G04 #@! TO.P,,55*
X36830000Y-33020000D03*
G04 #@! TO.P,,56*
X39370000Y-33020000D03*
G04 #@! TO.P,,57*
X41910000Y-33020000D03*
G04 #@! TO.P,,63*
X44450000Y-38100000D03*
G04 #@! TO.P,,64*
X46990000Y-38100000D03*
G04 #@! TO.P,,65*
X49530000Y-38100000D03*
G04 #@! TO.P,,66*
X52070000Y-38100000D03*
G04 #@! TO.P,,67*
X67310000Y-38100000D03*
G04 #@! TO.P,,68*
X69850000Y-38100000D03*
G04 #@! TO.P,,69*
X72390000Y-38100000D03*
G04 #@! TO.P,,70*
X77470000Y-38100000D03*
G04 #@! TO.P,,71*
X80010000Y-38100000D03*
G04 #@! TO.P,,72*
X82550000Y-38100000D03*
G04 #@! TO.P,,73*
X85090000Y-38100000D03*
G04 #@! TO.P,,74*
G04 #@! TO.N,GND*
X87630000Y-38100000D03*
G04 #@! TO.P,,75*
G04 #@! TO.N,N/C*
X87630000Y-35560000D03*
G04 #@! TO.P,,76*
X85090000Y-35560000D03*
G04 #@! TO.P,,77*
X82550000Y-35560000D03*
G04 #@! TO.P,,78*
X80010000Y-35560000D03*
G04 #@! TO.P,,79*
X77470000Y-35560000D03*
G04 #@! TO.P,,80*
X72390000Y-35560000D03*
G04 #@! TO.P,,81*
X69850000Y-35560000D03*
G04 #@! TO.P,,82*
X67310000Y-35560000D03*
G04 #@! TO.P,,83*
X52070000Y-35560000D03*
G04 #@! TO.P,,84*
X49530000Y-35560000D03*
G04 #@! TO.P,,85*
X46990000Y-35560000D03*
G04 #@! TO.P,,86*
X44450000Y-35560000D03*
G04 #@! TO.P,,58*
X35560000Y-42720000D03*
G04 #@! TO.P,,59*
X38100000Y-42720000D03*
G04 #@! TO.P,,60*
X40640000Y-42720000D03*
G04 #@! TO.P,,61*
G04 #@! TO.N,GND*
X43180000Y-42720000D03*
G04 #@! TO.P,,62*
X45720000Y-42720000D03*
G04 #@! TD*
D10*
G04 #@! TO.P,UART1,1*
G04 #@! TO.N,/UART1_RX*
X50546000Y-49784000D03*
D11*
G04 #@! TO.P,UART1,2*
G04 #@! TO.N,/UART1_TX*
X53086000Y-49784000D03*
G04 #@! TO.P,UART1,3*
G04 #@! TO.N,GND*
X55626000Y-49784000D03*
G04 #@! TD*
G04 #@! TO.P,UART2,3*
G04 #@! TO.N,GND*
X55626000Y-53848000D03*
G04 #@! TO.P,UART2,2*
G04 #@! TO.N,/UART2_TX*
X53086000Y-53848000D03*
D10*
G04 #@! TO.P,UART2,1*
G04 #@! TO.N,/UART2_RX*
X50546000Y-53848000D03*
G04 #@! TD*
G04 #@! TO.P,UART3,1*
G04 #@! TO.N,/UART3_RX*
X61214000Y-51816000D03*
D11*
G04 #@! TO.P,UART3,2*
G04 #@! TO.N,/UART3_TX*
X63754000Y-51816000D03*
G04 #@! TO.P,UART3,3*
G04 #@! TO.N,GND*
X66294000Y-51816000D03*
G04 #@! TD*
D10*
G04 #@! TO.P,,1*
G04 #@! TO.N,+3V3*
X82042000Y-24892000D03*
D11*
G04 #@! TO.P,,2*
G04 #@! TO.N,GND*
X82042000Y-22352000D03*
G04 #@! TO.P,,3*
G04 #@! TO.N,+3V3*
X84582000Y-24892000D03*
G04 #@! TO.P,,4*
G04 #@! TO.N,GND*
X84582000Y-22352000D03*
G04 #@! TO.P,,5*
G04 #@! TO.N,+3V3*
X87122000Y-24892000D03*
G04 #@! TO.P,,6*
G04 #@! TO.N,GND*
X87122000Y-22352000D03*
G04 #@! TD*
D14*
G04 #@! TO.N,+3V3*
X93599000Y-45339000D03*
G04 #@! TO.N,/IMU_INT*
X97790000Y-34798000D03*
G04 #@! TO.N,/I2C_SDA*
X89916000Y-30988000D03*
G04 #@! TO.N,/I2C_SCL*
X91186000Y-30988000D03*
G04 #@! TO.N,/IMU_RESET*
X99237800Y-48818800D03*
G04 #@! TO.N,GND*
X95605600Y-38176200D03*
X96774000Y-44196000D03*
X98044000Y-33655000D03*
G04 #@! TD*
D15*
G04 #@! TO.N,GND*
X96774000Y-39344600D02*
X96774000Y-44196000D01*
X95605600Y-38176200D02*
X96774000Y-39344600D01*
G04 #@! TO.N,+3V3*
X93998999Y-45738999D02*
X97644001Y-45738999D01*
X93599000Y-45339000D02*
X93998999Y-45738999D01*
X97644001Y-45738999D02*
X99187000Y-44196000D01*
X99187000Y-44196000D02*
X99187000Y-31369000D01*
X92710000Y-24892000D02*
X87122000Y-24892000D01*
X99187000Y-31369000D02*
X92710000Y-24892000D01*
G04 #@! TO.N,/I2C_SCL*
X70104000Y-21149919D02*
X70104000Y-22352000D01*
X69528081Y-20574000D02*
X70104000Y-21149919D01*
X65532000Y-20574000D02*
X69528081Y-20574000D01*
X59944000Y-26162000D02*
X65532000Y-20574000D01*
X51308000Y-26162000D02*
X59944000Y-26162000D01*
X46990000Y-30480000D02*
X51308000Y-26162000D01*
X91186000Y-30422315D02*
X88576685Y-27813000D01*
X91186000Y-30988000D02*
X91186000Y-30422315D01*
X75565000Y-27813000D02*
X70104000Y-22352000D01*
X88576685Y-27813000D02*
X75565000Y-27813000D01*
G04 #@! TO.N,/I2C_SDA*
X49530000Y-30480000D02*
X52832000Y-27178000D01*
X66314000Y-22352000D02*
X67564000Y-22352000D01*
X61488000Y-27178000D02*
X66314000Y-22352000D01*
X52832000Y-27178000D02*
X61488000Y-27178000D01*
X89916000Y-30422315D02*
X88449685Y-28956000D01*
X89916000Y-30988000D02*
X89916000Y-30422315D01*
X67564000Y-23602000D02*
X67564000Y-22352000D01*
X72918000Y-28956000D02*
X67564000Y-23602000D01*
X88449685Y-28956000D02*
X72918000Y-28956000D01*
G04 #@! TO.N,/IMU_RESET*
X98672115Y-48818800D02*
X99237800Y-48818800D01*
X74357430Y-48818800D02*
X98672115Y-48818800D01*
X72390000Y-46851370D02*
X74357430Y-48818800D01*
X72390000Y-45720000D02*
X72390000Y-46851370D01*
G04 #@! TO.N,/IMU_INT*
X97224315Y-34798000D02*
X88969315Y-43053000D01*
X97790000Y-34798000D02*
X97224315Y-34798000D01*
X77597000Y-43053000D02*
X74930000Y-45720000D01*
X88969315Y-43053000D02*
X77597000Y-43053000D01*
D16*
G04 #@! TO.N,/UART3_TX*
X52070000Y-45720000D02*
X53848000Y-47498000D01*
X59436000Y-47498000D02*
X63754000Y-51816000D01*
X53848000Y-47498000D02*
X59436000Y-47498000D01*
G04 #@! TO.N,/UART3_RX*
X49530000Y-45720000D02*
X51435000Y-47625000D01*
X51435000Y-47625000D02*
X52197000Y-47625000D01*
X52197000Y-47625000D02*
X52832000Y-48260000D01*
X52832000Y-48260000D02*
X56261000Y-48260000D01*
X59817000Y-51816000D02*
X61214000Y-51816000D01*
X56261000Y-48260000D02*
X59817000Y-51816000D01*
G04 #@! TO.N,/UART1_TX*
X34290000Y-45720000D02*
X36830000Y-48260000D01*
X51562000Y-48260000D02*
X53086000Y-49784000D01*
X36830000Y-48260000D02*
X51562000Y-48260000D01*
G04 #@! TO.N,/UART1_RX*
X35814000Y-49784000D02*
X50546000Y-49784000D01*
X31750000Y-45720000D02*
X35814000Y-49784000D01*
G04 #@! TD*
D17*
G04 #@! TO.N,GND*
G36*
X59598133Y-25327000D02*
X51390232Y-25327000D01*
X51307999Y-25310643D01*
X51225766Y-25327000D01*
X51225763Y-25327000D01*
X50982199Y-25375448D01*
X50705999Y-25559999D01*
X50659415Y-25629717D01*
X47244133Y-29045000D01*
X46704561Y-29045000D01*
X46177138Y-29263466D01*
X45773466Y-29667138D01*
X45720000Y-29796216D01*
X45666534Y-29667138D01*
X45262862Y-29263466D01*
X44735439Y-29045000D01*
X44164561Y-29045000D01*
X43637138Y-29263466D01*
X43233466Y-29667138D01*
X43180000Y-29796216D01*
X43126534Y-29667138D01*
X42722862Y-29263466D01*
X42195439Y-29045000D01*
X41624561Y-29045000D01*
X41097138Y-29263466D01*
X40693466Y-29667138D01*
X40640000Y-29796216D01*
X40586534Y-29667138D01*
X40182862Y-29263466D01*
X39655439Y-29045000D01*
X39084561Y-29045000D01*
X38557138Y-29263466D01*
X38153466Y-29667138D01*
X38100000Y-29796216D01*
X38046534Y-29667138D01*
X37642862Y-29263466D01*
X37115439Y-29045000D01*
X36544561Y-29045000D01*
X36017138Y-29263466D01*
X35613466Y-29667138D01*
X35560000Y-29796216D01*
X35506534Y-29667138D01*
X35102862Y-29263466D01*
X34575439Y-29045000D01*
X34004561Y-29045000D01*
X33477138Y-29263466D01*
X33073466Y-29667138D01*
X33026475Y-29780583D01*
X33003864Y-29725995D01*
X32757745Y-29651861D01*
X31929605Y-30480000D01*
X32757745Y-31308139D01*
X33003864Y-31234005D01*
X33024874Y-31175552D01*
X33073466Y-31292862D01*
X33477138Y-31696534D01*
X34004561Y-31915000D01*
X34575439Y-31915000D01*
X35102862Y-31696534D01*
X35506534Y-31292862D01*
X35560000Y-31163784D01*
X35613466Y-31292862D01*
X36017138Y-31696534D01*
X36146216Y-31750000D01*
X36017138Y-31803466D01*
X35613466Y-32207138D01*
X35395000Y-32734561D01*
X35395000Y-33305439D01*
X35613466Y-33832862D01*
X36017138Y-34236534D01*
X36544561Y-34455000D01*
X37115439Y-34455000D01*
X37642862Y-34236534D01*
X38046534Y-33832862D01*
X38100000Y-33703784D01*
X38153466Y-33832862D01*
X38557138Y-34236534D01*
X39084561Y-34455000D01*
X39655439Y-34455000D01*
X40182862Y-34236534D01*
X40586534Y-33832862D01*
X40640000Y-33703784D01*
X40693466Y-33832862D01*
X41097138Y-34236534D01*
X41624561Y-34455000D01*
X42195439Y-34455000D01*
X42722862Y-34236534D01*
X43126534Y-33832862D01*
X43345000Y-33305439D01*
X43345000Y-32734561D01*
X43126534Y-32207138D01*
X42722862Y-31803466D01*
X42593784Y-31750000D01*
X42722862Y-31696534D01*
X43126534Y-31292862D01*
X43180000Y-31163784D01*
X43233466Y-31292862D01*
X43637138Y-31696534D01*
X44164561Y-31915000D01*
X44735439Y-31915000D01*
X45262862Y-31696534D01*
X45666534Y-31292862D01*
X45720000Y-31163784D01*
X45773466Y-31292862D01*
X46177138Y-31696534D01*
X46704561Y-31915000D01*
X47275439Y-31915000D01*
X47802862Y-31696534D01*
X48206534Y-31292862D01*
X48260000Y-31163784D01*
X48313466Y-31292862D01*
X48717138Y-31696534D01*
X49244561Y-31915000D01*
X49815439Y-31915000D01*
X50342862Y-31696534D01*
X50746534Y-31292862D01*
X50800000Y-31163784D01*
X50853466Y-31292862D01*
X51257138Y-31696534D01*
X51784561Y-31915000D01*
X52355439Y-31915000D01*
X52882862Y-31696534D01*
X53286534Y-31292862D01*
X53340000Y-31163784D01*
X53393466Y-31292862D01*
X53797138Y-31696534D01*
X54324561Y-31915000D01*
X54895439Y-31915000D01*
X55422862Y-31696534D01*
X55826534Y-31292862D01*
X55880000Y-31163784D01*
X55933466Y-31292862D01*
X56337138Y-31696534D01*
X56864561Y-31915000D01*
X57435439Y-31915000D01*
X57962862Y-31696534D01*
X58366534Y-31292862D01*
X58420000Y-31163784D01*
X58473466Y-31292862D01*
X58877138Y-31696534D01*
X59404561Y-31915000D01*
X59975439Y-31915000D01*
X60502862Y-31696534D01*
X60906534Y-31292862D01*
X60960000Y-31163784D01*
X61013466Y-31292862D01*
X61417138Y-31696534D01*
X61944561Y-31915000D01*
X62515439Y-31915000D01*
X63042862Y-31696534D01*
X63251651Y-31487745D01*
X63941861Y-31487745D01*
X64015995Y-31733864D01*
X64553223Y-31926965D01*
X65123454Y-31899778D01*
X65524005Y-31733864D01*
X65598139Y-31487745D01*
X64770000Y-30659605D01*
X63941861Y-31487745D01*
X63251651Y-31487745D01*
X63446534Y-31292862D01*
X63493525Y-31179417D01*
X63516136Y-31234005D01*
X63762255Y-31308139D01*
X64590395Y-30480000D01*
X63762255Y-29651861D01*
X63516136Y-29725995D01*
X63495126Y-29784448D01*
X63446534Y-29667138D01*
X63251651Y-29472255D01*
X63941861Y-29472255D01*
X64770000Y-30300395D01*
X65598139Y-29472255D01*
X65524005Y-29226136D01*
X64986777Y-29033035D01*
X64416546Y-29060222D01*
X64015995Y-29226136D01*
X63941861Y-29472255D01*
X63251651Y-29472255D01*
X63042862Y-29263466D01*
X62515439Y-29045000D01*
X61944561Y-29045000D01*
X61417138Y-29263466D01*
X61013466Y-29667138D01*
X60960000Y-29796216D01*
X60906534Y-29667138D01*
X60502862Y-29263466D01*
X59975439Y-29045000D01*
X59404561Y-29045000D01*
X58877138Y-29263466D01*
X58473466Y-29667138D01*
X58420000Y-29796216D01*
X58366534Y-29667138D01*
X57962862Y-29263466D01*
X57435439Y-29045000D01*
X56864561Y-29045000D01*
X56337138Y-29263466D01*
X55933466Y-29667138D01*
X55880000Y-29796216D01*
X55826534Y-29667138D01*
X55422862Y-29263466D01*
X54895439Y-29045000D01*
X54324561Y-29045000D01*
X53797138Y-29263466D01*
X53393466Y-29667138D01*
X53340000Y-29796216D01*
X53286534Y-29667138D01*
X52882862Y-29263466D01*
X52355439Y-29045000D01*
X52145868Y-29045000D01*
X53177868Y-28013000D01*
X61405767Y-28013000D01*
X61488000Y-28029357D01*
X61570233Y-28013000D01*
X61570237Y-28013000D01*
X61813801Y-27964552D01*
X62090001Y-27780001D01*
X62136587Y-27710280D01*
X66228500Y-23618367D01*
X66256191Y-23659809D01*
X66466235Y-23800157D01*
X66714000Y-23849440D01*
X66761861Y-23849440D01*
X66777448Y-23927800D01*
X66961999Y-24204001D01*
X67031720Y-24250587D01*
X71907681Y-29126550D01*
X71577138Y-29263466D01*
X71173466Y-29667138D01*
X71120000Y-29796216D01*
X71066534Y-29667138D01*
X70662862Y-29263466D01*
X70135439Y-29045000D01*
X69564561Y-29045000D01*
X69037138Y-29263466D01*
X68633466Y-29667138D01*
X68580000Y-29796216D01*
X68526534Y-29667138D01*
X68122862Y-29263466D01*
X67595439Y-29045000D01*
X67024561Y-29045000D01*
X66497138Y-29263466D01*
X66093466Y-29667138D01*
X66046475Y-29780583D01*
X66023864Y-29725995D01*
X65777745Y-29651861D01*
X64949605Y-30480000D01*
X65777745Y-31308139D01*
X66023864Y-31234005D01*
X66044874Y-31175552D01*
X66093466Y-31292862D01*
X66497138Y-31696534D01*
X67024561Y-31915000D01*
X67595439Y-31915000D01*
X68122862Y-31696534D01*
X68526534Y-31292862D01*
X68580000Y-31163784D01*
X68633466Y-31292862D01*
X69037138Y-31696534D01*
X69564561Y-31915000D01*
X70135439Y-31915000D01*
X70662862Y-31696534D01*
X71066534Y-31292862D01*
X71120000Y-31163784D01*
X71173466Y-31292862D01*
X71577138Y-31696534D01*
X72104561Y-31915000D01*
X72675439Y-31915000D01*
X73202862Y-31696534D01*
X73606534Y-31292862D01*
X73660000Y-31163784D01*
X73713466Y-31292862D01*
X74117138Y-31696534D01*
X74246216Y-31750000D01*
X74117138Y-31803466D01*
X73713466Y-32207138D01*
X73495000Y-32734561D01*
X73495000Y-33305439D01*
X73713466Y-33832862D01*
X74117138Y-34236534D01*
X74246216Y-34290000D01*
X74117138Y-34343466D01*
X73713466Y-34747138D01*
X73660000Y-34876216D01*
X73606534Y-34747138D01*
X73202862Y-34343466D01*
X72675439Y-34125000D01*
X72104561Y-34125000D01*
X71577138Y-34343466D01*
X71173466Y-34747138D01*
X71120000Y-34876216D01*
X71066534Y-34747138D01*
X70662862Y-34343466D01*
X70135439Y-34125000D01*
X69564561Y-34125000D01*
X69037138Y-34343466D01*
X68633466Y-34747138D01*
X68580000Y-34876216D01*
X68526534Y-34747138D01*
X68122862Y-34343466D01*
X67595439Y-34125000D01*
X67024561Y-34125000D01*
X66497138Y-34343466D01*
X66093466Y-34747138D01*
X65875000Y-35274561D01*
X65875000Y-35845439D01*
X66093466Y-36372862D01*
X66497138Y-36776534D01*
X66626216Y-36830000D01*
X66497138Y-36883466D01*
X66093466Y-37287138D01*
X65875000Y-37814561D01*
X65875000Y-38385439D01*
X66093466Y-38912862D01*
X66497138Y-39316534D01*
X67024561Y-39535000D01*
X67595439Y-39535000D01*
X68122862Y-39316534D01*
X68526534Y-38912862D01*
X68580000Y-38783784D01*
X68633466Y-38912862D01*
X69037138Y-39316534D01*
X69564561Y-39535000D01*
X70135439Y-39535000D01*
X70662862Y-39316534D01*
X71066534Y-38912862D01*
X71120000Y-38783784D01*
X71173466Y-38912862D01*
X71577138Y-39316534D01*
X72104561Y-39535000D01*
X72675439Y-39535000D01*
X73202862Y-39316534D01*
X73606534Y-38912862D01*
X73653525Y-38799417D01*
X73676136Y-38854005D01*
X73922255Y-38928139D01*
X74750395Y-38100000D01*
X73922255Y-37271861D01*
X73676136Y-37345995D01*
X73655126Y-37404448D01*
X73606534Y-37287138D01*
X73202862Y-36883466D01*
X73073784Y-36830000D01*
X73202862Y-36776534D01*
X73606534Y-36372862D01*
X73660000Y-36243784D01*
X73713466Y-36372862D01*
X74117138Y-36776534D01*
X74230583Y-36823525D01*
X74175995Y-36846136D01*
X74101861Y-37092255D01*
X74930000Y-37920395D01*
X75758139Y-37092255D01*
X75684005Y-36846136D01*
X75625552Y-36825126D01*
X75742862Y-36776534D01*
X76146534Y-36372862D01*
X76200000Y-36243784D01*
X76253466Y-36372862D01*
X76657138Y-36776534D01*
X76786216Y-36830000D01*
X76657138Y-36883466D01*
X76253466Y-37287138D01*
X76206475Y-37400583D01*
X76183864Y-37345995D01*
X75937745Y-37271861D01*
X75109605Y-38100000D01*
X75937745Y-38928139D01*
X76183864Y-38854005D01*
X76204874Y-38795552D01*
X76253466Y-38912862D01*
X76657138Y-39316534D01*
X77184561Y-39535000D01*
X77755439Y-39535000D01*
X78282862Y-39316534D01*
X78686534Y-38912862D01*
X78740000Y-38783784D01*
X78793466Y-38912862D01*
X79197138Y-39316534D01*
X79724561Y-39535000D01*
X80295439Y-39535000D01*
X80822862Y-39316534D01*
X81226534Y-38912862D01*
X81280000Y-38783784D01*
X81333466Y-38912862D01*
X81737138Y-39316534D01*
X82264561Y-39535000D01*
X82835439Y-39535000D01*
X83362862Y-39316534D01*
X83766534Y-38912862D01*
X83820000Y-38783784D01*
X83873466Y-38912862D01*
X84277138Y-39316534D01*
X84804561Y-39535000D01*
X85375439Y-39535000D01*
X85902862Y-39316534D01*
X86111651Y-39107745D01*
X86801861Y-39107745D01*
X86875995Y-39353864D01*
X87413223Y-39546965D01*
X87983454Y-39519778D01*
X88384005Y-39353864D01*
X88458139Y-39107745D01*
X87630000Y-38279605D01*
X86801861Y-39107745D01*
X86111651Y-39107745D01*
X86306534Y-38912862D01*
X86353525Y-38799417D01*
X86376136Y-38854005D01*
X86622255Y-38928139D01*
X87450395Y-38100000D01*
X87809605Y-38100000D01*
X88637745Y-38928139D01*
X88883864Y-38854005D01*
X89076965Y-38316777D01*
X89049778Y-37746546D01*
X88883864Y-37345995D01*
X88637745Y-37271861D01*
X87809605Y-38100000D01*
X87450395Y-38100000D01*
X86622255Y-37271861D01*
X86376136Y-37345995D01*
X86355126Y-37404448D01*
X86306534Y-37287138D01*
X85902862Y-36883466D01*
X85773784Y-36830000D01*
X85902862Y-36776534D01*
X86306534Y-36372862D01*
X86360000Y-36243784D01*
X86413466Y-36372862D01*
X86817138Y-36776534D01*
X86930583Y-36823525D01*
X86875995Y-36846136D01*
X86801861Y-37092255D01*
X87630000Y-37920395D01*
X88458139Y-37092255D01*
X88384005Y-36846136D01*
X88325552Y-36825126D01*
X88442862Y-36776534D01*
X88846534Y-36372862D01*
X89065000Y-35845439D01*
X89065000Y-35274561D01*
X88846534Y-34747138D01*
X88442862Y-34343466D01*
X87915439Y-34125000D01*
X87344561Y-34125000D01*
X86817138Y-34343466D01*
X86413466Y-34747138D01*
X86360000Y-34876216D01*
X86306534Y-34747138D01*
X85902862Y-34343466D01*
X85375439Y-34125000D01*
X84804561Y-34125000D01*
X84277138Y-34343466D01*
X83873466Y-34747138D01*
X83820000Y-34876216D01*
X83766534Y-34747138D01*
X83362862Y-34343466D01*
X82835439Y-34125000D01*
X82264561Y-34125000D01*
X81737138Y-34343466D01*
X81333466Y-34747138D01*
X81280000Y-34876216D01*
X81226534Y-34747138D01*
X80822862Y-34343466D01*
X80295439Y-34125000D01*
X79724561Y-34125000D01*
X79197138Y-34343466D01*
X78793466Y-34747138D01*
X78740000Y-34876216D01*
X78686534Y-34747138D01*
X78282862Y-34343466D01*
X77755439Y-34125000D01*
X77184561Y-34125000D01*
X76657138Y-34343466D01*
X76253466Y-34747138D01*
X76200000Y-34876216D01*
X76146534Y-34747138D01*
X75742862Y-34343466D01*
X75613784Y-34290000D01*
X75742862Y-34236534D01*
X76146534Y-33832862D01*
X76365000Y-33305439D01*
X76365000Y-32734561D01*
X76146534Y-32207138D01*
X75742862Y-31803466D01*
X75613784Y-31750000D01*
X75742862Y-31696534D01*
X76146534Y-31292862D01*
X76200000Y-31163784D01*
X76253466Y-31292862D01*
X76657138Y-31696534D01*
X77184561Y-31915000D01*
X77755439Y-31915000D01*
X78282862Y-31696534D01*
X78686534Y-31292862D01*
X78740000Y-31163784D01*
X78793466Y-31292862D01*
X79197138Y-31696534D01*
X79724561Y-31915000D01*
X80295439Y-31915000D01*
X80822862Y-31696534D01*
X81226534Y-31292862D01*
X81280000Y-31163784D01*
X81333466Y-31292862D01*
X81737138Y-31696534D01*
X82264561Y-31915000D01*
X82835439Y-31915000D01*
X83362862Y-31696534D01*
X83766534Y-31292862D01*
X83820000Y-31163784D01*
X83873466Y-31292862D01*
X84277138Y-31696534D01*
X84804561Y-31915000D01*
X85375439Y-31915000D01*
X85902862Y-31696534D01*
X86306534Y-31292862D01*
X86360000Y-31163784D01*
X86413466Y-31292862D01*
X86817138Y-31696534D01*
X87344561Y-31915000D01*
X87915439Y-31915000D01*
X88442862Y-31696534D01*
X88846534Y-31292862D01*
X88884268Y-31201764D01*
X89038569Y-31574280D01*
X89329720Y-31865431D01*
X89710126Y-32023000D01*
X90121874Y-32023000D01*
X90502280Y-31865431D01*
X90551000Y-31816711D01*
X90599720Y-31865431D01*
X90980126Y-32023000D01*
X91391874Y-32023000D01*
X91772280Y-31865431D01*
X92063431Y-31574280D01*
X92221000Y-31193874D01*
X92221000Y-30782126D01*
X92063431Y-30401720D01*
X92025770Y-30364059D01*
X92021000Y-30340078D01*
X91972552Y-30096514D01*
X91788001Y-29820314D01*
X91718283Y-29773730D01*
X89225272Y-27280720D01*
X89178686Y-27210999D01*
X88902486Y-27026448D01*
X88658922Y-26978000D01*
X88658918Y-26978000D01*
X88576685Y-26961643D01*
X88494452Y-26978000D01*
X75910869Y-26978000D01*
X72769868Y-23837000D01*
X72771002Y-23837000D01*
X72771002Y-23672156D01*
X73000890Y-23793476D01*
X73410924Y-23623645D01*
X73839183Y-23233358D01*
X74085486Y-22708892D01*
X73964819Y-22479000D01*
X72771000Y-22479000D01*
X72771000Y-22499000D01*
X72517000Y-22499000D01*
X72517000Y-22479000D01*
X72497000Y-22479000D01*
X72497000Y-22225000D01*
X72517000Y-22225000D01*
X72517000Y-21031845D01*
X72771000Y-21031845D01*
X72771000Y-22225000D01*
X73964819Y-22225000D01*
X74085486Y-21995108D01*
X80600514Y-21995108D01*
X80721181Y-22225000D01*
X81915000Y-22225000D01*
X81915000Y-21031845D01*
X82169000Y-21031845D01*
X82169000Y-22225000D01*
X84455000Y-22225000D01*
X84455000Y-21031845D01*
X84709000Y-21031845D01*
X84709000Y-22225000D01*
X86995000Y-22225000D01*
X86995000Y-21031845D01*
X87249000Y-21031845D01*
X87249000Y-22225000D01*
X88442819Y-22225000D01*
X88563486Y-21995108D01*
X88317183Y-21470642D01*
X87888924Y-21080355D01*
X87478890Y-20910524D01*
X87249000Y-21031845D01*
X86995000Y-21031845D01*
X86765110Y-20910524D01*
X86355076Y-21080355D01*
X85926817Y-21470642D01*
X85852000Y-21629954D01*
X85777183Y-21470642D01*
X85348924Y-21080355D01*
X84938890Y-20910524D01*
X84709000Y-21031845D01*
X84455000Y-21031845D01*
X84225110Y-20910524D01*
X83815076Y-21080355D01*
X83386817Y-21470642D01*
X83312000Y-21629954D01*
X83237183Y-21470642D01*
X82808924Y-21080355D01*
X82398890Y-20910524D01*
X82169000Y-21031845D01*
X81915000Y-21031845D01*
X81685110Y-20910524D01*
X81275076Y-21080355D01*
X80846817Y-21470642D01*
X80600514Y-21995108D01*
X74085486Y-21995108D01*
X73839183Y-21470642D01*
X73410924Y-21080355D01*
X73000890Y-20910524D01*
X72771000Y-21031845D01*
X72517000Y-21031845D01*
X72287110Y-20910524D01*
X71877076Y-21080355D01*
X71448817Y-21470642D01*
X71387843Y-21600478D01*
X71174625Y-21281375D01*
X70951904Y-21132557D01*
X70939000Y-21067683D01*
X70939000Y-21067682D01*
X70890552Y-20824118D01*
X70858401Y-20776000D01*
X99874000Y-20776000D01*
X99874001Y-28886070D01*
X99874000Y-28886075D01*
X99874000Y-30894209D01*
X99789001Y-30766999D01*
X99719283Y-30720415D01*
X93358587Y-24359720D01*
X93312001Y-24289999D01*
X93035801Y-24105448D01*
X92792237Y-24057000D01*
X92792233Y-24057000D01*
X92710000Y-24040643D01*
X92627767Y-24057000D01*
X88350065Y-24057000D01*
X88192625Y-23821375D01*
X87892214Y-23620647D01*
X88317183Y-23233358D01*
X88563486Y-22708892D01*
X88461656Y-22514887D01*
X96055000Y-22514887D01*
X96055000Y-23205113D01*
X96319138Y-23842799D01*
X96807201Y-24330862D01*
X97444887Y-24595000D01*
X98135113Y-24595000D01*
X98772799Y-24330862D01*
X99260862Y-23842799D01*
X99525000Y-23205113D01*
X99525000Y-22514887D01*
X99260862Y-21877201D01*
X98772799Y-21389138D01*
X98135113Y-21125000D01*
X97444887Y-21125000D01*
X96807201Y-21389138D01*
X96319138Y-21877201D01*
X96055000Y-22514887D01*
X88461656Y-22514887D01*
X88442819Y-22479000D01*
X87249000Y-22479000D01*
X87249000Y-22499000D01*
X86995000Y-22499000D01*
X86995000Y-22479000D01*
X84709000Y-22479000D01*
X84709000Y-22499000D01*
X84455000Y-22499000D01*
X84455000Y-22479000D01*
X82169000Y-22479000D01*
X82169000Y-22499000D01*
X81915000Y-22499000D01*
X81915000Y-22479000D01*
X80721181Y-22479000D01*
X80600514Y-22708892D01*
X80846817Y-23233358D01*
X81053855Y-23422039D01*
X80944235Y-23443843D01*
X80734191Y-23584191D01*
X80593843Y-23794235D01*
X80544560Y-24042000D01*
X80544560Y-25742000D01*
X80593843Y-25989765D01*
X80734191Y-26199809D01*
X80944235Y-26340157D01*
X81192000Y-26389440D01*
X82892000Y-26389440D01*
X83139765Y-26340157D01*
X83349809Y-26199809D01*
X83490157Y-25989765D01*
X83499184Y-25944381D01*
X83511375Y-25962625D01*
X84002582Y-26290839D01*
X84435744Y-26377000D01*
X84728256Y-26377000D01*
X85161418Y-26290839D01*
X85652625Y-25962625D01*
X85852000Y-25664239D01*
X86051375Y-25962625D01*
X86542582Y-26290839D01*
X86975744Y-26377000D01*
X87268256Y-26377000D01*
X87701418Y-26290839D01*
X88192625Y-25962625D01*
X88350065Y-25727000D01*
X92364133Y-25727000D01*
X98352001Y-31714869D01*
X98352001Y-33910512D01*
X97995874Y-33763000D01*
X97584126Y-33763000D01*
X97203720Y-33920569D01*
X97166059Y-33958230D01*
X97142078Y-33963000D01*
X96898514Y-34011448D01*
X96622314Y-34195999D01*
X96575730Y-34265717D01*
X88623448Y-42218000D01*
X77679237Y-42218000D01*
X77597000Y-42201642D01*
X77514763Y-42218000D01*
X77271199Y-42266448D01*
X76994999Y-42450999D01*
X76948415Y-42520717D01*
X76365000Y-43104132D01*
X76365000Y-42894561D01*
X76146534Y-42367138D01*
X75742862Y-41963466D01*
X75613784Y-41910000D01*
X75742862Y-41856534D01*
X76146534Y-41452862D01*
X76365000Y-40925439D01*
X76365000Y-40354561D01*
X76146534Y-39827138D01*
X75742862Y-39423466D01*
X75629417Y-39376475D01*
X75684005Y-39353864D01*
X75758139Y-39107745D01*
X74930000Y-38279605D01*
X74101861Y-39107745D01*
X74175995Y-39353864D01*
X74234448Y-39374874D01*
X74117138Y-39423466D01*
X73713466Y-39827138D01*
X73495000Y-40354561D01*
X73495000Y-40925439D01*
X73713466Y-41452862D01*
X74117138Y-41856534D01*
X74246216Y-41910000D01*
X74117138Y-41963466D01*
X73713466Y-42367138D01*
X73495000Y-42894561D01*
X73495000Y-43465439D01*
X73713466Y-43992862D01*
X74117138Y-44396534D01*
X74246216Y-44450000D01*
X74117138Y-44503466D01*
X73713466Y-44907138D01*
X73660000Y-45036216D01*
X73606534Y-44907138D01*
X73202862Y-44503466D01*
X72675439Y-44285000D01*
X72104561Y-44285000D01*
X71577138Y-44503466D01*
X71173466Y-44907138D01*
X71120000Y-45036216D01*
X71066534Y-44907138D01*
X70662862Y-44503466D01*
X70135439Y-44285000D01*
X69564561Y-44285000D01*
X69037138Y-44503466D01*
X68633466Y-44907138D01*
X68580000Y-45036216D01*
X68526534Y-44907138D01*
X68122862Y-44503466D01*
X67595439Y-44285000D01*
X67024561Y-44285000D01*
X66497138Y-44503466D01*
X66093466Y-44907138D01*
X66040000Y-45036216D01*
X65986534Y-44907138D01*
X65582862Y-44503466D01*
X65055439Y-44285000D01*
X64484561Y-44285000D01*
X63957138Y-44503466D01*
X63553466Y-44907138D01*
X63500000Y-45036216D01*
X63446534Y-44907138D01*
X63042862Y-44503466D01*
X62515439Y-44285000D01*
X61944561Y-44285000D01*
X61417138Y-44503466D01*
X61013466Y-44907138D01*
X60960000Y-45036216D01*
X60906534Y-44907138D01*
X60502862Y-44503466D01*
X59975439Y-44285000D01*
X59404561Y-44285000D01*
X58877138Y-44503466D01*
X58473466Y-44907138D01*
X58420000Y-45036216D01*
X58366534Y-44907138D01*
X57962862Y-44503466D01*
X57435439Y-44285000D01*
X56864561Y-44285000D01*
X56337138Y-44503466D01*
X55933466Y-44907138D01*
X55880000Y-45036216D01*
X55826534Y-44907138D01*
X55422862Y-44503466D01*
X54895439Y-44285000D01*
X54324561Y-44285000D01*
X53797138Y-44503466D01*
X53393466Y-44907138D01*
X53340000Y-45036216D01*
X53286534Y-44907138D01*
X52882862Y-44503466D01*
X52355439Y-44285000D01*
X51784561Y-44285000D01*
X51257138Y-44503466D01*
X50853466Y-44907138D01*
X50800000Y-45036216D01*
X50746534Y-44907138D01*
X50342862Y-44503466D01*
X49815439Y-44285000D01*
X49244561Y-44285000D01*
X48717138Y-44503466D01*
X48313466Y-44907138D01*
X48260000Y-45036216D01*
X48206534Y-44907138D01*
X47802862Y-44503466D01*
X47275439Y-44285000D01*
X46704561Y-44285000D01*
X46177138Y-44503466D01*
X45773466Y-44907138D01*
X45720000Y-45036216D01*
X45666534Y-44907138D01*
X45262862Y-44503466D01*
X44735439Y-44285000D01*
X44164561Y-44285000D01*
X43637138Y-44503466D01*
X43233466Y-44907138D01*
X43180000Y-45036216D01*
X43126534Y-44907138D01*
X42722862Y-44503466D01*
X42195439Y-44285000D01*
X41624561Y-44285000D01*
X41097138Y-44503466D01*
X40693466Y-44907138D01*
X40640000Y-45036216D01*
X40586534Y-44907138D01*
X40182862Y-44503466D01*
X39655439Y-44285000D01*
X39084561Y-44285000D01*
X38557138Y-44503466D01*
X38153466Y-44907138D01*
X38100000Y-45036216D01*
X38046534Y-44907138D01*
X37642862Y-44503466D01*
X37115439Y-44285000D01*
X36544561Y-44285000D01*
X36017138Y-44503466D01*
X35613466Y-44907138D01*
X35560000Y-45036216D01*
X35506534Y-44907138D01*
X35102862Y-44503466D01*
X34575439Y-44285000D01*
X34004561Y-44285000D01*
X33477138Y-44503466D01*
X33073466Y-44907138D01*
X33020000Y-45036216D01*
X32966534Y-44907138D01*
X32562862Y-44503466D01*
X32035439Y-44285000D01*
X31464561Y-44285000D01*
X30937138Y-44503466D01*
X30645000Y-44795604D01*
X30645000Y-44793690D01*
X30548327Y-44560301D01*
X30369698Y-44381673D01*
X30136309Y-44285000D01*
X29495750Y-44285000D01*
X29337000Y-44443750D01*
X29337000Y-45593000D01*
X29357000Y-45593000D01*
X29357000Y-45847000D01*
X29337000Y-45847000D01*
X29337000Y-46996250D01*
X29495750Y-47155000D01*
X30136309Y-47155000D01*
X30369698Y-47058327D01*
X30548327Y-46879699D01*
X30645000Y-46646310D01*
X30645000Y-46644396D01*
X30937138Y-46936534D01*
X31464561Y-47155000D01*
X32035439Y-47155000D01*
X32063302Y-47143459D01*
X35204253Y-50284411D01*
X35248047Y-50349953D01*
X35313589Y-50393747D01*
X35313591Y-50393749D01*
X35466388Y-50495845D01*
X35507708Y-50523454D01*
X35736684Y-50569000D01*
X35736688Y-50569000D01*
X35814000Y-50584378D01*
X35891312Y-50569000D01*
X49048560Y-50569000D01*
X49048560Y-50634000D01*
X49097843Y-50881765D01*
X49238191Y-51091809D01*
X49448235Y-51232157D01*
X49696000Y-51281440D01*
X51396000Y-51281440D01*
X51643765Y-51232157D01*
X51853809Y-51091809D01*
X51994157Y-50881765D01*
X52003184Y-50836381D01*
X52015375Y-50854625D01*
X52506582Y-51182839D01*
X52939744Y-51269000D01*
X53232256Y-51269000D01*
X53665418Y-51182839D01*
X54156625Y-50854625D01*
X54369843Y-50535522D01*
X54430817Y-50665358D01*
X54859076Y-51055645D01*
X55269110Y-51225476D01*
X55499000Y-51104155D01*
X55499000Y-49911000D01*
X55479000Y-49911000D01*
X55479000Y-49657000D01*
X55499000Y-49657000D01*
X55499000Y-49637000D01*
X55753000Y-49637000D01*
X55753000Y-49657000D01*
X55773000Y-49657000D01*
X55773000Y-49911000D01*
X55753000Y-49911000D01*
X55753000Y-51104155D01*
X55982890Y-51225476D01*
X56392924Y-51055645D01*
X56821183Y-50665358D01*
X57056061Y-50165219D01*
X59207253Y-52316411D01*
X59251047Y-52381953D01*
X59316589Y-52425747D01*
X59316591Y-52425749D01*
X59351630Y-52449161D01*
X59510708Y-52555454D01*
X59716560Y-52596400D01*
X59716560Y-52666000D01*
X59765843Y-52913765D01*
X59906191Y-53123809D01*
X60116235Y-53264157D01*
X60364000Y-53313440D01*
X62064000Y-53313440D01*
X62311765Y-53264157D01*
X62521809Y-53123809D01*
X62662157Y-52913765D01*
X62671184Y-52868381D01*
X62683375Y-52886625D01*
X63174582Y-53214839D01*
X63607744Y-53301000D01*
X63900256Y-53301000D01*
X64333418Y-53214839D01*
X64824625Y-52886625D01*
X65037843Y-52567522D01*
X65098817Y-52697358D01*
X65527076Y-53087645D01*
X65937110Y-53257476D01*
X66167000Y-53136155D01*
X66167000Y-51943000D01*
X66421000Y-51943000D01*
X66421000Y-53136155D01*
X66650890Y-53257476D01*
X67060924Y-53087645D01*
X67162706Y-52994887D01*
X96055000Y-52994887D01*
X96055000Y-53685113D01*
X96319138Y-54322799D01*
X96807201Y-54810862D01*
X97444887Y-55075000D01*
X98135113Y-55075000D01*
X98772799Y-54810862D01*
X99260862Y-54322799D01*
X99525000Y-53685113D01*
X99525000Y-52994887D01*
X99260862Y-52357201D01*
X98772799Y-51869138D01*
X98135113Y-51605000D01*
X97444887Y-51605000D01*
X96807201Y-51869138D01*
X96319138Y-52357201D01*
X96055000Y-52994887D01*
X67162706Y-52994887D01*
X67489183Y-52697358D01*
X67735486Y-52172892D01*
X67614819Y-51943000D01*
X66421000Y-51943000D01*
X66167000Y-51943000D01*
X66147000Y-51943000D01*
X66147000Y-51689000D01*
X66167000Y-51689000D01*
X66167000Y-50495845D01*
X66421000Y-50495845D01*
X66421000Y-51689000D01*
X67614819Y-51689000D01*
X67735486Y-51459108D01*
X67489183Y-50934642D01*
X67060924Y-50544355D01*
X66650890Y-50374524D01*
X66421000Y-50495845D01*
X66167000Y-50495845D01*
X65937110Y-50374524D01*
X65527076Y-50544355D01*
X65098817Y-50934642D01*
X65037843Y-51064478D01*
X64824625Y-50745375D01*
X64333418Y-50417161D01*
X63900256Y-50331000D01*
X63607744Y-50331000D01*
X63417083Y-50368925D01*
X60136460Y-47088303D01*
X60502862Y-46936534D01*
X60906534Y-46532862D01*
X60960000Y-46403784D01*
X61013466Y-46532862D01*
X61417138Y-46936534D01*
X61944561Y-47155000D01*
X62515439Y-47155000D01*
X63042862Y-46936534D01*
X63446534Y-46532862D01*
X63500000Y-46403784D01*
X63553466Y-46532862D01*
X63957138Y-46936534D01*
X64484561Y-47155000D01*
X65055439Y-47155000D01*
X65582862Y-46936534D01*
X65986534Y-46532862D01*
X66040000Y-46403784D01*
X66093466Y-46532862D01*
X66497138Y-46936534D01*
X67024561Y-47155000D01*
X67595439Y-47155000D01*
X68122862Y-46936534D01*
X68526534Y-46532862D01*
X68580000Y-46403784D01*
X68633466Y-46532862D01*
X69037138Y-46936534D01*
X69564561Y-47155000D01*
X70135439Y-47155000D01*
X70662862Y-46936534D01*
X71066534Y-46532862D01*
X71120000Y-46403784D01*
X71173466Y-46532862D01*
X71550231Y-46909627D01*
X71603448Y-47177170D01*
X71603449Y-47177171D01*
X71788000Y-47453371D01*
X71857718Y-47499955D01*
X73708845Y-49351083D01*
X73755429Y-49420801D01*
X74031629Y-49605352D01*
X74275193Y-49653800D01*
X74275196Y-49653800D01*
X74357429Y-49670157D01*
X74439662Y-49653800D01*
X98609089Y-49653800D01*
X98651520Y-49696231D01*
X99031926Y-49853800D01*
X99443674Y-49853800D01*
X99824080Y-49696231D01*
X99874001Y-49646310D01*
X99874000Y-55424000D01*
X28396000Y-55424000D01*
X28396000Y-52994887D01*
X28745000Y-52994887D01*
X28745000Y-53685113D01*
X29009138Y-54322799D01*
X29497201Y-54810862D01*
X30134887Y-55075000D01*
X30825113Y-55075000D01*
X31462799Y-54810862D01*
X31950862Y-54322799D01*
X32215000Y-53685113D01*
X32215000Y-52998000D01*
X35332560Y-52998000D01*
X35332560Y-54698000D01*
X35381843Y-54945765D01*
X35522191Y-55155809D01*
X35732235Y-55296157D01*
X35980000Y-55345440D01*
X37680000Y-55345440D01*
X37927765Y-55296157D01*
X38137809Y-55155809D01*
X38278157Y-54945765D01*
X38287184Y-54900381D01*
X38299375Y-54918625D01*
X38790582Y-55246839D01*
X39223744Y-55333000D01*
X39516256Y-55333000D01*
X39949418Y-55246839D01*
X40440625Y-54918625D01*
X40640000Y-54620239D01*
X40839375Y-54918625D01*
X41330582Y-55246839D01*
X41763744Y-55333000D01*
X42056256Y-55333000D01*
X42489418Y-55246839D01*
X42980625Y-54918625D01*
X43180000Y-54620239D01*
X43379375Y-54918625D01*
X43870582Y-55246839D01*
X44303744Y-55333000D01*
X44596256Y-55333000D01*
X45029418Y-55246839D01*
X45520625Y-54918625D01*
X45848839Y-54427418D01*
X45964092Y-53848000D01*
X45848839Y-53268582D01*
X45668042Y-52998000D01*
X49048560Y-52998000D01*
X49048560Y-54698000D01*
X49097843Y-54945765D01*
X49238191Y-55155809D01*
X49448235Y-55296157D01*
X49696000Y-55345440D01*
X51396000Y-55345440D01*
X51643765Y-55296157D01*
X51853809Y-55155809D01*
X51994157Y-54945765D01*
X52003184Y-54900381D01*
X52015375Y-54918625D01*
X52506582Y-55246839D01*
X52939744Y-55333000D01*
X53232256Y-55333000D01*
X53665418Y-55246839D01*
X54156625Y-54918625D01*
X54369843Y-54599522D01*
X54430817Y-54729358D01*
X54859076Y-55119645D01*
X55269110Y-55289476D01*
X55499000Y-55168155D01*
X55499000Y-53975000D01*
X55753000Y-53975000D01*
X55753000Y-55168155D01*
X55982890Y-55289476D01*
X56392924Y-55119645D01*
X56821183Y-54729358D01*
X57067486Y-54204892D01*
X56946819Y-53975000D01*
X55753000Y-53975000D01*
X55499000Y-53975000D01*
X55479000Y-53975000D01*
X55479000Y-53721000D01*
X55499000Y-53721000D01*
X55499000Y-52527845D01*
X55753000Y-52527845D01*
X55753000Y-53721000D01*
X56946819Y-53721000D01*
X57067486Y-53491108D01*
X56821183Y-52966642D01*
X56392924Y-52576355D01*
X55982890Y-52406524D01*
X55753000Y-52527845D01*
X55499000Y-52527845D01*
X55269110Y-52406524D01*
X54859076Y-52576355D01*
X54430817Y-52966642D01*
X54369843Y-53096478D01*
X54156625Y-52777375D01*
X53665418Y-52449161D01*
X53232256Y-52363000D01*
X52939744Y-52363000D01*
X52506582Y-52449161D01*
X52015375Y-52777375D01*
X52003184Y-52795619D01*
X51994157Y-52750235D01*
X51853809Y-52540191D01*
X51643765Y-52399843D01*
X51396000Y-52350560D01*
X49696000Y-52350560D01*
X49448235Y-52399843D01*
X49238191Y-52540191D01*
X49097843Y-52750235D01*
X49048560Y-52998000D01*
X45668042Y-52998000D01*
X45520625Y-52777375D01*
X45029418Y-52449161D01*
X44596256Y-52363000D01*
X44303744Y-52363000D01*
X43870582Y-52449161D01*
X43379375Y-52777375D01*
X43180000Y-53075761D01*
X42980625Y-52777375D01*
X42489418Y-52449161D01*
X42056256Y-52363000D01*
X41763744Y-52363000D01*
X41330582Y-52449161D01*
X40839375Y-52777375D01*
X40640000Y-53075761D01*
X40440625Y-52777375D01*
X39949418Y-52449161D01*
X39516256Y-52363000D01*
X39223744Y-52363000D01*
X38790582Y-52449161D01*
X38299375Y-52777375D01*
X38287184Y-52795619D01*
X38278157Y-52750235D01*
X38137809Y-52540191D01*
X37927765Y-52399843D01*
X37680000Y-52350560D01*
X35980000Y-52350560D01*
X35732235Y-52399843D01*
X35522191Y-52540191D01*
X35381843Y-52750235D01*
X35332560Y-52998000D01*
X32215000Y-52998000D01*
X32215000Y-52994887D01*
X31950862Y-52357201D01*
X31462799Y-51869138D01*
X30825113Y-51605000D01*
X30134887Y-51605000D01*
X29497201Y-51869138D01*
X29009138Y-52357201D01*
X28745000Y-52994887D01*
X28396000Y-52994887D01*
X28396000Y-47155000D01*
X28924250Y-47155000D01*
X29083000Y-46996250D01*
X29083000Y-45847000D01*
X29063000Y-45847000D01*
X29063000Y-45593000D01*
X29083000Y-45593000D01*
X29083000Y-44443750D01*
X28924250Y-44285000D01*
X28396000Y-44285000D01*
X28396000Y-42434561D01*
X34125000Y-42434561D01*
X34125000Y-43005439D01*
X34343466Y-43532862D01*
X34747138Y-43936534D01*
X35274561Y-44155000D01*
X35845439Y-44155000D01*
X36372862Y-43936534D01*
X36776534Y-43532862D01*
X36830000Y-43403784D01*
X36883466Y-43532862D01*
X37287138Y-43936534D01*
X37814561Y-44155000D01*
X38385439Y-44155000D01*
X38912862Y-43936534D01*
X39316534Y-43532862D01*
X39370000Y-43403784D01*
X39423466Y-43532862D01*
X39827138Y-43936534D01*
X40354561Y-44155000D01*
X40925439Y-44155000D01*
X41452862Y-43936534D01*
X41661651Y-43727745D01*
X42351861Y-43727745D01*
X42425995Y-43973864D01*
X42963223Y-44166965D01*
X43533454Y-44139778D01*
X43934005Y-43973864D01*
X44008139Y-43727745D01*
X44891861Y-43727745D01*
X44965995Y-43973864D01*
X45503223Y-44166965D01*
X46073454Y-44139778D01*
X46474005Y-43973864D01*
X46548139Y-43727745D01*
X45720000Y-42899605D01*
X44891861Y-43727745D01*
X44008139Y-43727745D01*
X43180000Y-42899605D01*
X42351861Y-43727745D01*
X41661651Y-43727745D01*
X41856534Y-43532862D01*
X41903525Y-43419417D01*
X41926136Y-43474005D01*
X42172255Y-43548139D01*
X43000395Y-42720000D01*
X43359605Y-42720000D01*
X44187745Y-43548139D01*
X44433864Y-43474005D01*
X44448858Y-43432291D01*
X44466136Y-43474005D01*
X44712255Y-43548139D01*
X45540395Y-42720000D01*
X45899605Y-42720000D01*
X46727745Y-43548139D01*
X46973864Y-43474005D01*
X47166965Y-42936777D01*
X47139778Y-42366546D01*
X46973864Y-41965995D01*
X46727745Y-41891861D01*
X45899605Y-42720000D01*
X45540395Y-42720000D01*
X44712255Y-41891861D01*
X44466136Y-41965995D01*
X44451142Y-42007709D01*
X44433864Y-41965995D01*
X44187745Y-41891861D01*
X43359605Y-42720000D01*
X43000395Y-42720000D01*
X42172255Y-41891861D01*
X41926136Y-41965995D01*
X41905126Y-42024448D01*
X41856534Y-41907138D01*
X41661651Y-41712255D01*
X42351861Y-41712255D01*
X43180000Y-42540395D01*
X44008139Y-41712255D01*
X44891861Y-41712255D01*
X45720000Y-42540395D01*
X46548139Y-41712255D01*
X46474005Y-41466136D01*
X45936777Y-41273035D01*
X45366546Y-41300222D01*
X44965995Y-41466136D01*
X44891861Y-41712255D01*
X44008139Y-41712255D01*
X43934005Y-41466136D01*
X43396777Y-41273035D01*
X42826546Y-41300222D01*
X42425995Y-41466136D01*
X42351861Y-41712255D01*
X41661651Y-41712255D01*
X41452862Y-41503466D01*
X40925439Y-41285000D01*
X40354561Y-41285000D01*
X39827138Y-41503466D01*
X39423466Y-41907138D01*
X39370000Y-42036216D01*
X39316534Y-41907138D01*
X38912862Y-41503466D01*
X38385439Y-41285000D01*
X37814561Y-41285000D01*
X37287138Y-41503466D01*
X36883466Y-41907138D01*
X36830000Y-42036216D01*
X36776534Y-41907138D01*
X36372862Y-41503466D01*
X35845439Y-41285000D01*
X35274561Y-41285000D01*
X34747138Y-41503466D01*
X34343466Y-41907138D01*
X34125000Y-42434561D01*
X28396000Y-42434561D01*
X28396000Y-35274561D01*
X43015000Y-35274561D01*
X43015000Y-35845439D01*
X43233466Y-36372862D01*
X43637138Y-36776534D01*
X43766216Y-36830000D01*
X43637138Y-36883466D01*
X43233466Y-37287138D01*
X43015000Y-37814561D01*
X43015000Y-38385439D01*
X43233466Y-38912862D01*
X43637138Y-39316534D01*
X44164561Y-39535000D01*
X44735439Y-39535000D01*
X45262862Y-39316534D01*
X45666534Y-38912862D01*
X45720000Y-38783784D01*
X45773466Y-38912862D01*
X46177138Y-39316534D01*
X46704561Y-39535000D01*
X47275439Y-39535000D01*
X47802862Y-39316534D01*
X48206534Y-38912862D01*
X48260000Y-38783784D01*
X48313466Y-38912862D01*
X48717138Y-39316534D01*
X49244561Y-39535000D01*
X49815439Y-39535000D01*
X50342862Y-39316534D01*
X50746534Y-38912862D01*
X50800000Y-38783784D01*
X50853466Y-38912862D01*
X51257138Y-39316534D01*
X51784561Y-39535000D01*
X52355439Y-39535000D01*
X52882862Y-39316534D01*
X53286534Y-38912862D01*
X53505000Y-38385439D01*
X53505000Y-37814561D01*
X53286534Y-37287138D01*
X52882862Y-36883466D01*
X52753784Y-36830000D01*
X52882862Y-36776534D01*
X53286534Y-36372862D01*
X53505000Y-35845439D01*
X53505000Y-35274561D01*
X53286534Y-34747138D01*
X52882862Y-34343466D01*
X52355439Y-34125000D01*
X51784561Y-34125000D01*
X51257138Y-34343466D01*
X50853466Y-34747138D01*
X50800000Y-34876216D01*
X50746534Y-34747138D01*
X50342862Y-34343466D01*
X49815439Y-34125000D01*
X49244561Y-34125000D01*
X48717138Y-34343466D01*
X48313466Y-34747138D01*
X48260000Y-34876216D01*
X48206534Y-34747138D01*
X47802862Y-34343466D01*
X47275439Y-34125000D01*
X46704561Y-34125000D01*
X46177138Y-34343466D01*
X45773466Y-34747138D01*
X45720000Y-34876216D01*
X45666534Y-34747138D01*
X45262862Y-34343466D01*
X44735439Y-34125000D01*
X44164561Y-34125000D01*
X43637138Y-34343466D01*
X43233466Y-34747138D01*
X43015000Y-35274561D01*
X28396000Y-35274561D01*
X28396000Y-32734561D01*
X30315000Y-32734561D01*
X30315000Y-33305439D01*
X30533466Y-33832862D01*
X30937138Y-34236534D01*
X31464561Y-34455000D01*
X32035439Y-34455000D01*
X32562862Y-34236534D01*
X32966534Y-33832862D01*
X33185000Y-33305439D01*
X33185000Y-32734561D01*
X32966534Y-32207138D01*
X32562862Y-31803466D01*
X32449417Y-31756475D01*
X32504005Y-31733864D01*
X32578139Y-31487745D01*
X31750000Y-30659605D01*
X30921861Y-31487745D01*
X30995995Y-31733864D01*
X31054448Y-31754874D01*
X30937138Y-31803466D01*
X30533466Y-32207138D01*
X30315000Y-32734561D01*
X28396000Y-32734561D01*
X28396000Y-31695396D01*
X28397138Y-31696534D01*
X28924561Y-31915000D01*
X29495439Y-31915000D01*
X30022862Y-31696534D01*
X30426534Y-31292862D01*
X30473525Y-31179417D01*
X30496136Y-31234005D01*
X30742255Y-31308139D01*
X31570395Y-30480000D01*
X30742255Y-29651861D01*
X30496136Y-29725995D01*
X30475126Y-29784448D01*
X30426534Y-29667138D01*
X30231651Y-29472255D01*
X30921861Y-29472255D01*
X31750000Y-30300395D01*
X32578139Y-29472255D01*
X32504005Y-29226136D01*
X31966777Y-29033035D01*
X31396546Y-29060222D01*
X30995995Y-29226136D01*
X30921861Y-29472255D01*
X30231651Y-29472255D01*
X30022862Y-29263466D01*
X29495439Y-29045000D01*
X28924561Y-29045000D01*
X28397138Y-29263466D01*
X28396000Y-29264604D01*
X28396000Y-28210571D01*
X28410191Y-28231809D01*
X28620235Y-28372157D01*
X28868000Y-28421440D01*
X30568000Y-28421440D01*
X30815765Y-28372157D01*
X31025809Y-28231809D01*
X31166157Y-28021765D01*
X31186739Y-27918292D01*
X31491076Y-28195645D01*
X31901110Y-28365476D01*
X32131000Y-28244155D01*
X32131000Y-27051000D01*
X32385000Y-27051000D01*
X32385000Y-28244155D01*
X32614890Y-28365476D01*
X33024924Y-28195645D01*
X33453183Y-27805358D01*
X33699486Y-27280892D01*
X33578819Y-27051000D01*
X32385000Y-27051000D01*
X32131000Y-27051000D01*
X32111000Y-27051000D01*
X32111000Y-26797000D01*
X32131000Y-26797000D01*
X32131000Y-25603845D01*
X32385000Y-25603845D01*
X32385000Y-26797000D01*
X33578819Y-26797000D01*
X33699486Y-26567108D01*
X33453183Y-26042642D01*
X33024924Y-25652355D01*
X32614890Y-25482524D01*
X32385000Y-25603845D01*
X32131000Y-25603845D01*
X31901110Y-25482524D01*
X31491076Y-25652355D01*
X31186739Y-25929708D01*
X31166157Y-25826235D01*
X31025809Y-25616191D01*
X30815765Y-25475843D01*
X30568000Y-25426560D01*
X28868000Y-25426560D01*
X28620235Y-25475843D01*
X28410191Y-25616191D01*
X28396000Y-25637429D01*
X28396000Y-22514887D01*
X28745000Y-22514887D01*
X28745000Y-23205113D01*
X29009138Y-23842799D01*
X29497201Y-24330862D01*
X30134887Y-24595000D01*
X30825113Y-24595000D01*
X31462799Y-24330862D01*
X31950862Y-23842799D01*
X32215000Y-23205113D01*
X32215000Y-22514887D01*
X32147531Y-22352000D01*
X50555908Y-22352000D01*
X50671161Y-22931418D01*
X50999375Y-23422625D01*
X51490582Y-23750839D01*
X51923744Y-23837000D01*
X52216256Y-23837000D01*
X52649418Y-23750839D01*
X53140625Y-23422625D01*
X53340000Y-23124239D01*
X53539375Y-23422625D01*
X54030582Y-23750839D01*
X54463744Y-23837000D01*
X54756256Y-23837000D01*
X55189418Y-23750839D01*
X55680625Y-23422625D01*
X55880000Y-23124239D01*
X56079375Y-23422625D01*
X56570582Y-23750839D01*
X57003744Y-23837000D01*
X57296256Y-23837000D01*
X57729418Y-23750839D01*
X58220625Y-23422625D01*
X58232816Y-23404381D01*
X58241843Y-23449765D01*
X58382191Y-23659809D01*
X58592235Y-23800157D01*
X58840000Y-23849440D01*
X60540000Y-23849440D01*
X60787765Y-23800157D01*
X60997809Y-23659809D01*
X61138157Y-23449765D01*
X61187440Y-23202000D01*
X61187440Y-21502000D01*
X61138157Y-21254235D01*
X60997809Y-21044191D01*
X60787765Y-20903843D01*
X60540000Y-20854560D01*
X58840000Y-20854560D01*
X58592235Y-20903843D01*
X58382191Y-21044191D01*
X58241843Y-21254235D01*
X58232816Y-21299619D01*
X58220625Y-21281375D01*
X57729418Y-20953161D01*
X57296256Y-20867000D01*
X57003744Y-20867000D01*
X56570582Y-20953161D01*
X56079375Y-21281375D01*
X55880000Y-21579761D01*
X55680625Y-21281375D01*
X55189418Y-20953161D01*
X54756256Y-20867000D01*
X54463744Y-20867000D01*
X54030582Y-20953161D01*
X53539375Y-21281375D01*
X53340000Y-21579761D01*
X53140625Y-21281375D01*
X52649418Y-20953161D01*
X52216256Y-20867000D01*
X51923744Y-20867000D01*
X51490582Y-20953161D01*
X50999375Y-21281375D01*
X50671161Y-21772582D01*
X50555908Y-22352000D01*
X32147531Y-22352000D01*
X31950862Y-21877201D01*
X31462799Y-21389138D01*
X30825113Y-21125000D01*
X30134887Y-21125000D01*
X29497201Y-21389138D01*
X29009138Y-21877201D01*
X28745000Y-22514887D01*
X28396000Y-22514887D01*
X28396000Y-20776000D01*
X64149131Y-20776000D01*
X59598133Y-25327000D01*
X59598133Y-25327000D01*
G37*
X59598133Y-25327000D02*
X51390232Y-25327000D01*
X51307999Y-25310643D01*
X51225766Y-25327000D01*
X51225763Y-25327000D01*
X50982199Y-25375448D01*
X50705999Y-25559999D01*
X50659415Y-25629717D01*
X47244133Y-29045000D01*
X46704561Y-29045000D01*
X46177138Y-29263466D01*
X45773466Y-29667138D01*
X45720000Y-29796216D01*
X45666534Y-29667138D01*
X45262862Y-29263466D01*
X44735439Y-29045000D01*
X44164561Y-29045000D01*
X43637138Y-29263466D01*
X43233466Y-29667138D01*
X43180000Y-29796216D01*
X43126534Y-29667138D01*
X42722862Y-29263466D01*
X42195439Y-29045000D01*
X41624561Y-29045000D01*
X41097138Y-29263466D01*
X40693466Y-29667138D01*
X40640000Y-29796216D01*
X40586534Y-29667138D01*
X40182862Y-29263466D01*
X39655439Y-29045000D01*
X39084561Y-29045000D01*
X38557138Y-29263466D01*
X38153466Y-29667138D01*
X38100000Y-29796216D01*
X38046534Y-29667138D01*
X37642862Y-29263466D01*
X37115439Y-29045000D01*
X36544561Y-29045000D01*
X36017138Y-29263466D01*
X35613466Y-29667138D01*
X35560000Y-29796216D01*
X35506534Y-29667138D01*
X35102862Y-29263466D01*
X34575439Y-29045000D01*
X34004561Y-29045000D01*
X33477138Y-29263466D01*
X33073466Y-29667138D01*
X33026475Y-29780583D01*
X33003864Y-29725995D01*
X32757745Y-29651861D01*
X31929605Y-30480000D01*
X32757745Y-31308139D01*
X33003864Y-31234005D01*
X33024874Y-31175552D01*
X33073466Y-31292862D01*
X33477138Y-31696534D01*
X34004561Y-31915000D01*
X34575439Y-31915000D01*
X35102862Y-31696534D01*
X35506534Y-31292862D01*
X35560000Y-31163784D01*
X35613466Y-31292862D01*
X36017138Y-31696534D01*
X36146216Y-31750000D01*
X36017138Y-31803466D01*
X35613466Y-32207138D01*
X35395000Y-32734561D01*
X35395000Y-33305439D01*
X35613466Y-33832862D01*
X36017138Y-34236534D01*
X36544561Y-34455000D01*
X37115439Y-34455000D01*
X37642862Y-34236534D01*
X38046534Y-33832862D01*
X38100000Y-33703784D01*
X38153466Y-33832862D01*
X38557138Y-34236534D01*
X39084561Y-34455000D01*
X39655439Y-34455000D01*
X40182862Y-34236534D01*
X40586534Y-33832862D01*
X40640000Y-33703784D01*
X40693466Y-33832862D01*
X41097138Y-34236534D01*
X41624561Y-34455000D01*
X42195439Y-34455000D01*
X42722862Y-34236534D01*
X43126534Y-33832862D01*
X43345000Y-33305439D01*
X43345000Y-32734561D01*
X43126534Y-32207138D01*
X42722862Y-31803466D01*
X42593784Y-31750000D01*
X42722862Y-31696534D01*
X43126534Y-31292862D01*
X43180000Y-31163784D01*
X43233466Y-31292862D01*
X43637138Y-31696534D01*
X44164561Y-31915000D01*
X44735439Y-31915000D01*
X45262862Y-31696534D01*
X45666534Y-31292862D01*
X45720000Y-31163784D01*
X45773466Y-31292862D01*
X46177138Y-31696534D01*
X46704561Y-31915000D01*
X47275439Y-31915000D01*
X47802862Y-31696534D01*
X48206534Y-31292862D01*
X48260000Y-31163784D01*
X48313466Y-31292862D01*
X48717138Y-31696534D01*
X49244561Y-31915000D01*
X49815439Y-31915000D01*
X50342862Y-31696534D01*
X50746534Y-31292862D01*
X50800000Y-31163784D01*
X50853466Y-31292862D01*
X51257138Y-31696534D01*
X51784561Y-31915000D01*
X52355439Y-31915000D01*
X52882862Y-31696534D01*
X53286534Y-31292862D01*
X53340000Y-31163784D01*
X53393466Y-31292862D01*
X53797138Y-31696534D01*
X54324561Y-31915000D01*
X54895439Y-31915000D01*
X55422862Y-31696534D01*
X55826534Y-31292862D01*
X55880000Y-31163784D01*
X55933466Y-31292862D01*
X56337138Y-31696534D01*
X56864561Y-31915000D01*
X57435439Y-31915000D01*
X57962862Y-31696534D01*
X58366534Y-31292862D01*
X58420000Y-31163784D01*
X58473466Y-31292862D01*
X58877138Y-31696534D01*
X59404561Y-31915000D01*
X59975439Y-31915000D01*
X60502862Y-31696534D01*
X60906534Y-31292862D01*
X60960000Y-31163784D01*
X61013466Y-31292862D01*
X61417138Y-31696534D01*
X61944561Y-31915000D01*
X62515439Y-31915000D01*
X63042862Y-31696534D01*
X63251651Y-31487745D01*
X63941861Y-31487745D01*
X64015995Y-31733864D01*
X64553223Y-31926965D01*
X65123454Y-31899778D01*
X65524005Y-31733864D01*
X65598139Y-31487745D01*
X64770000Y-30659605D01*
X63941861Y-31487745D01*
X63251651Y-31487745D01*
X63446534Y-31292862D01*
X63493525Y-31179417D01*
X63516136Y-31234005D01*
X63762255Y-31308139D01*
X64590395Y-30480000D01*
X63762255Y-29651861D01*
X63516136Y-29725995D01*
X63495126Y-29784448D01*
X63446534Y-29667138D01*
X63251651Y-29472255D01*
X63941861Y-29472255D01*
X64770000Y-30300395D01*
X65598139Y-29472255D01*
X65524005Y-29226136D01*
X64986777Y-29033035D01*
X64416546Y-29060222D01*
X64015995Y-29226136D01*
X63941861Y-29472255D01*
X63251651Y-29472255D01*
X63042862Y-29263466D01*
X62515439Y-29045000D01*
X61944561Y-29045000D01*
X61417138Y-29263466D01*
X61013466Y-29667138D01*
X60960000Y-29796216D01*
X60906534Y-29667138D01*
X60502862Y-29263466D01*
X59975439Y-29045000D01*
X59404561Y-29045000D01*
X58877138Y-29263466D01*
X58473466Y-29667138D01*
X58420000Y-29796216D01*
X58366534Y-29667138D01*
X57962862Y-29263466D01*
X57435439Y-29045000D01*
X56864561Y-29045000D01*
X56337138Y-29263466D01*
X55933466Y-29667138D01*
X55880000Y-29796216D01*
X55826534Y-29667138D01*
X55422862Y-29263466D01*
X54895439Y-29045000D01*
X54324561Y-29045000D01*
X53797138Y-29263466D01*
X53393466Y-29667138D01*
X53340000Y-29796216D01*
X53286534Y-29667138D01*
X52882862Y-29263466D01*
X52355439Y-29045000D01*
X52145868Y-29045000D01*
X53177868Y-28013000D01*
X61405767Y-28013000D01*
X61488000Y-28029357D01*
X61570233Y-28013000D01*
X61570237Y-28013000D01*
X61813801Y-27964552D01*
X62090001Y-27780001D01*
X62136587Y-27710280D01*
X66228500Y-23618367D01*
X66256191Y-23659809D01*
X66466235Y-23800157D01*
X66714000Y-23849440D01*
X66761861Y-23849440D01*
X66777448Y-23927800D01*
X66961999Y-24204001D01*
X67031720Y-24250587D01*
X71907681Y-29126550D01*
X71577138Y-29263466D01*
X71173466Y-29667138D01*
X71120000Y-29796216D01*
X71066534Y-29667138D01*
X70662862Y-29263466D01*
X70135439Y-29045000D01*
X69564561Y-29045000D01*
X69037138Y-29263466D01*
X68633466Y-29667138D01*
X68580000Y-29796216D01*
X68526534Y-29667138D01*
X68122862Y-29263466D01*
X67595439Y-29045000D01*
X67024561Y-29045000D01*
X66497138Y-29263466D01*
X66093466Y-29667138D01*
X66046475Y-29780583D01*
X66023864Y-29725995D01*
X65777745Y-29651861D01*
X64949605Y-30480000D01*
X65777745Y-31308139D01*
X66023864Y-31234005D01*
X66044874Y-31175552D01*
X66093466Y-31292862D01*
X66497138Y-31696534D01*
X67024561Y-31915000D01*
X67595439Y-31915000D01*
X68122862Y-31696534D01*
X68526534Y-31292862D01*
X68580000Y-31163784D01*
X68633466Y-31292862D01*
X69037138Y-31696534D01*
X69564561Y-31915000D01*
X70135439Y-31915000D01*
X70662862Y-31696534D01*
X71066534Y-31292862D01*
X71120000Y-31163784D01*
X71173466Y-31292862D01*
X71577138Y-31696534D01*
X72104561Y-31915000D01*
X72675439Y-31915000D01*
X73202862Y-31696534D01*
X73606534Y-31292862D01*
X73660000Y-31163784D01*
X73713466Y-31292862D01*
X74117138Y-31696534D01*
X74246216Y-31750000D01*
X74117138Y-31803466D01*
X73713466Y-32207138D01*
X73495000Y-32734561D01*
X73495000Y-33305439D01*
X73713466Y-33832862D01*
X74117138Y-34236534D01*
X74246216Y-34290000D01*
X74117138Y-34343466D01*
X73713466Y-34747138D01*
X73660000Y-34876216D01*
X73606534Y-34747138D01*
X73202862Y-34343466D01*
X72675439Y-34125000D01*
X72104561Y-34125000D01*
X71577138Y-34343466D01*
X71173466Y-34747138D01*
X71120000Y-34876216D01*
X71066534Y-34747138D01*
X70662862Y-34343466D01*
X70135439Y-34125000D01*
X69564561Y-34125000D01*
X69037138Y-34343466D01*
X68633466Y-34747138D01*
X68580000Y-34876216D01*
X68526534Y-34747138D01*
X68122862Y-34343466D01*
X67595439Y-34125000D01*
X67024561Y-34125000D01*
X66497138Y-34343466D01*
X66093466Y-34747138D01*
X65875000Y-35274561D01*
X65875000Y-35845439D01*
X66093466Y-36372862D01*
X66497138Y-36776534D01*
X66626216Y-36830000D01*
X66497138Y-36883466D01*
X66093466Y-37287138D01*
X65875000Y-37814561D01*
X65875000Y-38385439D01*
X66093466Y-38912862D01*
X66497138Y-39316534D01*
X67024561Y-39535000D01*
X67595439Y-39535000D01*
X68122862Y-39316534D01*
X68526534Y-38912862D01*
X68580000Y-38783784D01*
X68633466Y-38912862D01*
X69037138Y-39316534D01*
X69564561Y-39535000D01*
X70135439Y-39535000D01*
X70662862Y-39316534D01*
X71066534Y-38912862D01*
X71120000Y-38783784D01*
X71173466Y-38912862D01*
X71577138Y-39316534D01*
X72104561Y-39535000D01*
X72675439Y-39535000D01*
X73202862Y-39316534D01*
X73606534Y-38912862D01*
X73653525Y-38799417D01*
X73676136Y-38854005D01*
X73922255Y-38928139D01*
X74750395Y-38100000D01*
X73922255Y-37271861D01*
X73676136Y-37345995D01*
X73655126Y-37404448D01*
X73606534Y-37287138D01*
X73202862Y-36883466D01*
X73073784Y-36830000D01*
X73202862Y-36776534D01*
X73606534Y-36372862D01*
X73660000Y-36243784D01*
X73713466Y-36372862D01*
X74117138Y-36776534D01*
X74230583Y-36823525D01*
X74175995Y-36846136D01*
X74101861Y-37092255D01*
X74930000Y-37920395D01*
X75758139Y-37092255D01*
X75684005Y-36846136D01*
X75625552Y-36825126D01*
X75742862Y-36776534D01*
X76146534Y-36372862D01*
X76200000Y-36243784D01*
X76253466Y-36372862D01*
X76657138Y-36776534D01*
X76786216Y-36830000D01*
X76657138Y-36883466D01*
X76253466Y-37287138D01*
X76206475Y-37400583D01*
X76183864Y-37345995D01*
X75937745Y-37271861D01*
X75109605Y-38100000D01*
X75937745Y-38928139D01*
X76183864Y-38854005D01*
X76204874Y-38795552D01*
X76253466Y-38912862D01*
X76657138Y-39316534D01*
X77184561Y-39535000D01*
X77755439Y-39535000D01*
X78282862Y-39316534D01*
X78686534Y-38912862D01*
X78740000Y-38783784D01*
X78793466Y-38912862D01*
X79197138Y-39316534D01*
X79724561Y-39535000D01*
X80295439Y-39535000D01*
X80822862Y-39316534D01*
X81226534Y-38912862D01*
X81280000Y-38783784D01*
X81333466Y-38912862D01*
X81737138Y-39316534D01*
X82264561Y-39535000D01*
X82835439Y-39535000D01*
X83362862Y-39316534D01*
X83766534Y-38912862D01*
X83820000Y-38783784D01*
X83873466Y-38912862D01*
X84277138Y-39316534D01*
X84804561Y-39535000D01*
X85375439Y-39535000D01*
X85902862Y-39316534D01*
X86111651Y-39107745D01*
X86801861Y-39107745D01*
X86875995Y-39353864D01*
X87413223Y-39546965D01*
X87983454Y-39519778D01*
X88384005Y-39353864D01*
X88458139Y-39107745D01*
X87630000Y-38279605D01*
X86801861Y-39107745D01*
X86111651Y-39107745D01*
X86306534Y-38912862D01*
X86353525Y-38799417D01*
X86376136Y-38854005D01*
X86622255Y-38928139D01*
X87450395Y-38100000D01*
X87809605Y-38100000D01*
X88637745Y-38928139D01*
X88883864Y-38854005D01*
X89076965Y-38316777D01*
X89049778Y-37746546D01*
X88883864Y-37345995D01*
X88637745Y-37271861D01*
X87809605Y-38100000D01*
X87450395Y-38100000D01*
X86622255Y-37271861D01*
X86376136Y-37345995D01*
X86355126Y-37404448D01*
X86306534Y-37287138D01*
X85902862Y-36883466D01*
X85773784Y-36830000D01*
X85902862Y-36776534D01*
X86306534Y-36372862D01*
X86360000Y-36243784D01*
X86413466Y-36372862D01*
X86817138Y-36776534D01*
X86930583Y-36823525D01*
X86875995Y-36846136D01*
X86801861Y-37092255D01*
X87630000Y-37920395D01*
X88458139Y-37092255D01*
X88384005Y-36846136D01*
X88325552Y-36825126D01*
X88442862Y-36776534D01*
X88846534Y-36372862D01*
X89065000Y-35845439D01*
X89065000Y-35274561D01*
X88846534Y-34747138D01*
X88442862Y-34343466D01*
X87915439Y-34125000D01*
X87344561Y-34125000D01*
X86817138Y-34343466D01*
X86413466Y-34747138D01*
X86360000Y-34876216D01*
X86306534Y-34747138D01*
X85902862Y-34343466D01*
X85375439Y-34125000D01*
X84804561Y-34125000D01*
X84277138Y-34343466D01*
X83873466Y-34747138D01*
X83820000Y-34876216D01*
X83766534Y-34747138D01*
X83362862Y-34343466D01*
X82835439Y-34125000D01*
X82264561Y-34125000D01*
X81737138Y-34343466D01*
X81333466Y-34747138D01*
X81280000Y-34876216D01*
X81226534Y-34747138D01*
X80822862Y-34343466D01*
X80295439Y-34125000D01*
X79724561Y-34125000D01*
X79197138Y-34343466D01*
X78793466Y-34747138D01*
X78740000Y-34876216D01*
X78686534Y-34747138D01*
X78282862Y-34343466D01*
X77755439Y-34125000D01*
X77184561Y-34125000D01*
X76657138Y-34343466D01*
X76253466Y-34747138D01*
X76200000Y-34876216D01*
X76146534Y-34747138D01*
X75742862Y-34343466D01*
X75613784Y-34290000D01*
X75742862Y-34236534D01*
X76146534Y-33832862D01*
X76365000Y-33305439D01*
X76365000Y-32734561D01*
X76146534Y-32207138D01*
X75742862Y-31803466D01*
X75613784Y-31750000D01*
X75742862Y-31696534D01*
X76146534Y-31292862D01*
X76200000Y-31163784D01*
X76253466Y-31292862D01*
X76657138Y-31696534D01*
X77184561Y-31915000D01*
X77755439Y-31915000D01*
X78282862Y-31696534D01*
X78686534Y-31292862D01*
X78740000Y-31163784D01*
X78793466Y-31292862D01*
X79197138Y-31696534D01*
X79724561Y-31915000D01*
X80295439Y-31915000D01*
X80822862Y-31696534D01*
X81226534Y-31292862D01*
X81280000Y-31163784D01*
X81333466Y-31292862D01*
X81737138Y-31696534D01*
X82264561Y-31915000D01*
X82835439Y-31915000D01*
X83362862Y-31696534D01*
X83766534Y-31292862D01*
X83820000Y-31163784D01*
X83873466Y-31292862D01*
X84277138Y-31696534D01*
X84804561Y-31915000D01*
X85375439Y-31915000D01*
X85902862Y-31696534D01*
X86306534Y-31292862D01*
X86360000Y-31163784D01*
X86413466Y-31292862D01*
X86817138Y-31696534D01*
X87344561Y-31915000D01*
X87915439Y-31915000D01*
X88442862Y-31696534D01*
X88846534Y-31292862D01*
X88884268Y-31201764D01*
X89038569Y-31574280D01*
X89329720Y-31865431D01*
X89710126Y-32023000D01*
X90121874Y-32023000D01*
X90502280Y-31865431D01*
X90551000Y-31816711D01*
X90599720Y-31865431D01*
X90980126Y-32023000D01*
X91391874Y-32023000D01*
X91772280Y-31865431D01*
X92063431Y-31574280D01*
X92221000Y-31193874D01*
X92221000Y-30782126D01*
X92063431Y-30401720D01*
X92025770Y-30364059D01*
X92021000Y-30340078D01*
X91972552Y-30096514D01*
X91788001Y-29820314D01*
X91718283Y-29773730D01*
X89225272Y-27280720D01*
X89178686Y-27210999D01*
X88902486Y-27026448D01*
X88658922Y-26978000D01*
X88658918Y-26978000D01*
X88576685Y-26961643D01*
X88494452Y-26978000D01*
X75910869Y-26978000D01*
X72769868Y-23837000D01*
X72771002Y-23837000D01*
X72771002Y-23672156D01*
X73000890Y-23793476D01*
X73410924Y-23623645D01*
X73839183Y-23233358D01*
X74085486Y-22708892D01*
X73964819Y-22479000D01*
X72771000Y-22479000D01*
X72771000Y-22499000D01*
X72517000Y-22499000D01*
X72517000Y-22479000D01*
X72497000Y-22479000D01*
X72497000Y-22225000D01*
X72517000Y-22225000D01*
X72517000Y-21031845D01*
X72771000Y-21031845D01*
X72771000Y-22225000D01*
X73964819Y-22225000D01*
X74085486Y-21995108D01*
X80600514Y-21995108D01*
X80721181Y-22225000D01*
X81915000Y-22225000D01*
X81915000Y-21031845D01*
X82169000Y-21031845D01*
X82169000Y-22225000D01*
X84455000Y-22225000D01*
X84455000Y-21031845D01*
X84709000Y-21031845D01*
X84709000Y-22225000D01*
X86995000Y-22225000D01*
X86995000Y-21031845D01*
X87249000Y-21031845D01*
X87249000Y-22225000D01*
X88442819Y-22225000D01*
X88563486Y-21995108D01*
X88317183Y-21470642D01*
X87888924Y-21080355D01*
X87478890Y-20910524D01*
X87249000Y-21031845D01*
X86995000Y-21031845D01*
X86765110Y-20910524D01*
X86355076Y-21080355D01*
X85926817Y-21470642D01*
X85852000Y-21629954D01*
X85777183Y-21470642D01*
X85348924Y-21080355D01*
X84938890Y-20910524D01*
X84709000Y-21031845D01*
X84455000Y-21031845D01*
X84225110Y-20910524D01*
X83815076Y-21080355D01*
X83386817Y-21470642D01*
X83312000Y-21629954D01*
X83237183Y-21470642D01*
X82808924Y-21080355D01*
X82398890Y-20910524D01*
X82169000Y-21031845D01*
X81915000Y-21031845D01*
X81685110Y-20910524D01*
X81275076Y-21080355D01*
X80846817Y-21470642D01*
X80600514Y-21995108D01*
X74085486Y-21995108D01*
X73839183Y-21470642D01*
X73410924Y-21080355D01*
X73000890Y-20910524D01*
X72771000Y-21031845D01*
X72517000Y-21031845D01*
X72287110Y-20910524D01*
X71877076Y-21080355D01*
X71448817Y-21470642D01*
X71387843Y-21600478D01*
X71174625Y-21281375D01*
X70951904Y-21132557D01*
X70939000Y-21067683D01*
X70939000Y-21067682D01*
X70890552Y-20824118D01*
X70858401Y-20776000D01*
X99874000Y-20776000D01*
X99874001Y-28886070D01*
X99874000Y-28886075D01*
X99874000Y-30894209D01*
X99789001Y-30766999D01*
X99719283Y-30720415D01*
X93358587Y-24359720D01*
X93312001Y-24289999D01*
X93035801Y-24105448D01*
X92792237Y-24057000D01*
X92792233Y-24057000D01*
X92710000Y-24040643D01*
X92627767Y-24057000D01*
X88350065Y-24057000D01*
X88192625Y-23821375D01*
X87892214Y-23620647D01*
X88317183Y-23233358D01*
X88563486Y-22708892D01*
X88461656Y-22514887D01*
X96055000Y-22514887D01*
X96055000Y-23205113D01*
X96319138Y-23842799D01*
X96807201Y-24330862D01*
X97444887Y-24595000D01*
X98135113Y-24595000D01*
X98772799Y-24330862D01*
X99260862Y-23842799D01*
X99525000Y-23205113D01*
X99525000Y-22514887D01*
X99260862Y-21877201D01*
X98772799Y-21389138D01*
X98135113Y-21125000D01*
X97444887Y-21125000D01*
X96807201Y-21389138D01*
X96319138Y-21877201D01*
X96055000Y-22514887D01*
X88461656Y-22514887D01*
X88442819Y-22479000D01*
X87249000Y-22479000D01*
X87249000Y-22499000D01*
X86995000Y-22499000D01*
X86995000Y-22479000D01*
X84709000Y-22479000D01*
X84709000Y-22499000D01*
X84455000Y-22499000D01*
X84455000Y-22479000D01*
X82169000Y-22479000D01*
X82169000Y-22499000D01*
X81915000Y-22499000D01*
X81915000Y-22479000D01*
X80721181Y-22479000D01*
X80600514Y-22708892D01*
X80846817Y-23233358D01*
X81053855Y-23422039D01*
X80944235Y-23443843D01*
X80734191Y-23584191D01*
X80593843Y-23794235D01*
X80544560Y-24042000D01*
X80544560Y-25742000D01*
X80593843Y-25989765D01*
X80734191Y-26199809D01*
X80944235Y-26340157D01*
X81192000Y-26389440D01*
X82892000Y-26389440D01*
X83139765Y-26340157D01*
X83349809Y-26199809D01*
X83490157Y-25989765D01*
X83499184Y-25944381D01*
X83511375Y-25962625D01*
X84002582Y-26290839D01*
X84435744Y-26377000D01*
X84728256Y-26377000D01*
X85161418Y-26290839D01*
X85652625Y-25962625D01*
X85852000Y-25664239D01*
X86051375Y-25962625D01*
X86542582Y-26290839D01*
X86975744Y-26377000D01*
X87268256Y-26377000D01*
X87701418Y-26290839D01*
X88192625Y-25962625D01*
X88350065Y-25727000D01*
X92364133Y-25727000D01*
X98352001Y-31714869D01*
X98352001Y-33910512D01*
X97995874Y-33763000D01*
X97584126Y-33763000D01*
X97203720Y-33920569D01*
X97166059Y-33958230D01*
X97142078Y-33963000D01*
X96898514Y-34011448D01*
X96622314Y-34195999D01*
X96575730Y-34265717D01*
X88623448Y-42218000D01*
X77679237Y-42218000D01*
X77597000Y-42201642D01*
X77514763Y-42218000D01*
X77271199Y-42266448D01*
X76994999Y-42450999D01*
X76948415Y-42520717D01*
X76365000Y-43104132D01*
X76365000Y-42894561D01*
X76146534Y-42367138D01*
X75742862Y-41963466D01*
X75613784Y-41910000D01*
X75742862Y-41856534D01*
X76146534Y-41452862D01*
X76365000Y-40925439D01*
X76365000Y-40354561D01*
X76146534Y-39827138D01*
X75742862Y-39423466D01*
X75629417Y-39376475D01*
X75684005Y-39353864D01*
X75758139Y-39107745D01*
X74930000Y-38279605D01*
X74101861Y-39107745D01*
X74175995Y-39353864D01*
X74234448Y-39374874D01*
X74117138Y-39423466D01*
X73713466Y-39827138D01*
X73495000Y-40354561D01*
X73495000Y-40925439D01*
X73713466Y-41452862D01*
X74117138Y-41856534D01*
X74246216Y-41910000D01*
X74117138Y-41963466D01*
X73713466Y-42367138D01*
X73495000Y-42894561D01*
X73495000Y-43465439D01*
X73713466Y-43992862D01*
X74117138Y-44396534D01*
X74246216Y-44450000D01*
X74117138Y-44503466D01*
X73713466Y-44907138D01*
X73660000Y-45036216D01*
X73606534Y-44907138D01*
X73202862Y-44503466D01*
X72675439Y-44285000D01*
X72104561Y-44285000D01*
X71577138Y-44503466D01*
X71173466Y-44907138D01*
X71120000Y-45036216D01*
X71066534Y-44907138D01*
X70662862Y-44503466D01*
X70135439Y-44285000D01*
X69564561Y-44285000D01*
X69037138Y-44503466D01*
X68633466Y-44907138D01*
X68580000Y-45036216D01*
X68526534Y-44907138D01*
X68122862Y-44503466D01*
X67595439Y-44285000D01*
X67024561Y-44285000D01*
X66497138Y-44503466D01*
X66093466Y-44907138D01*
X66040000Y-45036216D01*
X65986534Y-44907138D01*
X65582862Y-44503466D01*
X65055439Y-44285000D01*
X64484561Y-44285000D01*
X63957138Y-44503466D01*
X63553466Y-44907138D01*
X63500000Y-45036216D01*
X63446534Y-44907138D01*
X63042862Y-44503466D01*
X62515439Y-44285000D01*
X61944561Y-44285000D01*
X61417138Y-44503466D01*
X61013466Y-44907138D01*
X60960000Y-45036216D01*
X60906534Y-44907138D01*
X60502862Y-44503466D01*
X59975439Y-44285000D01*
X59404561Y-44285000D01*
X58877138Y-44503466D01*
X58473466Y-44907138D01*
X58420000Y-45036216D01*
X58366534Y-44907138D01*
X57962862Y-44503466D01*
X57435439Y-44285000D01*
X56864561Y-44285000D01*
X56337138Y-44503466D01*
X55933466Y-44907138D01*
X55880000Y-45036216D01*
X55826534Y-44907138D01*
X55422862Y-44503466D01*
X54895439Y-44285000D01*
X54324561Y-44285000D01*
X53797138Y-44503466D01*
X53393466Y-44907138D01*
X53340000Y-45036216D01*
X53286534Y-44907138D01*
X52882862Y-44503466D01*
X52355439Y-44285000D01*
X51784561Y-44285000D01*
X51257138Y-44503466D01*
X50853466Y-44907138D01*
X50800000Y-45036216D01*
X50746534Y-44907138D01*
X50342862Y-44503466D01*
X49815439Y-44285000D01*
X49244561Y-44285000D01*
X48717138Y-44503466D01*
X48313466Y-44907138D01*
X48260000Y-45036216D01*
X48206534Y-44907138D01*
X47802862Y-44503466D01*
X47275439Y-44285000D01*
X46704561Y-44285000D01*
X46177138Y-44503466D01*
X45773466Y-44907138D01*
X45720000Y-45036216D01*
X45666534Y-44907138D01*
X45262862Y-44503466D01*
X44735439Y-44285000D01*
X44164561Y-44285000D01*
X43637138Y-44503466D01*
X43233466Y-44907138D01*
X43180000Y-45036216D01*
X43126534Y-44907138D01*
X42722862Y-44503466D01*
X42195439Y-44285000D01*
X41624561Y-44285000D01*
X41097138Y-44503466D01*
X40693466Y-44907138D01*
X40640000Y-45036216D01*
X40586534Y-44907138D01*
X40182862Y-44503466D01*
X39655439Y-44285000D01*
X39084561Y-44285000D01*
X38557138Y-44503466D01*
X38153466Y-44907138D01*
X38100000Y-45036216D01*
X38046534Y-44907138D01*
X37642862Y-44503466D01*
X37115439Y-44285000D01*
X36544561Y-44285000D01*
X36017138Y-44503466D01*
X35613466Y-44907138D01*
X35560000Y-45036216D01*
X35506534Y-44907138D01*
X35102862Y-44503466D01*
X34575439Y-44285000D01*
X34004561Y-44285000D01*
X33477138Y-44503466D01*
X33073466Y-44907138D01*
X33020000Y-45036216D01*
X32966534Y-44907138D01*
X32562862Y-44503466D01*
X32035439Y-44285000D01*
X31464561Y-44285000D01*
X30937138Y-44503466D01*
X30645000Y-44795604D01*
X30645000Y-44793690D01*
X30548327Y-44560301D01*
X30369698Y-44381673D01*
X30136309Y-44285000D01*
X29495750Y-44285000D01*
X29337000Y-44443750D01*
X29337000Y-45593000D01*
X29357000Y-45593000D01*
X29357000Y-45847000D01*
X29337000Y-45847000D01*
X29337000Y-46996250D01*
X29495750Y-47155000D01*
X30136309Y-47155000D01*
X30369698Y-47058327D01*
X30548327Y-46879699D01*
X30645000Y-46646310D01*
X30645000Y-46644396D01*
X30937138Y-46936534D01*
X31464561Y-47155000D01*
X32035439Y-47155000D01*
X32063302Y-47143459D01*
X35204253Y-50284411D01*
X35248047Y-50349953D01*
X35313589Y-50393747D01*
X35313591Y-50393749D01*
X35466388Y-50495845D01*
X35507708Y-50523454D01*
X35736684Y-50569000D01*
X35736688Y-50569000D01*
X35814000Y-50584378D01*
X35891312Y-50569000D01*
X49048560Y-50569000D01*
X49048560Y-50634000D01*
X49097843Y-50881765D01*
X49238191Y-51091809D01*
X49448235Y-51232157D01*
X49696000Y-51281440D01*
X51396000Y-51281440D01*
X51643765Y-51232157D01*
X51853809Y-51091809D01*
X51994157Y-50881765D01*
X52003184Y-50836381D01*
X52015375Y-50854625D01*
X52506582Y-51182839D01*
X52939744Y-51269000D01*
X53232256Y-51269000D01*
X53665418Y-51182839D01*
X54156625Y-50854625D01*
X54369843Y-50535522D01*
X54430817Y-50665358D01*
X54859076Y-51055645D01*
X55269110Y-51225476D01*
X55499000Y-51104155D01*
X55499000Y-49911000D01*
X55479000Y-49911000D01*
X55479000Y-49657000D01*
X55499000Y-49657000D01*
X55499000Y-49637000D01*
X55753000Y-49637000D01*
X55753000Y-49657000D01*
X55773000Y-49657000D01*
X55773000Y-49911000D01*
X55753000Y-49911000D01*
X55753000Y-51104155D01*
X55982890Y-51225476D01*
X56392924Y-51055645D01*
X56821183Y-50665358D01*
X57056061Y-50165219D01*
X59207253Y-52316411D01*
X59251047Y-52381953D01*
X59316589Y-52425747D01*
X59316591Y-52425749D01*
X59351630Y-52449161D01*
X59510708Y-52555454D01*
X59716560Y-52596400D01*
X59716560Y-52666000D01*
X59765843Y-52913765D01*
X59906191Y-53123809D01*
X60116235Y-53264157D01*
X60364000Y-53313440D01*
X62064000Y-53313440D01*
X62311765Y-53264157D01*
X62521809Y-53123809D01*
X62662157Y-52913765D01*
X62671184Y-52868381D01*
X62683375Y-52886625D01*
X63174582Y-53214839D01*
X63607744Y-53301000D01*
X63900256Y-53301000D01*
X64333418Y-53214839D01*
X64824625Y-52886625D01*
X65037843Y-52567522D01*
X65098817Y-52697358D01*
X65527076Y-53087645D01*
X65937110Y-53257476D01*
X66167000Y-53136155D01*
X66167000Y-51943000D01*
X66421000Y-51943000D01*
X66421000Y-53136155D01*
X66650890Y-53257476D01*
X67060924Y-53087645D01*
X67162706Y-52994887D01*
X96055000Y-52994887D01*
X96055000Y-53685113D01*
X96319138Y-54322799D01*
X96807201Y-54810862D01*
X97444887Y-55075000D01*
X98135113Y-55075000D01*
X98772799Y-54810862D01*
X99260862Y-54322799D01*
X99525000Y-53685113D01*
X99525000Y-52994887D01*
X99260862Y-52357201D01*
X98772799Y-51869138D01*
X98135113Y-51605000D01*
X97444887Y-51605000D01*
X96807201Y-51869138D01*
X96319138Y-52357201D01*
X96055000Y-52994887D01*
X67162706Y-52994887D01*
X67489183Y-52697358D01*
X67735486Y-52172892D01*
X67614819Y-51943000D01*
X66421000Y-51943000D01*
X66167000Y-51943000D01*
X66147000Y-51943000D01*
X66147000Y-51689000D01*
X66167000Y-51689000D01*
X66167000Y-50495845D01*
X66421000Y-50495845D01*
X66421000Y-51689000D01*
X67614819Y-51689000D01*
X67735486Y-51459108D01*
X67489183Y-50934642D01*
X67060924Y-50544355D01*
X66650890Y-50374524D01*
X66421000Y-50495845D01*
X66167000Y-50495845D01*
X65937110Y-50374524D01*
X65527076Y-50544355D01*
X65098817Y-50934642D01*
X65037843Y-51064478D01*
X64824625Y-50745375D01*
X64333418Y-50417161D01*
X63900256Y-50331000D01*
X63607744Y-50331000D01*
X63417083Y-50368925D01*
X60136460Y-47088303D01*
X60502862Y-46936534D01*
X60906534Y-46532862D01*
X60960000Y-46403784D01*
X61013466Y-46532862D01*
X61417138Y-46936534D01*
X61944561Y-47155000D01*
X62515439Y-47155000D01*
X63042862Y-46936534D01*
X63446534Y-46532862D01*
X63500000Y-46403784D01*
X63553466Y-46532862D01*
X63957138Y-46936534D01*
X64484561Y-47155000D01*
X65055439Y-47155000D01*
X65582862Y-46936534D01*
X65986534Y-46532862D01*
X66040000Y-46403784D01*
X66093466Y-46532862D01*
X66497138Y-46936534D01*
X67024561Y-47155000D01*
X67595439Y-47155000D01*
X68122862Y-46936534D01*
X68526534Y-46532862D01*
X68580000Y-46403784D01*
X68633466Y-46532862D01*
X69037138Y-46936534D01*
X69564561Y-47155000D01*
X70135439Y-47155000D01*
X70662862Y-46936534D01*
X71066534Y-46532862D01*
X71120000Y-46403784D01*
X71173466Y-46532862D01*
X71550231Y-46909627D01*
X71603448Y-47177170D01*
X71603449Y-47177171D01*
X71788000Y-47453371D01*
X71857718Y-47499955D01*
X73708845Y-49351083D01*
X73755429Y-49420801D01*
X74031629Y-49605352D01*
X74275193Y-49653800D01*
X74275196Y-49653800D01*
X74357429Y-49670157D01*
X74439662Y-49653800D01*
X98609089Y-49653800D01*
X98651520Y-49696231D01*
X99031926Y-49853800D01*
X99443674Y-49853800D01*
X99824080Y-49696231D01*
X99874001Y-49646310D01*
X99874000Y-55424000D01*
X28396000Y-55424000D01*
X28396000Y-52994887D01*
X28745000Y-52994887D01*
X28745000Y-53685113D01*
X29009138Y-54322799D01*
X29497201Y-54810862D01*
X30134887Y-55075000D01*
X30825113Y-55075000D01*
X31462799Y-54810862D01*
X31950862Y-54322799D01*
X32215000Y-53685113D01*
X32215000Y-52998000D01*
X35332560Y-52998000D01*
X35332560Y-54698000D01*
X35381843Y-54945765D01*
X35522191Y-55155809D01*
X35732235Y-55296157D01*
X35980000Y-55345440D01*
X37680000Y-55345440D01*
X37927765Y-55296157D01*
X38137809Y-55155809D01*
X38278157Y-54945765D01*
X38287184Y-54900381D01*
X38299375Y-54918625D01*
X38790582Y-55246839D01*
X39223744Y-55333000D01*
X39516256Y-55333000D01*
X39949418Y-55246839D01*
X40440625Y-54918625D01*
X40640000Y-54620239D01*
X40839375Y-54918625D01*
X41330582Y-55246839D01*
X41763744Y-55333000D01*
X42056256Y-55333000D01*
X42489418Y-55246839D01*
X42980625Y-54918625D01*
X43180000Y-54620239D01*
X43379375Y-54918625D01*
X43870582Y-55246839D01*
X44303744Y-55333000D01*
X44596256Y-55333000D01*
X45029418Y-55246839D01*
X45520625Y-54918625D01*
X45848839Y-54427418D01*
X45964092Y-53848000D01*
X45848839Y-53268582D01*
X45668042Y-52998000D01*
X49048560Y-52998000D01*
X49048560Y-54698000D01*
X49097843Y-54945765D01*
X49238191Y-55155809D01*
X49448235Y-55296157D01*
X49696000Y-55345440D01*
X51396000Y-55345440D01*
X51643765Y-55296157D01*
X51853809Y-55155809D01*
X51994157Y-54945765D01*
X52003184Y-54900381D01*
X52015375Y-54918625D01*
X52506582Y-55246839D01*
X52939744Y-55333000D01*
X53232256Y-55333000D01*
X53665418Y-55246839D01*
X54156625Y-54918625D01*
X54369843Y-54599522D01*
X54430817Y-54729358D01*
X54859076Y-55119645D01*
X55269110Y-55289476D01*
X55499000Y-55168155D01*
X55499000Y-53975000D01*
X55753000Y-53975000D01*
X55753000Y-55168155D01*
X55982890Y-55289476D01*
X56392924Y-55119645D01*
X56821183Y-54729358D01*
X57067486Y-54204892D01*
X56946819Y-53975000D01*
X55753000Y-53975000D01*
X55499000Y-53975000D01*
X55479000Y-53975000D01*
X55479000Y-53721000D01*
X55499000Y-53721000D01*
X55499000Y-52527845D01*
X55753000Y-52527845D01*
X55753000Y-53721000D01*
X56946819Y-53721000D01*
X57067486Y-53491108D01*
X56821183Y-52966642D01*
X56392924Y-52576355D01*
X55982890Y-52406524D01*
X55753000Y-52527845D01*
X55499000Y-52527845D01*
X55269110Y-52406524D01*
X54859076Y-52576355D01*
X54430817Y-52966642D01*
X54369843Y-53096478D01*
X54156625Y-52777375D01*
X53665418Y-52449161D01*
X53232256Y-52363000D01*
X52939744Y-52363000D01*
X52506582Y-52449161D01*
X52015375Y-52777375D01*
X52003184Y-52795619D01*
X51994157Y-52750235D01*
X51853809Y-52540191D01*
X51643765Y-52399843D01*
X51396000Y-52350560D01*
X49696000Y-52350560D01*
X49448235Y-52399843D01*
X49238191Y-52540191D01*
X49097843Y-52750235D01*
X49048560Y-52998000D01*
X45668042Y-52998000D01*
X45520625Y-52777375D01*
X45029418Y-52449161D01*
X44596256Y-52363000D01*
X44303744Y-52363000D01*
X43870582Y-52449161D01*
X43379375Y-52777375D01*
X43180000Y-53075761D01*
X42980625Y-52777375D01*
X42489418Y-52449161D01*
X42056256Y-52363000D01*
X41763744Y-52363000D01*
X41330582Y-52449161D01*
X40839375Y-52777375D01*
X40640000Y-53075761D01*
X40440625Y-52777375D01*
X39949418Y-52449161D01*
X39516256Y-52363000D01*
X39223744Y-52363000D01*
X38790582Y-52449161D01*
X38299375Y-52777375D01*
X38287184Y-52795619D01*
X38278157Y-52750235D01*
X38137809Y-52540191D01*
X37927765Y-52399843D01*
X37680000Y-52350560D01*
X35980000Y-52350560D01*
X35732235Y-52399843D01*
X35522191Y-52540191D01*
X35381843Y-52750235D01*
X35332560Y-52998000D01*
X32215000Y-52998000D01*
X32215000Y-52994887D01*
X31950862Y-52357201D01*
X31462799Y-51869138D01*
X30825113Y-51605000D01*
X30134887Y-51605000D01*
X29497201Y-51869138D01*
X29009138Y-52357201D01*
X28745000Y-52994887D01*
X28396000Y-52994887D01*
X28396000Y-47155000D01*
X28924250Y-47155000D01*
X29083000Y-46996250D01*
X29083000Y-45847000D01*
X29063000Y-45847000D01*
X29063000Y-45593000D01*
X29083000Y-45593000D01*
X29083000Y-44443750D01*
X28924250Y-44285000D01*
X28396000Y-44285000D01*
X28396000Y-42434561D01*
X34125000Y-42434561D01*
X34125000Y-43005439D01*
X34343466Y-43532862D01*
X34747138Y-43936534D01*
X35274561Y-44155000D01*
X35845439Y-44155000D01*
X36372862Y-43936534D01*
X36776534Y-43532862D01*
X36830000Y-43403784D01*
X36883466Y-43532862D01*
X37287138Y-43936534D01*
X37814561Y-44155000D01*
X38385439Y-44155000D01*
X38912862Y-43936534D01*
X39316534Y-43532862D01*
X39370000Y-43403784D01*
X39423466Y-43532862D01*
X39827138Y-43936534D01*
X40354561Y-44155000D01*
X40925439Y-44155000D01*
X41452862Y-43936534D01*
X41661651Y-43727745D01*
X42351861Y-43727745D01*
X42425995Y-43973864D01*
X42963223Y-44166965D01*
X43533454Y-44139778D01*
X43934005Y-43973864D01*
X44008139Y-43727745D01*
X44891861Y-43727745D01*
X44965995Y-43973864D01*
X45503223Y-44166965D01*
X46073454Y-44139778D01*
X46474005Y-43973864D01*
X46548139Y-43727745D01*
X45720000Y-42899605D01*
X44891861Y-43727745D01*
X44008139Y-43727745D01*
X43180000Y-42899605D01*
X42351861Y-43727745D01*
X41661651Y-43727745D01*
X41856534Y-43532862D01*
X41903525Y-43419417D01*
X41926136Y-43474005D01*
X42172255Y-43548139D01*
X43000395Y-42720000D01*
X43359605Y-42720000D01*
X44187745Y-43548139D01*
X44433864Y-43474005D01*
X44448858Y-43432291D01*
X44466136Y-43474005D01*
X44712255Y-43548139D01*
X45540395Y-42720000D01*
X45899605Y-42720000D01*
X46727745Y-43548139D01*
X46973864Y-43474005D01*
X47166965Y-42936777D01*
X47139778Y-42366546D01*
X46973864Y-41965995D01*
X46727745Y-41891861D01*
X45899605Y-42720000D01*
X45540395Y-42720000D01*
X44712255Y-41891861D01*
X44466136Y-41965995D01*
X44451142Y-42007709D01*
X44433864Y-41965995D01*
X44187745Y-41891861D01*
X43359605Y-42720000D01*
X43000395Y-42720000D01*
X42172255Y-41891861D01*
X41926136Y-41965995D01*
X41905126Y-42024448D01*
X41856534Y-41907138D01*
X41661651Y-41712255D01*
X42351861Y-41712255D01*
X43180000Y-42540395D01*
X44008139Y-41712255D01*
X44891861Y-41712255D01*
X45720000Y-42540395D01*
X46548139Y-41712255D01*
X46474005Y-41466136D01*
X45936777Y-41273035D01*
X45366546Y-41300222D01*
X44965995Y-41466136D01*
X44891861Y-41712255D01*
X44008139Y-41712255D01*
X43934005Y-41466136D01*
X43396777Y-41273035D01*
X42826546Y-41300222D01*
X42425995Y-41466136D01*
X42351861Y-41712255D01*
X41661651Y-41712255D01*
X41452862Y-41503466D01*
X40925439Y-41285000D01*
X40354561Y-41285000D01*
X39827138Y-41503466D01*
X39423466Y-41907138D01*
X39370000Y-42036216D01*
X39316534Y-41907138D01*
X38912862Y-41503466D01*
X38385439Y-41285000D01*
X37814561Y-41285000D01*
X37287138Y-41503466D01*
X36883466Y-41907138D01*
X36830000Y-42036216D01*
X36776534Y-41907138D01*
X36372862Y-41503466D01*
X35845439Y-41285000D01*
X35274561Y-41285000D01*
X34747138Y-41503466D01*
X34343466Y-41907138D01*
X34125000Y-42434561D01*
X28396000Y-42434561D01*
X28396000Y-35274561D01*
X43015000Y-35274561D01*
X43015000Y-35845439D01*
X43233466Y-36372862D01*
X43637138Y-36776534D01*
X43766216Y-36830000D01*
X43637138Y-36883466D01*
X43233466Y-37287138D01*
X43015000Y-37814561D01*
X43015000Y-38385439D01*
X43233466Y-38912862D01*
X43637138Y-39316534D01*
X44164561Y-39535000D01*
X44735439Y-39535000D01*
X45262862Y-39316534D01*
X45666534Y-38912862D01*
X45720000Y-38783784D01*
X45773466Y-38912862D01*
X46177138Y-39316534D01*
X46704561Y-39535000D01*
X47275439Y-39535000D01*
X47802862Y-39316534D01*
X48206534Y-38912862D01*
X48260000Y-38783784D01*
X48313466Y-38912862D01*
X48717138Y-39316534D01*
X49244561Y-39535000D01*
X49815439Y-39535000D01*
X50342862Y-39316534D01*
X50746534Y-38912862D01*
X50800000Y-38783784D01*
X50853466Y-38912862D01*
X51257138Y-39316534D01*
X51784561Y-39535000D01*
X52355439Y-39535000D01*
X52882862Y-39316534D01*
X53286534Y-38912862D01*
X53505000Y-38385439D01*
X53505000Y-37814561D01*
X53286534Y-37287138D01*
X52882862Y-36883466D01*
X52753784Y-36830000D01*
X52882862Y-36776534D01*
X53286534Y-36372862D01*
X53505000Y-35845439D01*
X53505000Y-35274561D01*
X53286534Y-34747138D01*
X52882862Y-34343466D01*
X52355439Y-34125000D01*
X51784561Y-34125000D01*
X51257138Y-34343466D01*
X50853466Y-34747138D01*
X50800000Y-34876216D01*
X50746534Y-34747138D01*
X50342862Y-34343466D01*
X49815439Y-34125000D01*
X49244561Y-34125000D01*
X48717138Y-34343466D01*
X48313466Y-34747138D01*
X48260000Y-34876216D01*
X48206534Y-34747138D01*
X47802862Y-34343466D01*
X47275439Y-34125000D01*
X46704561Y-34125000D01*
X46177138Y-34343466D01*
X45773466Y-34747138D01*
X45720000Y-34876216D01*
X45666534Y-34747138D01*
X45262862Y-34343466D01*
X44735439Y-34125000D01*
X44164561Y-34125000D01*
X43637138Y-34343466D01*
X43233466Y-34747138D01*
X43015000Y-35274561D01*
X28396000Y-35274561D01*
X28396000Y-32734561D01*
X30315000Y-32734561D01*
X30315000Y-33305439D01*
X30533466Y-33832862D01*
X30937138Y-34236534D01*
X31464561Y-34455000D01*
X32035439Y-34455000D01*
X32562862Y-34236534D01*
X32966534Y-33832862D01*
X33185000Y-33305439D01*
X33185000Y-32734561D01*
X32966534Y-32207138D01*
X32562862Y-31803466D01*
X32449417Y-31756475D01*
X32504005Y-31733864D01*
X32578139Y-31487745D01*
X31750000Y-30659605D01*
X30921861Y-31487745D01*
X30995995Y-31733864D01*
X31054448Y-31754874D01*
X30937138Y-31803466D01*
X30533466Y-32207138D01*
X30315000Y-32734561D01*
X28396000Y-32734561D01*
X28396000Y-31695396D01*
X28397138Y-31696534D01*
X28924561Y-31915000D01*
X29495439Y-31915000D01*
X30022862Y-31696534D01*
X30426534Y-31292862D01*
X30473525Y-31179417D01*
X30496136Y-31234005D01*
X30742255Y-31308139D01*
X31570395Y-30480000D01*
X30742255Y-29651861D01*
X30496136Y-29725995D01*
X30475126Y-29784448D01*
X30426534Y-29667138D01*
X30231651Y-29472255D01*
X30921861Y-29472255D01*
X31750000Y-30300395D01*
X32578139Y-29472255D01*
X32504005Y-29226136D01*
X31966777Y-29033035D01*
X31396546Y-29060222D01*
X30995995Y-29226136D01*
X30921861Y-29472255D01*
X30231651Y-29472255D01*
X30022862Y-29263466D01*
X29495439Y-29045000D01*
X28924561Y-29045000D01*
X28397138Y-29263466D01*
X28396000Y-29264604D01*
X28396000Y-28210571D01*
X28410191Y-28231809D01*
X28620235Y-28372157D01*
X28868000Y-28421440D01*
X30568000Y-28421440D01*
X30815765Y-28372157D01*
X31025809Y-28231809D01*
X31166157Y-28021765D01*
X31186739Y-27918292D01*
X31491076Y-28195645D01*
X31901110Y-28365476D01*
X32131000Y-28244155D01*
X32131000Y-27051000D01*
X32385000Y-27051000D01*
X32385000Y-28244155D01*
X32614890Y-28365476D01*
X33024924Y-28195645D01*
X33453183Y-27805358D01*
X33699486Y-27280892D01*
X33578819Y-27051000D01*
X32385000Y-27051000D01*
X32131000Y-27051000D01*
X32111000Y-27051000D01*
X32111000Y-26797000D01*
X32131000Y-26797000D01*
X32131000Y-25603845D01*
X32385000Y-25603845D01*
X32385000Y-26797000D01*
X33578819Y-26797000D01*
X33699486Y-26567108D01*
X33453183Y-26042642D01*
X33024924Y-25652355D01*
X32614890Y-25482524D01*
X32385000Y-25603845D01*
X32131000Y-25603845D01*
X31901110Y-25482524D01*
X31491076Y-25652355D01*
X31186739Y-25929708D01*
X31166157Y-25826235D01*
X31025809Y-25616191D01*
X30815765Y-25475843D01*
X30568000Y-25426560D01*
X28868000Y-25426560D01*
X28620235Y-25475843D01*
X28410191Y-25616191D01*
X28396000Y-25637429D01*
X28396000Y-22514887D01*
X28745000Y-22514887D01*
X28745000Y-23205113D01*
X29009138Y-23842799D01*
X29497201Y-24330862D01*
X30134887Y-24595000D01*
X30825113Y-24595000D01*
X31462799Y-24330862D01*
X31950862Y-23842799D01*
X32215000Y-23205113D01*
X32215000Y-22514887D01*
X32147531Y-22352000D01*
X50555908Y-22352000D01*
X50671161Y-22931418D01*
X50999375Y-23422625D01*
X51490582Y-23750839D01*
X51923744Y-23837000D01*
X52216256Y-23837000D01*
X52649418Y-23750839D01*
X53140625Y-23422625D01*
X53340000Y-23124239D01*
X53539375Y-23422625D01*
X54030582Y-23750839D01*
X54463744Y-23837000D01*
X54756256Y-23837000D01*
X55189418Y-23750839D01*
X55680625Y-23422625D01*
X55880000Y-23124239D01*
X56079375Y-23422625D01*
X56570582Y-23750839D01*
X57003744Y-23837000D01*
X57296256Y-23837000D01*
X57729418Y-23750839D01*
X58220625Y-23422625D01*
X58232816Y-23404381D01*
X58241843Y-23449765D01*
X58382191Y-23659809D01*
X58592235Y-23800157D01*
X58840000Y-23849440D01*
X60540000Y-23849440D01*
X60787765Y-23800157D01*
X60997809Y-23659809D01*
X61138157Y-23449765D01*
X61187440Y-23202000D01*
X61187440Y-21502000D01*
X61138157Y-21254235D01*
X60997809Y-21044191D01*
X60787765Y-20903843D01*
X60540000Y-20854560D01*
X58840000Y-20854560D01*
X58592235Y-20903843D01*
X58382191Y-21044191D01*
X58241843Y-21254235D01*
X58232816Y-21299619D01*
X58220625Y-21281375D01*
X57729418Y-20953161D01*
X57296256Y-20867000D01*
X57003744Y-20867000D01*
X56570582Y-20953161D01*
X56079375Y-21281375D01*
X55880000Y-21579761D01*
X55680625Y-21281375D01*
X55189418Y-20953161D01*
X54756256Y-20867000D01*
X54463744Y-20867000D01*
X54030582Y-20953161D01*
X53539375Y-21281375D01*
X53340000Y-21579761D01*
X53140625Y-21281375D01*
X52649418Y-20953161D01*
X52216256Y-20867000D01*
X51923744Y-20867000D01*
X51490582Y-20953161D01*
X50999375Y-21281375D01*
X50671161Y-21772582D01*
X50555908Y-22352000D01*
X32147531Y-22352000D01*
X31950862Y-21877201D01*
X31462799Y-21389138D01*
X30825113Y-21125000D01*
X30134887Y-21125000D01*
X29497201Y-21389138D01*
X29009138Y-21877201D01*
X28745000Y-22514887D01*
X28396000Y-22514887D01*
X28396000Y-20776000D01*
X64149131Y-20776000D01*
X59598133Y-25327000D01*
G36*
X98352000Y-43850132D02*
X97298134Y-44903999D01*
X94539093Y-44903999D01*
X94476431Y-44752720D01*
X94185280Y-44461569D01*
X93804874Y-44304000D01*
X93393126Y-44304000D01*
X93012720Y-44461569D01*
X92721569Y-44752720D01*
X92564000Y-45133126D01*
X92564000Y-45544874D01*
X92721569Y-45925280D01*
X93012720Y-46216431D01*
X93393126Y-46374000D01*
X93446386Y-46374000D01*
X93673198Y-46525551D01*
X93916762Y-46573999D01*
X93916765Y-46573999D01*
X93998998Y-46590356D01*
X94081231Y-46573999D01*
X97561768Y-46573999D01*
X97644001Y-46590356D01*
X97726234Y-46573999D01*
X97726238Y-46573999D01*
X97969802Y-46525551D01*
X98246002Y-46341000D01*
X98292588Y-46271279D01*
X99719283Y-44844585D01*
X99789001Y-44798001D01*
X99874001Y-44670790D01*
X99874001Y-47991290D01*
X99824080Y-47941369D01*
X99443674Y-47783800D01*
X99031926Y-47783800D01*
X98651520Y-47941369D01*
X98609089Y-47983800D01*
X74703298Y-47983800D01*
X73429447Y-46709949D01*
X73606534Y-46532862D01*
X73660000Y-46403784D01*
X73713466Y-46532862D01*
X74117138Y-46936534D01*
X74644561Y-47155000D01*
X75215439Y-47155000D01*
X75742862Y-46936534D01*
X76146534Y-46532862D01*
X76200000Y-46403784D01*
X76253466Y-46532862D01*
X76657138Y-46936534D01*
X77184561Y-47155000D01*
X77755439Y-47155000D01*
X78282862Y-46936534D01*
X78686534Y-46532862D01*
X78740000Y-46403784D01*
X78793466Y-46532862D01*
X79197138Y-46936534D01*
X79724561Y-47155000D01*
X80295439Y-47155000D01*
X80822862Y-46936534D01*
X81226534Y-46532862D01*
X81280000Y-46403784D01*
X81333466Y-46532862D01*
X81737138Y-46936534D01*
X82264561Y-47155000D01*
X82835439Y-47155000D01*
X83362862Y-46936534D01*
X83766534Y-46532862D01*
X83820000Y-46403784D01*
X83873466Y-46532862D01*
X84277138Y-46936534D01*
X84804561Y-47155000D01*
X85375439Y-47155000D01*
X85902862Y-46936534D01*
X86306534Y-46532862D01*
X86360000Y-46403784D01*
X86413466Y-46532862D01*
X86817138Y-46936534D01*
X87344561Y-47155000D01*
X87915439Y-47155000D01*
X88442862Y-46936534D01*
X88846534Y-46532862D01*
X89065000Y-46005439D01*
X89065000Y-45434561D01*
X88846534Y-44907138D01*
X88442862Y-44503466D01*
X87915439Y-44285000D01*
X87344561Y-44285000D01*
X86817138Y-44503466D01*
X86413466Y-44907138D01*
X86360000Y-45036216D01*
X86306534Y-44907138D01*
X85902862Y-44503466D01*
X85375439Y-44285000D01*
X84804561Y-44285000D01*
X84277138Y-44503466D01*
X83873466Y-44907138D01*
X83820000Y-45036216D01*
X83766534Y-44907138D01*
X83362862Y-44503466D01*
X82835439Y-44285000D01*
X82264561Y-44285000D01*
X81737138Y-44503466D01*
X81333466Y-44907138D01*
X81280000Y-45036216D01*
X81226534Y-44907138D01*
X80822862Y-44503466D01*
X80295439Y-44285000D01*
X79724561Y-44285000D01*
X79197138Y-44503466D01*
X78793466Y-44907138D01*
X78740000Y-45036216D01*
X78686534Y-44907138D01*
X78282862Y-44503466D01*
X77755439Y-44285000D01*
X77545868Y-44285000D01*
X77942868Y-43888000D01*
X88887082Y-43888000D01*
X88969315Y-43904357D01*
X89051548Y-43888000D01*
X89051552Y-43888000D01*
X89295116Y-43839552D01*
X89571316Y-43655001D01*
X89617902Y-43585280D01*
X97432845Y-35770338D01*
X97584126Y-35833000D01*
X97995874Y-35833000D01*
X98352001Y-35685488D01*
X98352000Y-43850132D01*
X98352000Y-43850132D01*
G37*
X98352000Y-43850132D02*
X97298134Y-44903999D01*
X94539093Y-44903999D01*
X94476431Y-44752720D01*
X94185280Y-44461569D01*
X93804874Y-44304000D01*
X93393126Y-44304000D01*
X93012720Y-44461569D01*
X92721569Y-44752720D01*
X92564000Y-45133126D01*
X92564000Y-45544874D01*
X92721569Y-45925280D01*
X93012720Y-46216431D01*
X93393126Y-46374000D01*
X93446386Y-46374000D01*
X93673198Y-46525551D01*
X93916762Y-46573999D01*
X93916765Y-46573999D01*
X93998998Y-46590356D01*
X94081231Y-46573999D01*
X97561768Y-46573999D01*
X97644001Y-46590356D01*
X97726234Y-46573999D01*
X97726238Y-46573999D01*
X97969802Y-46525551D01*
X98246002Y-46341000D01*
X98292588Y-46271279D01*
X99719283Y-44844585D01*
X99789001Y-44798001D01*
X99874001Y-44670790D01*
X99874001Y-47991290D01*
X99824080Y-47941369D01*
X99443674Y-47783800D01*
X99031926Y-47783800D01*
X98651520Y-47941369D01*
X98609089Y-47983800D01*
X74703298Y-47983800D01*
X73429447Y-46709949D01*
X73606534Y-46532862D01*
X73660000Y-46403784D01*
X73713466Y-46532862D01*
X74117138Y-46936534D01*
X74644561Y-47155000D01*
X75215439Y-47155000D01*
X75742862Y-46936534D01*
X76146534Y-46532862D01*
X76200000Y-46403784D01*
X76253466Y-46532862D01*
X76657138Y-46936534D01*
X77184561Y-47155000D01*
X77755439Y-47155000D01*
X78282862Y-46936534D01*
X78686534Y-46532862D01*
X78740000Y-46403784D01*
X78793466Y-46532862D01*
X79197138Y-46936534D01*
X79724561Y-47155000D01*
X80295439Y-47155000D01*
X80822862Y-46936534D01*
X81226534Y-46532862D01*
X81280000Y-46403784D01*
X81333466Y-46532862D01*
X81737138Y-46936534D01*
X82264561Y-47155000D01*
X82835439Y-47155000D01*
X83362862Y-46936534D01*
X83766534Y-46532862D01*
X83820000Y-46403784D01*
X83873466Y-46532862D01*
X84277138Y-46936534D01*
X84804561Y-47155000D01*
X85375439Y-47155000D01*
X85902862Y-46936534D01*
X86306534Y-46532862D01*
X86360000Y-46403784D01*
X86413466Y-46532862D01*
X86817138Y-46936534D01*
X87344561Y-47155000D01*
X87915439Y-47155000D01*
X88442862Y-46936534D01*
X88846534Y-46532862D01*
X89065000Y-46005439D01*
X89065000Y-45434561D01*
X88846534Y-44907138D01*
X88442862Y-44503466D01*
X87915439Y-44285000D01*
X87344561Y-44285000D01*
X86817138Y-44503466D01*
X86413466Y-44907138D01*
X86360000Y-45036216D01*
X86306534Y-44907138D01*
X85902862Y-44503466D01*
X85375439Y-44285000D01*
X84804561Y-44285000D01*
X84277138Y-44503466D01*
X83873466Y-44907138D01*
X83820000Y-45036216D01*
X83766534Y-44907138D01*
X83362862Y-44503466D01*
X82835439Y-44285000D01*
X82264561Y-44285000D01*
X81737138Y-44503466D01*
X81333466Y-44907138D01*
X81280000Y-45036216D01*
X81226534Y-44907138D01*
X80822862Y-44503466D01*
X80295439Y-44285000D01*
X79724561Y-44285000D01*
X79197138Y-44503466D01*
X78793466Y-44907138D01*
X78740000Y-45036216D01*
X78686534Y-44907138D01*
X78282862Y-44503466D01*
X77755439Y-44285000D01*
X77545868Y-44285000D01*
X77942868Y-43888000D01*
X88887082Y-43888000D01*
X88969315Y-43904357D01*
X89051548Y-43888000D01*
X89051552Y-43888000D01*
X89295116Y-43839552D01*
X89571316Y-43655001D01*
X89617902Y-43585280D01*
X97432845Y-35770338D01*
X97584126Y-35833000D01*
X97995874Y-35833000D01*
X98352001Y-35685488D01*
X98352000Y-43850132D01*
G04 #@! TD*
M02*
