M48
;DRILL file {KiCad (5.0.2)-1} date 13/02/2019 01:18:47
;FORMAT={3:3/ absolute / metric / suppress leading zeros}
FMAT,2
METRIC,TZ
T1C0.400
T2C1.000
T3C1.100
%
G90
G05
T1
X89916Y-30988
X91186Y-30988
X93599Y-45339
X95606Y-38176
X96774Y-44196
X97790Y-34798
X98044Y-33655
X99238Y-48819
T2
X29718Y-26924
X32258Y-26924
X36830Y-53848
X39370Y-53848
X41910Y-53848
X44450Y-53848
X61214Y-51816
X63754Y-51816
X66294Y-51816
X82042Y-22352
X82042Y-24892
X84582Y-22352
X84582Y-24892
X87122Y-22352
X87122Y-24892
X67564Y-22352
X70104Y-22352
X72644Y-22352
X50546Y-53848
X53086Y-53848
X55626Y-53848
X50546Y-49784
X53086Y-49784
X55626Y-49784
X52070Y-22352
X54610Y-22352
X57150Y-22352
X59690Y-22352
T3
X29210Y-30480
X29210Y-45720
X31750Y-30480
X31750Y-33020
X31750Y-45720
X34290Y-30480
X34290Y-45720
X35560Y-42720
X36830Y-30480
X36830Y-33020
X36830Y-45720
X38100Y-42720
X39370Y-30480
X39370Y-33020
X39370Y-45720
X40640Y-42720
X41910Y-30480
X41910Y-33020
X41910Y-45720
X43180Y-42720
X44450Y-30480
X44450Y-35560
X44450Y-38100
X44450Y-45720
X45720Y-42720
X46990Y-30480
X46990Y-35560
X46990Y-38100
X46990Y-45720
X49530Y-30480
X49530Y-35560
X49530Y-38100
X49530Y-45720
X52070Y-30480
X52070Y-35560
X52070Y-38100
X52070Y-45720
X54610Y-30480
X54610Y-45720
X57150Y-30480
X57150Y-45720
X59690Y-30480
X59690Y-45720
X62230Y-30480
X62230Y-45720
X64770Y-30480
X64770Y-45720
X67310Y-30480
X67310Y-35560
X67310Y-38100
X67310Y-45720
X69850Y-30480
X69850Y-35560
X69850Y-38100
X69850Y-45720
X72390Y-30480
X72390Y-35560
X72390Y-38100
X72390Y-45720
X74930Y-30480
X74930Y-33020
X74930Y-35560
X74930Y-38100
X74930Y-40640
X74930Y-43180
X74930Y-45720
X77470Y-30480
X77470Y-35560
X77470Y-38100
X77470Y-45720
X80010Y-30480
X80010Y-35560
X80010Y-38100
X80010Y-45720
X82550Y-30480
X82550Y-35560
X82550Y-38100
X82550Y-45720
X85090Y-30480
X85090Y-35560
X85090Y-38100
X85090Y-45720
X87630Y-30480
X87630Y-35560
X87630Y-38100
X87630Y-45720
T0
M30
