G04 #@! TF.GenerationSoftware,KiCad,Pcbnew,(5.0.2)-1*
G04 #@! TF.CreationDate,2019-02-13T01:18:52+00:00*
G04 #@! TF.ProjectId,TeensyBikeShield,5465656e-7379-4426-996b-65536869656c,rev?*
G04 #@! TF.SameCoordinates,Original*
G04 #@! TF.FileFunction,Legend,Top*
G04 #@! TF.FilePolarity,Positive*
%FSLAX46Y46*%
G04 Gerber Fmt 4.6, Leading zero omitted, Abs format (unit mm)*
G04 Created by KiCad (PCBNEW (5.0.2)-1) date 13/02/2019 01:18:52*
%MOMM*%
%LPD*%
G01*
G04 APERTURE LIST*
%ADD10C,0.125000*%
%ADD11C,0.120000*%
%ADD12C,0.200000*%
%ADD13C,0.127000*%
%ADD14C,0.304800*%
%ADD15C,0.150000*%
%ADD16C,0.187500*%
%ADD17C,0.050000*%
G04 APERTURE END LIST*
D10*
X34294000Y-27304952D02*
X34270190Y-27352571D01*
X34270190Y-27424000D01*
X34294000Y-27495428D01*
X34341619Y-27543047D01*
X34389238Y-27566857D01*
X34484476Y-27590666D01*
X34555904Y-27590666D01*
X34651142Y-27566857D01*
X34698761Y-27543047D01*
X34746380Y-27495428D01*
X34770190Y-27424000D01*
X34770190Y-27376380D01*
X34746380Y-27304952D01*
X34722571Y-27281142D01*
X34555904Y-27281142D01*
X34555904Y-27376380D01*
X34770190Y-27066857D02*
X34270190Y-27066857D01*
X34770190Y-26781142D01*
X34270190Y-26781142D01*
X34770190Y-26543047D02*
X34270190Y-26543047D01*
X34270190Y-26424000D01*
X34294000Y-26352571D01*
X34341619Y-26304952D01*
X34389238Y-26281142D01*
X34484476Y-26257333D01*
X34555904Y-26257333D01*
X34651142Y-26281142D01*
X34698761Y-26304952D01*
X34746380Y-26352571D01*
X34770190Y-26424000D01*
X34770190Y-26543047D01*
X89158000Y-22732952D02*
X89134190Y-22780571D01*
X89134190Y-22852000D01*
X89158000Y-22923428D01*
X89205619Y-22971047D01*
X89253238Y-22994857D01*
X89348476Y-23018666D01*
X89419904Y-23018666D01*
X89515142Y-22994857D01*
X89562761Y-22971047D01*
X89610380Y-22923428D01*
X89634190Y-22852000D01*
X89634190Y-22804380D01*
X89610380Y-22732952D01*
X89586571Y-22709142D01*
X89419904Y-22709142D01*
X89419904Y-22804380D01*
X89634190Y-22494857D02*
X89134190Y-22494857D01*
X89634190Y-22209142D01*
X89134190Y-22209142D01*
X89634190Y-21971047D02*
X89134190Y-21971047D01*
X89134190Y-21852000D01*
X89158000Y-21780571D01*
X89205619Y-21732952D01*
X89253238Y-21709142D01*
X89348476Y-21685333D01*
X89419904Y-21685333D01*
X89515142Y-21709142D01*
X89562761Y-21732952D01*
X89610380Y-21780571D01*
X89634190Y-21852000D01*
X89634190Y-21971047D01*
X89134190Y-25511047D02*
X89134190Y-25201523D01*
X89324666Y-25368190D01*
X89324666Y-25296761D01*
X89348476Y-25249142D01*
X89372285Y-25225333D01*
X89419904Y-25201523D01*
X89538952Y-25201523D01*
X89586571Y-25225333D01*
X89610380Y-25249142D01*
X89634190Y-25296761D01*
X89634190Y-25439619D01*
X89610380Y-25487238D01*
X89586571Y-25511047D01*
X89134190Y-25058666D02*
X89634190Y-24892000D01*
X89134190Y-24725333D01*
X89134190Y-24606285D02*
X89134190Y-24296761D01*
X89324666Y-24463428D01*
X89324666Y-24392000D01*
X89348476Y-24344380D01*
X89372285Y-24320571D01*
X89419904Y-24296761D01*
X89538952Y-24296761D01*
X89586571Y-24320571D01*
X89610380Y-24344380D01*
X89634190Y-24392000D01*
X89634190Y-24534857D01*
X89610380Y-24582476D01*
X89586571Y-24606285D01*
D11*
G04 #@! TO.C,ANALOG*
X50740000Y-21022000D02*
X50740000Y-23682000D01*
X58420000Y-21022000D02*
X50740000Y-21022000D01*
X58420000Y-23682000D02*
X50740000Y-23682000D01*
X58420000Y-21022000D02*
X58420000Y-23682000D01*
X59690000Y-21022000D02*
X61020000Y-21022000D01*
X61020000Y-21022000D02*
X61020000Y-22352000D01*
G04 #@! TO.C,C1*
X95770000Y-41822000D02*
X94770000Y-41822000D01*
X94770000Y-43522000D02*
X95770000Y-43522000D01*
G04 #@! TO.C,C2*
X94770000Y-34378000D02*
X95770000Y-34378000D01*
X95770000Y-32678000D02*
X94770000Y-32678000D01*
G04 #@! TO.C,C3*
X46216000Y-27520000D02*
X47216000Y-27520000D01*
X47216000Y-25820000D02*
X46216000Y-25820000D01*
G04 #@! TO.C,C4*
X98337000Y-38362000D02*
X98337000Y-39362000D01*
X100037000Y-39362000D02*
X100037000Y-38362000D01*
G04 #@! TO.C,C5*
X90336000Y-43295000D02*
X90336000Y-44295000D01*
X92036000Y-44295000D02*
X92036000Y-43295000D01*
G04 #@! TO.C,C6*
X46062000Y-23380000D02*
X46062000Y-22380000D01*
X44362000Y-22380000D02*
X44362000Y-23380000D01*
G04 #@! TO.C,C7*
X90336000Y-34298000D02*
X90336000Y-35298000D01*
X92036000Y-35298000D02*
X92036000Y-34298000D01*
G04 #@! TO.C,D1*
X73726000Y-54376000D02*
X75626000Y-54376000D01*
X75626000Y-54376000D02*
X75626000Y-49676000D01*
X73726000Y-54376000D02*
X73726000Y-49676000D01*
G04 #@! TO.C,D2*
X76266000Y-54376000D02*
X76266000Y-49676000D01*
X78166000Y-54376000D02*
X78166000Y-49676000D01*
X76266000Y-54376000D02*
X78166000Y-54376000D01*
G04 #@! TO.C,DIGITAL*
X35500000Y-55178000D02*
X35500000Y-53848000D01*
X36830000Y-55178000D02*
X35500000Y-55178000D01*
X38100000Y-55178000D02*
X38100000Y-52518000D01*
X38100000Y-52518000D02*
X45780000Y-52518000D01*
X38100000Y-55178000D02*
X45780000Y-55178000D01*
X45780000Y-55178000D02*
X45780000Y-52518000D01*
G04 #@! TO.C,I2C*
X66234000Y-23682000D02*
X66234000Y-22352000D01*
X67564000Y-23682000D02*
X66234000Y-23682000D01*
X68834000Y-23682000D02*
X68834000Y-21022000D01*
X68834000Y-21022000D02*
X73974000Y-21022000D01*
X68834000Y-23682000D02*
X73974000Y-23682000D01*
X73974000Y-23682000D02*
X73974000Y-21022000D01*
D12*
G04 #@! TO.C,REG*
X40245000Y-27380000D02*
X38495000Y-27380000D01*
X38495000Y-27380000D02*
X38495000Y-20880000D01*
X38495000Y-20880000D02*
X40245000Y-20880000D01*
X40245000Y-20880000D02*
X40245000Y-27380000D01*
X43345000Y-27255000D02*
X40595000Y-27255000D01*
D13*
G04 #@! TO.C,IMU*
X93350000Y-40700000D02*
X97150000Y-40700000D01*
X97150000Y-40700000D02*
X97150000Y-35500000D01*
X97150000Y-35500000D02*
X93350000Y-35500000D01*
X93350000Y-35500000D02*
X93350000Y-40700000D01*
D14*
X93050000Y-40300000D02*
G75*
G03X93050000Y-40300000I-100000J0D01*
G01*
D11*
G04 #@! TO.C,OSC*
X91986000Y-40508000D02*
X91986000Y-38108000D01*
X90386000Y-40508000D02*
X91986000Y-40508000D01*
X90386000Y-38108000D02*
X90386000Y-40508000D01*
G04 #@! TO.C,Vin*
X28388000Y-28254000D02*
X28388000Y-26924000D01*
X29718000Y-28254000D02*
X28388000Y-28254000D01*
X30988000Y-28254000D02*
X30988000Y-25594000D01*
X30988000Y-25594000D02*
X33588000Y-25594000D01*
X30988000Y-28254000D02*
X33588000Y-28254000D01*
X33588000Y-28254000D02*
X33588000Y-25594000D01*
G04 #@! TO.C,PWR*
X34310000Y-49972000D02*
X29610000Y-49972000D01*
X34310000Y-48072000D02*
X29610000Y-48072000D01*
X34310000Y-49972000D02*
X34310000Y-48072000D01*
G04 #@! TO.C,R1*
X100067000Y-43342000D02*
X100067000Y-44542000D01*
X98307000Y-44542000D02*
X98307000Y-43342000D01*
G04 #@! TO.C,R2*
X100067000Y-33102000D02*
X100067000Y-34302000D01*
X98307000Y-34302000D02*
X98307000Y-33102000D01*
G04 #@! TO.C,R3*
X38145000Y-49902000D02*
X36945000Y-49902000D01*
X36945000Y-48142000D02*
X38145000Y-48142000D01*
G04 #@! TO.C,R4*
X72150520Y-28566000D02*
X70950520Y-28566000D01*
X70950520Y-26806000D02*
X72150520Y-26806000D01*
G04 #@! TO.C,R5*
X71002000Y-52590000D02*
X71002000Y-51390000D01*
X72762000Y-51390000D02*
X72762000Y-52590000D01*
G04 #@! TO.C,R6*
X80890000Y-51390000D02*
X80890000Y-52590000D01*
X79130000Y-52590000D02*
X79130000Y-51390000D01*
G04 #@! TO.C,R7*
X70948000Y-24520000D02*
X72148000Y-24520000D01*
X72148000Y-26280000D02*
X70948000Y-26280000D01*
D15*
G04 #@! TO.C,*
X44450000Y-34290000D02*
X44450000Y-36830000D01*
X44450000Y-36830000D02*
X46990000Y-36830000D01*
X46990000Y-36830000D02*
X46990000Y-34290000D01*
X46990000Y-34290000D02*
X44450000Y-34290000D01*
X52070000Y-43180000D02*
X48260000Y-43180000D01*
X48260000Y-43180000D02*
X48260000Y-40640000D01*
X48260000Y-40640000D02*
X52070000Y-40640000D01*
X52070000Y-40640000D02*
X52070000Y-43180000D01*
X66040000Y-44450000D02*
X66040000Y-31750000D01*
X53340000Y-31750000D02*
X53340000Y-44450000D01*
X53340000Y-44450000D02*
X66040000Y-44450000D01*
X53340000Y-31750000D02*
X66040000Y-31750000D01*
X87630000Y-43180000D02*
X88900000Y-43180000D01*
X87630000Y-41910000D02*
X88900000Y-41910000D01*
X87630000Y-40640000D02*
X88900000Y-40640000D01*
X87630000Y-39370000D02*
X88900000Y-39370000D01*
X87630000Y-38100000D02*
X88900000Y-38100000D01*
X87630000Y-36830000D02*
X88900000Y-36830000D01*
X87630000Y-35560000D02*
X88900000Y-35560000D01*
X87630000Y-34290000D02*
X88900000Y-34290000D01*
X87630000Y-33020000D02*
X88900000Y-33020000D01*
X88900000Y-44450000D02*
X87630000Y-43180000D01*
X87630000Y-43180000D02*
X87630000Y-33020000D01*
X87630000Y-33020000D02*
X88900000Y-31750000D01*
X88900000Y-31750000D02*
X76200000Y-31750000D01*
X76200000Y-31750000D02*
X76200000Y-44450000D01*
X76200000Y-44450000D02*
X88900000Y-44450000D01*
X88900000Y-29210000D02*
X27940000Y-29210000D01*
X27940000Y-46990000D02*
X88900000Y-46990000D01*
X27940000Y-41910000D02*
X26670000Y-41910000D01*
X26670000Y-41910000D02*
X26670000Y-34290000D01*
X26670000Y-34290000D02*
X27940000Y-34290000D01*
X33020000Y-41910000D02*
X33020000Y-34290000D01*
X33020000Y-34290000D02*
X27940000Y-34290000D01*
X33020000Y-41910000D02*
X27940000Y-41910000D01*
X72390000Y-35560000D02*
X72390000Y-40640000D01*
X72390000Y-40640000D02*
X69850000Y-40640000D01*
X69850000Y-40640000D02*
X69850000Y-35560000D01*
X69850000Y-35560000D02*
X72390000Y-35560000D01*
X88900000Y-29210000D02*
X88900000Y-46990000D01*
X27940000Y-46990000D02*
X27940000Y-29210000D01*
D11*
G04 #@! TO.C,UART1*
X56956000Y-51114000D02*
X56956000Y-48454000D01*
X51816000Y-51114000D02*
X56956000Y-51114000D01*
X51816000Y-48454000D02*
X56956000Y-48454000D01*
X51816000Y-51114000D02*
X51816000Y-48454000D01*
X50546000Y-51114000D02*
X49216000Y-51114000D01*
X49216000Y-51114000D02*
X49216000Y-49784000D01*
G04 #@! TO.C,UART2*
X49216000Y-55178000D02*
X49216000Y-53848000D01*
X50546000Y-55178000D02*
X49216000Y-55178000D01*
X51816000Y-55178000D02*
X51816000Y-52518000D01*
X51816000Y-52518000D02*
X56956000Y-52518000D01*
X51816000Y-55178000D02*
X56956000Y-55178000D01*
X56956000Y-55178000D02*
X56956000Y-52518000D01*
G04 #@! TO.C,UART3*
X67624000Y-53146000D02*
X67624000Y-50486000D01*
X62484000Y-53146000D02*
X67624000Y-53146000D01*
X62484000Y-50486000D02*
X67624000Y-50486000D01*
X62484000Y-53146000D02*
X62484000Y-50486000D01*
X61214000Y-53146000D02*
X59884000Y-53146000D01*
X59884000Y-53146000D02*
X59884000Y-51816000D01*
G04 #@! TO.C,*
X88452000Y-26222000D02*
X88452000Y-21022000D01*
X83312000Y-26222000D02*
X88452000Y-26222000D01*
X80712000Y-21022000D02*
X88452000Y-21022000D01*
X83312000Y-26222000D02*
X83312000Y-23622000D01*
X83312000Y-23622000D02*
X80712000Y-23622000D01*
X80712000Y-23622000D02*
X80712000Y-21022000D01*
X82042000Y-26222000D02*
X80712000Y-26222000D01*
X80712000Y-26222000D02*
X80712000Y-24892000D01*
D15*
G04 #@! TO.C,ANALOG*
D10*
X52871523Y-24554666D02*
X52633428Y-24554666D01*
X52919142Y-24411809D02*
X52752476Y-24911809D01*
X52585809Y-24411809D01*
X52419142Y-24411809D02*
X52419142Y-24911809D01*
X52133428Y-24411809D01*
X52133428Y-24911809D01*
X51919142Y-24554666D02*
X51681047Y-24554666D01*
X51966761Y-24411809D02*
X51800095Y-24911809D01*
X51633428Y-24411809D01*
X51228666Y-24411809D02*
X51466761Y-24411809D01*
X51466761Y-24911809D01*
X50966761Y-24911809D02*
X50871523Y-24911809D01*
X50823904Y-24888000D01*
X50776285Y-24840380D01*
X50752476Y-24745142D01*
X50752476Y-24578476D01*
X50776285Y-24483238D01*
X50823904Y-24435619D01*
X50871523Y-24411809D01*
X50966761Y-24411809D01*
X51014380Y-24435619D01*
X51062000Y-24483238D01*
X51085809Y-24578476D01*
X51085809Y-24745142D01*
X51062000Y-24840380D01*
X51014380Y-24888000D01*
X50966761Y-24911809D01*
X50276285Y-24888000D02*
X50323904Y-24911809D01*
X50395333Y-24911809D01*
X50466761Y-24888000D01*
X50514380Y-24840380D01*
X50538190Y-24792761D01*
X50562000Y-24697523D01*
X50562000Y-24626095D01*
X50538190Y-24530857D01*
X50514380Y-24483238D01*
X50466761Y-24435619D01*
X50395333Y-24411809D01*
X50347714Y-24411809D01*
X50276285Y-24435619D01*
X50252476Y-24459428D01*
X50252476Y-24626095D01*
X50347714Y-24626095D01*
G04 #@! TO.C,C1*
D15*
X95103333Y-44807142D02*
X95055714Y-44854761D01*
X94912857Y-44902380D01*
X94817619Y-44902380D01*
X94674761Y-44854761D01*
X94579523Y-44759523D01*
X94531904Y-44664285D01*
X94484285Y-44473809D01*
X94484285Y-44330952D01*
X94531904Y-44140476D01*
X94579523Y-44045238D01*
X94674761Y-43950000D01*
X94817619Y-43902380D01*
X94912857Y-43902380D01*
X95055714Y-43950000D01*
X95103333Y-43997619D01*
X96055714Y-44902380D02*
X95484285Y-44902380D01*
X95770000Y-44902380D02*
X95770000Y-43902380D01*
X95674761Y-44045238D01*
X95579523Y-44140476D01*
X95484285Y-44188095D01*
G04 #@! TO.C,C2*
X95103333Y-32135142D02*
X95055714Y-32182761D01*
X94912857Y-32230380D01*
X94817619Y-32230380D01*
X94674761Y-32182761D01*
X94579523Y-32087523D01*
X94531904Y-31992285D01*
X94484285Y-31801809D01*
X94484285Y-31658952D01*
X94531904Y-31468476D01*
X94579523Y-31373238D01*
X94674761Y-31278000D01*
X94817619Y-31230380D01*
X94912857Y-31230380D01*
X95055714Y-31278000D01*
X95103333Y-31325619D01*
X95484285Y-31325619D02*
X95531904Y-31278000D01*
X95627142Y-31230380D01*
X95865238Y-31230380D01*
X95960476Y-31278000D01*
X96008095Y-31325619D01*
X96055714Y-31420857D01*
X96055714Y-31516095D01*
X96008095Y-31658952D01*
X95436666Y-32230380D01*
X96055714Y-32230380D01*
G04 #@! TO.C,C3*
X50141142Y-26836666D02*
X50188761Y-26884285D01*
X50236380Y-27027142D01*
X50236380Y-27122380D01*
X50188761Y-27265238D01*
X50093523Y-27360476D01*
X49998285Y-27408095D01*
X49807809Y-27455714D01*
X49664952Y-27455714D01*
X49474476Y-27408095D01*
X49379238Y-27360476D01*
X49284000Y-27265238D01*
X49236380Y-27122380D01*
X49236380Y-27027142D01*
X49284000Y-26884285D01*
X49331619Y-26836666D01*
X49236380Y-26503333D02*
X49236380Y-25884285D01*
X49617333Y-26217619D01*
X49617333Y-26074761D01*
X49664952Y-25979523D01*
X49712571Y-25931904D01*
X49807809Y-25884285D01*
X50045904Y-25884285D01*
X50141142Y-25931904D01*
X50188761Y-25979523D01*
X50236380Y-26074761D01*
X50236380Y-26360476D01*
X50188761Y-26455714D01*
X50141142Y-26503333D01*
G04 #@! TO.C,C4*
X99020333Y-39219142D02*
X98972714Y-39266761D01*
X98829857Y-39314380D01*
X98734619Y-39314380D01*
X98591761Y-39266761D01*
X98496523Y-39171523D01*
X98448904Y-39076285D01*
X98401285Y-38885809D01*
X98401285Y-38742952D01*
X98448904Y-38552476D01*
X98496523Y-38457238D01*
X98591761Y-38362000D01*
X98734619Y-38314380D01*
X98829857Y-38314380D01*
X98972714Y-38362000D01*
X99020333Y-38409619D01*
X99877476Y-38647714D02*
X99877476Y-39314380D01*
X99639380Y-38266761D02*
X99401285Y-38981047D01*
X100020333Y-38981047D01*
G04 #@! TO.C,C5*
X90019142Y-43961666D02*
X90066761Y-44009285D01*
X90114380Y-44152142D01*
X90114380Y-44247380D01*
X90066761Y-44390238D01*
X89971523Y-44485476D01*
X89876285Y-44533095D01*
X89685809Y-44580714D01*
X89542952Y-44580714D01*
X89352476Y-44533095D01*
X89257238Y-44485476D01*
X89162000Y-44390238D01*
X89114380Y-44247380D01*
X89114380Y-44152142D01*
X89162000Y-44009285D01*
X89209619Y-43961666D01*
X89114380Y-43056904D02*
X89114380Y-43533095D01*
X89590571Y-43580714D01*
X89542952Y-43533095D01*
X89495333Y-43437857D01*
X89495333Y-43199761D01*
X89542952Y-43104523D01*
X89590571Y-43056904D01*
X89685809Y-43009285D01*
X89923904Y-43009285D01*
X90019142Y-43056904D01*
X90066761Y-43104523D01*
X90114380Y-43199761D01*
X90114380Y-43437857D01*
X90066761Y-43533095D01*
X90019142Y-43580714D01*
G04 #@! TO.C,C6*
X47319142Y-23046666D02*
X47366761Y-23094285D01*
X47414380Y-23237142D01*
X47414380Y-23332380D01*
X47366761Y-23475238D01*
X47271523Y-23570476D01*
X47176285Y-23618095D01*
X46985809Y-23665714D01*
X46842952Y-23665714D01*
X46652476Y-23618095D01*
X46557238Y-23570476D01*
X46462000Y-23475238D01*
X46414380Y-23332380D01*
X46414380Y-23237142D01*
X46462000Y-23094285D01*
X46509619Y-23046666D01*
X46414380Y-22189523D02*
X46414380Y-22380000D01*
X46462000Y-22475238D01*
X46509619Y-22522857D01*
X46652476Y-22618095D01*
X46842952Y-22665714D01*
X47223904Y-22665714D01*
X47319142Y-22618095D01*
X47366761Y-22570476D01*
X47414380Y-22475238D01*
X47414380Y-22284761D01*
X47366761Y-22189523D01*
X47319142Y-22141904D01*
X47223904Y-22094285D01*
X46985809Y-22094285D01*
X46890571Y-22141904D01*
X46842952Y-22189523D01*
X46795333Y-22284761D01*
X46795333Y-22475238D01*
X46842952Y-22570476D01*
X46890571Y-22618095D01*
X46985809Y-22665714D01*
G04 #@! TO.C,C7*
X90019142Y-34964666D02*
X90066761Y-35012285D01*
X90114380Y-35155142D01*
X90114380Y-35250380D01*
X90066761Y-35393238D01*
X89971523Y-35488476D01*
X89876285Y-35536095D01*
X89685809Y-35583714D01*
X89542952Y-35583714D01*
X89352476Y-35536095D01*
X89257238Y-35488476D01*
X89162000Y-35393238D01*
X89114380Y-35250380D01*
X89114380Y-35155142D01*
X89162000Y-35012285D01*
X89209619Y-34964666D01*
X89114380Y-34631333D02*
X89114380Y-33964666D01*
X90114380Y-34393238D01*
G04 #@! TO.C,D1*
X75128380Y-52014095D02*
X74128380Y-52014095D01*
X74128380Y-51776000D01*
X74176000Y-51633142D01*
X74271238Y-51537904D01*
X74366476Y-51490285D01*
X74556952Y-51442666D01*
X74699809Y-51442666D01*
X74890285Y-51490285D01*
X74985523Y-51537904D01*
X75080761Y-51633142D01*
X75128380Y-51776000D01*
X75128380Y-52014095D01*
X75128380Y-50490285D02*
X75128380Y-51061714D01*
X75128380Y-50776000D02*
X74128380Y-50776000D01*
X74271238Y-50871238D01*
X74366476Y-50966476D01*
X74414095Y-51061714D01*
G04 #@! TO.C,D2*
X77668380Y-52014095D02*
X76668380Y-52014095D01*
X76668380Y-51776000D01*
X76716000Y-51633142D01*
X76811238Y-51537904D01*
X76906476Y-51490285D01*
X77096952Y-51442666D01*
X77239809Y-51442666D01*
X77430285Y-51490285D01*
X77525523Y-51537904D01*
X77620761Y-51633142D01*
X77668380Y-51776000D01*
X77668380Y-52014095D01*
X76763619Y-51061714D02*
X76716000Y-51014095D01*
X76668380Y-50918857D01*
X76668380Y-50680761D01*
X76716000Y-50585523D01*
X76763619Y-50537904D01*
X76858857Y-50490285D01*
X76954095Y-50490285D01*
X77096952Y-50537904D01*
X77668380Y-51109333D01*
X77668380Y-50490285D01*
G04 #@! TO.C,DIGITAL*
D10*
X43731809Y-51788190D02*
X43731809Y-51288190D01*
X43850857Y-51288190D01*
X43922285Y-51312000D01*
X43969904Y-51359619D01*
X43993714Y-51407238D01*
X44017523Y-51502476D01*
X44017523Y-51573904D01*
X43993714Y-51669142D01*
X43969904Y-51716761D01*
X43922285Y-51764380D01*
X43850857Y-51788190D01*
X43731809Y-51788190D01*
X44231809Y-51788190D02*
X44231809Y-51288190D01*
X44731809Y-51312000D02*
X44684190Y-51288190D01*
X44612761Y-51288190D01*
X44541333Y-51312000D01*
X44493714Y-51359619D01*
X44469904Y-51407238D01*
X44446095Y-51502476D01*
X44446095Y-51573904D01*
X44469904Y-51669142D01*
X44493714Y-51716761D01*
X44541333Y-51764380D01*
X44612761Y-51788190D01*
X44660380Y-51788190D01*
X44731809Y-51764380D01*
X44755619Y-51740571D01*
X44755619Y-51573904D01*
X44660380Y-51573904D01*
X44969904Y-51788190D02*
X44969904Y-51288190D01*
X45136571Y-51288190D02*
X45422285Y-51288190D01*
X45279428Y-51788190D02*
X45279428Y-51288190D01*
X45565142Y-51645333D02*
X45803238Y-51645333D01*
X45517523Y-51788190D02*
X45684190Y-51288190D01*
X45850857Y-51788190D01*
X46255619Y-51788190D02*
X46017523Y-51788190D01*
X46017523Y-51288190D01*
G04 #@! TO.C,I2C*
X66782095Y-24411809D02*
X66782095Y-24911809D01*
X66567809Y-24864190D02*
X66544000Y-24888000D01*
X66496380Y-24911809D01*
X66377333Y-24911809D01*
X66329714Y-24888000D01*
X66305904Y-24864190D01*
X66282095Y-24816571D01*
X66282095Y-24768952D01*
X66305904Y-24697523D01*
X66591619Y-24411809D01*
X66282095Y-24411809D01*
X65782095Y-24459428D02*
X65805904Y-24435619D01*
X65877333Y-24411809D01*
X65924952Y-24411809D01*
X65996380Y-24435619D01*
X66044000Y-24483238D01*
X66067809Y-24530857D01*
X66091619Y-24626095D01*
X66091619Y-24697523D01*
X66067809Y-24792761D01*
X66044000Y-24840380D01*
X65996380Y-24888000D01*
X65924952Y-24911809D01*
X65877333Y-24911809D01*
X65805904Y-24888000D01*
X65782095Y-24864190D01*
G04 #@! TO.C,REG*
D16*
X39709285Y-24612142D02*
X39352142Y-24862142D01*
X39709285Y-25040714D02*
X38959285Y-25040714D01*
X38959285Y-24755000D01*
X38995000Y-24683571D01*
X39030714Y-24647857D01*
X39102142Y-24612142D01*
X39209285Y-24612142D01*
X39280714Y-24647857D01*
X39316428Y-24683571D01*
X39352142Y-24755000D01*
X39352142Y-25040714D01*
X39316428Y-24290714D02*
X39316428Y-24040714D01*
X39709285Y-23933571D02*
X39709285Y-24290714D01*
X38959285Y-24290714D01*
X38959285Y-23933571D01*
X38995000Y-23219285D02*
X38959285Y-23290714D01*
X38959285Y-23397857D01*
X38995000Y-23505000D01*
X39066428Y-23576428D01*
X39137857Y-23612142D01*
X39280714Y-23647857D01*
X39387857Y-23647857D01*
X39530714Y-23612142D01*
X39602142Y-23576428D01*
X39673571Y-23505000D01*
X39709285Y-23397857D01*
X39709285Y-23326428D01*
X39673571Y-23219285D01*
X39637857Y-23183571D01*
X39387857Y-23183571D01*
X39387857Y-23326428D01*
G04 #@! TO.C,IMU*
D17*
X95702837Y-39196344D02*
X94701827Y-39196344D01*
X95702837Y-38719672D02*
X94701827Y-38719672D01*
X95416835Y-38386002D01*
X94701827Y-38052332D01*
X95702837Y-38052332D01*
X94701827Y-37575661D02*
X95512169Y-37575661D01*
X95607503Y-37527994D01*
X95655170Y-37480327D01*
X95702837Y-37384992D01*
X95702837Y-37194324D01*
X95655170Y-37098990D01*
X95607503Y-37051322D01*
X95512169Y-37003655D01*
X94701827Y-37003655D01*
G04 #@! TO.C,OSC*
D10*
X89388190Y-39905714D02*
X89388190Y-39810476D01*
X89412000Y-39762857D01*
X89459619Y-39715238D01*
X89554857Y-39691428D01*
X89721523Y-39691428D01*
X89816761Y-39715238D01*
X89864380Y-39762857D01*
X89888190Y-39810476D01*
X89888190Y-39905714D01*
X89864380Y-39953333D01*
X89816761Y-40000952D01*
X89721523Y-40024761D01*
X89554857Y-40024761D01*
X89459619Y-40000952D01*
X89412000Y-39953333D01*
X89388190Y-39905714D01*
X89864380Y-39500952D02*
X89888190Y-39429523D01*
X89888190Y-39310476D01*
X89864380Y-39262857D01*
X89840571Y-39239047D01*
X89792952Y-39215238D01*
X89745333Y-39215238D01*
X89697714Y-39239047D01*
X89673904Y-39262857D01*
X89650095Y-39310476D01*
X89626285Y-39405714D01*
X89602476Y-39453333D01*
X89578666Y-39477142D01*
X89531047Y-39500952D01*
X89483428Y-39500952D01*
X89435809Y-39477142D01*
X89412000Y-39453333D01*
X89388190Y-39405714D01*
X89388190Y-39286666D01*
X89412000Y-39215238D01*
X89840571Y-38715238D02*
X89864380Y-38739047D01*
X89888190Y-38810476D01*
X89888190Y-38858095D01*
X89864380Y-38929523D01*
X89816761Y-38977142D01*
X89769142Y-39000952D01*
X89673904Y-39024761D01*
X89602476Y-39024761D01*
X89507238Y-39000952D01*
X89459619Y-38977142D01*
X89412000Y-38929523D01*
X89388190Y-38858095D01*
X89388190Y-38810476D01*
X89412000Y-38739047D01*
X89435809Y-38715238D01*
G04 #@! TO.C,Vin*
X33016095Y-24364190D02*
X33182761Y-24864190D01*
X33349428Y-24364190D01*
X33516095Y-24864190D02*
X33516095Y-24530857D01*
X33516095Y-24364190D02*
X33492285Y-24388000D01*
X33516095Y-24411809D01*
X33539904Y-24388000D01*
X33516095Y-24364190D01*
X33516095Y-24411809D01*
X33754190Y-24530857D02*
X33754190Y-24864190D01*
X33754190Y-24578476D02*
X33778000Y-24554666D01*
X33825619Y-24530857D01*
X33897047Y-24530857D01*
X33944666Y-24554666D01*
X33968476Y-24602285D01*
X33968476Y-24864190D01*
G04 #@! TO.C,PWR*
D15*
X29876666Y-51324380D02*
X29876666Y-50324380D01*
X30257619Y-50324380D01*
X30352857Y-50372000D01*
X30400476Y-50419619D01*
X30448095Y-50514857D01*
X30448095Y-50657714D01*
X30400476Y-50752952D01*
X30352857Y-50800571D01*
X30257619Y-50848190D01*
X29876666Y-50848190D01*
X30781428Y-50324380D02*
X31019523Y-51324380D01*
X31210000Y-50610095D01*
X31400476Y-51324380D01*
X31638571Y-50324380D01*
X32590952Y-51324380D02*
X32257619Y-50848190D01*
X32019523Y-51324380D02*
X32019523Y-50324380D01*
X32400476Y-50324380D01*
X32495714Y-50372000D01*
X32543333Y-50419619D01*
X32590952Y-50514857D01*
X32590952Y-50657714D01*
X32543333Y-50752952D01*
X32495714Y-50800571D01*
X32400476Y-50848190D01*
X32019523Y-50848190D01*
G04 #@! TO.C,R1*
X99147333Y-47442380D02*
X98814000Y-46966190D01*
X98575904Y-47442380D02*
X98575904Y-46442380D01*
X98956857Y-46442380D01*
X99052095Y-46490000D01*
X99099714Y-46537619D01*
X99147333Y-46632857D01*
X99147333Y-46775714D01*
X99099714Y-46870952D01*
X99052095Y-46918571D01*
X98956857Y-46966190D01*
X98575904Y-46966190D01*
X100099714Y-47442380D02*
X99528285Y-47442380D01*
X99814000Y-47442380D02*
X99814000Y-46442380D01*
X99718761Y-46585238D01*
X99623523Y-46680476D01*
X99528285Y-46728095D01*
G04 #@! TO.C,R2*
X99020333Y-31186380D02*
X98687000Y-30710190D01*
X98448904Y-31186380D02*
X98448904Y-30186380D01*
X98829857Y-30186380D01*
X98925095Y-30234000D01*
X98972714Y-30281619D01*
X99020333Y-30376857D01*
X99020333Y-30519714D01*
X98972714Y-30614952D01*
X98925095Y-30662571D01*
X98829857Y-30710190D01*
X98448904Y-30710190D01*
X99401285Y-30281619D02*
X99448904Y-30234000D01*
X99544142Y-30186380D01*
X99782238Y-30186380D01*
X99877476Y-30234000D01*
X99925095Y-30281619D01*
X99972714Y-30376857D01*
X99972714Y-30472095D01*
X99925095Y-30614952D01*
X99353666Y-31186380D01*
X99972714Y-31186380D01*
G04 #@! TO.C,R3*
X37378333Y-51174380D02*
X37045000Y-50698190D01*
X36806904Y-51174380D02*
X36806904Y-50174380D01*
X37187857Y-50174380D01*
X37283095Y-50222000D01*
X37330714Y-50269619D01*
X37378333Y-50364857D01*
X37378333Y-50507714D01*
X37330714Y-50602952D01*
X37283095Y-50650571D01*
X37187857Y-50698190D01*
X36806904Y-50698190D01*
X37711666Y-50174380D02*
X38330714Y-50174380D01*
X37997380Y-50555333D01*
X38140238Y-50555333D01*
X38235476Y-50602952D01*
X38283095Y-50650571D01*
X38330714Y-50745809D01*
X38330714Y-50983904D01*
X38283095Y-51079142D01*
X38235476Y-51126761D01*
X38140238Y-51174380D01*
X37854523Y-51174380D01*
X37759285Y-51126761D01*
X37711666Y-51079142D01*
G04 #@! TO.C,R4*
X75128380Y-27852666D02*
X74652190Y-28186000D01*
X75128380Y-28424095D02*
X74128380Y-28424095D01*
X74128380Y-28043142D01*
X74176000Y-27947904D01*
X74223619Y-27900285D01*
X74318857Y-27852666D01*
X74461714Y-27852666D01*
X74556952Y-27900285D01*
X74604571Y-27947904D01*
X74652190Y-28043142D01*
X74652190Y-28424095D01*
X74461714Y-26995523D02*
X75128380Y-26995523D01*
X74080761Y-27233619D02*
X74795047Y-27471714D01*
X74795047Y-26852666D01*
G04 #@! TO.C,R5*
X71715333Y-55570380D02*
X71382000Y-55094190D01*
X71143904Y-55570380D02*
X71143904Y-54570380D01*
X71524857Y-54570380D01*
X71620095Y-54618000D01*
X71667714Y-54665619D01*
X71715333Y-54760857D01*
X71715333Y-54903714D01*
X71667714Y-54998952D01*
X71620095Y-55046571D01*
X71524857Y-55094190D01*
X71143904Y-55094190D01*
X72620095Y-54570380D02*
X72143904Y-54570380D01*
X72096285Y-55046571D01*
X72143904Y-54998952D01*
X72239142Y-54951333D01*
X72477238Y-54951333D01*
X72572476Y-54998952D01*
X72620095Y-55046571D01*
X72667714Y-55141809D01*
X72667714Y-55379904D01*
X72620095Y-55475142D01*
X72572476Y-55522761D01*
X72477238Y-55570380D01*
X72239142Y-55570380D01*
X72143904Y-55522761D01*
X72096285Y-55475142D01*
G04 #@! TO.C,R6*
X79843333Y-55570380D02*
X79510000Y-55094190D01*
X79271904Y-55570380D02*
X79271904Y-54570380D01*
X79652857Y-54570380D01*
X79748095Y-54618000D01*
X79795714Y-54665619D01*
X79843333Y-54760857D01*
X79843333Y-54903714D01*
X79795714Y-54998952D01*
X79748095Y-55046571D01*
X79652857Y-55094190D01*
X79271904Y-55094190D01*
X80700476Y-54570380D02*
X80510000Y-54570380D01*
X80414761Y-54618000D01*
X80367142Y-54665619D01*
X80271904Y-54808476D01*
X80224285Y-54998952D01*
X80224285Y-55379904D01*
X80271904Y-55475142D01*
X80319523Y-55522761D01*
X80414761Y-55570380D01*
X80605238Y-55570380D01*
X80700476Y-55522761D01*
X80748095Y-55475142D01*
X80795714Y-55379904D01*
X80795714Y-55141809D01*
X80748095Y-55046571D01*
X80700476Y-54998952D01*
X80605238Y-54951333D01*
X80414761Y-54951333D01*
X80319523Y-54998952D01*
X80271904Y-55046571D01*
X80224285Y-55141809D01*
G04 #@! TO.C,R7*
X75128380Y-25566666D02*
X74652190Y-25900000D01*
X75128380Y-26138095D02*
X74128380Y-26138095D01*
X74128380Y-25757142D01*
X74176000Y-25661904D01*
X74223619Y-25614285D01*
X74318857Y-25566666D01*
X74461714Y-25566666D01*
X74556952Y-25614285D01*
X74604571Y-25661904D01*
X74652190Y-25757142D01*
X74652190Y-26138095D01*
X74128380Y-25233333D02*
X74128380Y-24566666D01*
X75128380Y-24995238D01*
G04 #@! TO.C,*
G04 #@! TO.C,UART1*
D10*
X57638190Y-50057714D02*
X58042952Y-50057714D01*
X58090571Y-50033904D01*
X58114380Y-50010095D01*
X58138190Y-49962476D01*
X58138190Y-49867238D01*
X58114380Y-49819619D01*
X58090571Y-49795809D01*
X58042952Y-49772000D01*
X57638190Y-49772000D01*
X57995333Y-49557714D02*
X57995333Y-49319619D01*
X58138190Y-49605333D02*
X57638190Y-49438666D01*
X58138190Y-49272000D01*
X58138190Y-48819619D02*
X57900095Y-48986285D01*
X58138190Y-49105333D02*
X57638190Y-49105333D01*
X57638190Y-48914857D01*
X57662000Y-48867238D01*
X57685809Y-48843428D01*
X57733428Y-48819619D01*
X57804857Y-48819619D01*
X57852476Y-48843428D01*
X57876285Y-48867238D01*
X57900095Y-48914857D01*
X57900095Y-49105333D01*
X57638190Y-48676761D02*
X57638190Y-48391047D01*
X58138190Y-48533904D02*
X57638190Y-48533904D01*
X58138190Y-47962476D02*
X58138190Y-48248190D01*
X58138190Y-48105333D02*
X57638190Y-48105333D01*
X57709619Y-48152952D01*
X57757238Y-48200571D01*
X57781047Y-48248190D01*
G04 #@! TO.C,UART2*
X57638190Y-54121714D02*
X58042952Y-54121714D01*
X58090571Y-54097904D01*
X58114380Y-54074095D01*
X58138190Y-54026476D01*
X58138190Y-53931238D01*
X58114380Y-53883619D01*
X58090571Y-53859809D01*
X58042952Y-53836000D01*
X57638190Y-53836000D01*
X57995333Y-53621714D02*
X57995333Y-53383619D01*
X58138190Y-53669333D02*
X57638190Y-53502666D01*
X58138190Y-53336000D01*
X58138190Y-52883619D02*
X57900095Y-53050285D01*
X58138190Y-53169333D02*
X57638190Y-53169333D01*
X57638190Y-52978857D01*
X57662000Y-52931238D01*
X57685809Y-52907428D01*
X57733428Y-52883619D01*
X57804857Y-52883619D01*
X57852476Y-52907428D01*
X57876285Y-52931238D01*
X57900095Y-52978857D01*
X57900095Y-53169333D01*
X57638190Y-52740761D02*
X57638190Y-52455047D01*
X58138190Y-52597904D02*
X57638190Y-52597904D01*
X57685809Y-52312190D02*
X57662000Y-52288380D01*
X57638190Y-52240761D01*
X57638190Y-52121714D01*
X57662000Y-52074095D01*
X57685809Y-52050285D01*
X57733428Y-52026476D01*
X57781047Y-52026476D01*
X57852476Y-52050285D01*
X58138190Y-52336000D01*
X58138190Y-52026476D01*
G04 #@! TO.C,UART3*
X68306190Y-52089714D02*
X68710952Y-52089714D01*
X68758571Y-52065904D01*
X68782380Y-52042095D01*
X68806190Y-51994476D01*
X68806190Y-51899238D01*
X68782380Y-51851619D01*
X68758571Y-51827809D01*
X68710952Y-51804000D01*
X68306190Y-51804000D01*
X68663333Y-51589714D02*
X68663333Y-51351619D01*
X68806190Y-51637333D02*
X68306190Y-51470666D01*
X68806190Y-51304000D01*
X68806190Y-50851619D02*
X68568095Y-51018285D01*
X68806190Y-51137333D02*
X68306190Y-51137333D01*
X68306190Y-50946857D01*
X68330000Y-50899238D01*
X68353809Y-50875428D01*
X68401428Y-50851619D01*
X68472857Y-50851619D01*
X68520476Y-50875428D01*
X68544285Y-50899238D01*
X68568095Y-50946857D01*
X68568095Y-51137333D01*
X68306190Y-50708761D02*
X68306190Y-50423047D01*
X68806190Y-50565904D02*
X68306190Y-50565904D01*
X68306190Y-50304000D02*
X68306190Y-49994476D01*
X68496666Y-50161142D01*
X68496666Y-50089714D01*
X68520476Y-50042095D01*
X68544285Y-50018285D01*
X68591904Y-49994476D01*
X68710952Y-49994476D01*
X68758571Y-50018285D01*
X68782380Y-50042095D01*
X68806190Y-50089714D01*
X68806190Y-50232571D01*
X68782380Y-50280190D01*
X68758571Y-50304000D01*
G04 #@! TO.C,*
D15*
G04 #@! TD*
M02*
